<svg width="24" height="24" viewBox="0 0 24 24" fill="none" xmlns="http://www.w3.org/2000/svg">
<path d="M16.2177 1.17496e-05H7.37289C6.40418 -0.00173407 5.44467 0.191089 4.54938 0.567422C3.65409 0.943756 2.84063 1.4962 2.15565 2.19306C1.47067 2.88992 0.927657 3.7175 0.557743 4.62833C0.187829 5.53916 -0.00170449 6.51532 1.15492e-05 7.50084V16.4992C1.15492e-05 18.4885 0.776794 20.3964 2.15948 21.8031C3.54216 23.2097 5.41748 24 7.37289 24H16.2177C18.1721 23.9965 20.0454 23.2051 21.4273 21.7992C22.8093 20.3933 23.5872 18.4874 23.5906 16.4992V7.50084C23.5906 5.51149 22.8138 3.60363 21.4311 2.19695C20.0485 0.790275 18.1731 1.17496e-05 16.2177 1.17496e-05ZM21.4282 16.4992C21.4282 17.9051 20.8793 19.2534 19.9021 20.2475C18.925 21.2416 17.5996 21.8001 16.2177 21.8001H7.37289C5.99097 21.8001 4.66566 21.2416 3.6885 20.2475C2.71134 19.2534 2.16237 17.9051 2.16237 16.4992V7.50084C2.16237 6.09494 2.71134 4.74663 3.6885 3.75251C4.66566 2.75839 5.99097 2.1999 7.37289 2.1999H16.2177C17.5996 2.1999 18.925 2.75839 19.9021 3.75251C20.8793 4.74663 21.4282 6.09494 21.4282 7.50084V16.4992Z" fill="white" fill-opacity="0.8"/>
<path d="M11.7886 6.00343C10.6209 6.00344 9.47955 6.35586 8.50887 7.0161C7.53819 7.67634 6.78187 8.61472 6.33563 9.71245C5.88939 10.8102 5.77329 12.0179 6.00204 13.1828C6.23078 14.3477 6.79409 15.4174 7.62065 16.2564C8.44721 17.0955 9.49987 17.6662 10.6454 17.8963C11.7909 18.1265 12.9778 18.0057 14.0558 17.5493C15.1338 17.0929 16.0545 16.3214 16.7014 15.3324C17.3482 14.3434 17.6921 13.1814 17.6895 11.9935C17.6895 11.2058 17.5368 10.4258 17.2401 9.69814C16.9434 8.97052 16.5085 8.30959 15.9604 7.75319C15.4123 7.19679 14.7616 6.75584 14.0458 6.45559C13.3299 6.15534 12.5629 6.00169 11.7886 6.00343ZM11.7886 15.7439C11.0595 15.7439 10.3467 15.524 9.74052 15.1119C9.13428 14.6998 8.66178 14.114 8.38277 13.4287C8.10375 12.7434 8.03074 11.9893 8.17299 11.2618C8.31523 10.5343 8.66633 9.86606 9.18188 9.34156C9.69744 8.81705 10.3543 8.45986 11.0694 8.31515C11.7845 8.17044 12.5257 8.24471 13.1993 8.52857C13.8729 8.81243 14.4487 9.29313 14.8538 9.90988C15.2588 10.5266 15.475 11.2517 15.475 11.9935C15.475 12.486 15.3797 12.9737 15.1944 13.4287C15.0092 13.8837 14.7376 14.2972 14.3953 14.6455C14.053 14.9937 13.6466 15.27 13.1993 15.4584C12.7521 15.6469 12.2727 15.7439 11.7886 15.7439Z" fill="white" fill-opacity="0.8"/>
<path d="M18.1331 6.34763C18.5648 6.34763 18.9147 5.99163 18.9147 5.55248C18.9147 5.11333 18.5648 4.75732 18.1331 4.75732C17.7015 4.75732 17.3516 5.11333 17.3516 5.55248C17.3516 5.99163 17.7015 6.34763 18.1331 6.34763Z" fill="white" fill-opacity="0.8"/>
</svg>
