<svg width="30" height="24" viewBox="0 0 30 24" fill="none" xmlns="http://www.w3.org/2000/svg">
<path d="M29.2062 2.82176C28.1285 3.31126 26.9863 3.63232 25.8172 3.7744C27.0492 3.03057 27.9692 1.83937 28.3979 0.432842C27.2469 1.13134 25.9913 1.62666 24.6828 1.89844C23.796 0.931365 22.6266 0.291989 21.3541 0.0785549C20.0817 -0.134879 18.7766 0.0894372 17.6395 0.717036C16.5024 1.34464 15.5961 2.34079 15.0599 3.55244C14.5237 4.76408 14.3873 6.12418 14.6716 7.42373C12.3375 7.30275 10.0541 6.67515 7.9701 5.58178C5.88611 4.4884 4.04822 2.95376 2.57603 1.0777C2.05948 2.01057 1.78588 3.06597 1.78195 4.1408C1.78124 5.13829 2.01906 6.12051 2.47426 7.00009C2.92945 7.87967 3.58792 8.62935 4.39108 9.18244C3.46127 9.16175 2.55064 8.90506 1.73941 8.43499V8.50827C1.73808 9.90732 2.20458 11.2639 3.05991 12.3482C3.91525 13.4326 5.10687 14.1781 6.43301 14.4586C5.91366 14.5906 5.37947 14.6498 4.84484 14.6344C4.4911 14.6683 4.13508 14.6683 3.78134 14.6344C4.16193 15.8378 4.89391 16.8898 5.87661 17.6457C6.85931 18.4015 8.04444 18.8241 9.26902 18.8554C7.18519 20.5005 4.63095 21.3822 2.00883 21.3615C1.53515 21.3673 1.06158 21.3429 0.59082 21.2882C3.27547 23.0729 6.4032 24.0147 9.59517 23.9996C11.7911 24.0152 13.9682 23.5796 15.9999 22.7183C18.0317 21.8569 19.8775 20.5868 21.4304 18.9819C22.9832 17.377 24.212 15.4692 25.0454 13.3693C25.8788 11.2693 26.3002 9.01921 26.2851 6.74955C26.2851 6.48575 26.2851 6.22194 26.2851 5.97279C27.4338 5.11205 28.4233 4.0447 29.2062 2.82176Z" fill="white" fill-opacity="0.8"/>
</svg>
