<svg width="26" height="24" viewBox="0 0 26 24" fill="none" xmlns="http://www.w3.org/2000/svg">
<path d="M25.062 9.27532V9.03472V8.8663C24.7309 7.09154 23.8922 5.44983 22.6469 4.13853C21.3055 2.72706 19.6513 1.6477 17.8165 0.986685C16.1857 0.359796 14.4563 0.0258121 12.7085 0.000229142C10.4046 -0.0128774 8.13249 0.53646 6.09092 1.60021C4.30329 2.43337 2.80274 3.77432 1.77787 5.45455C0.753 7.13477 0.249534 9.07929 0.330747 11.0437C0.512466 12.9859 1.27373 14.8295 2.51647 16.3369C3.75856 17.8276 5.35161 18.9889 7.15359 19.7173C8.26934 20.1449 9.42684 20.4554 10.6073 20.6436H10.7401C11.0782 20.6436 11.1628 20.788 11.1869 20.8241C11.2111 20.9106 11.2111 21.0022 11.1869 21.0887C11.1869 21.1609 11.1869 21.2211 11.1869 21.2812C11.0125 21.8122 10.9589 22.3751 11.0299 22.9293C11.0628 23.2249 11.2043 23.4979 11.4274 23.6956C11.6504 23.8934 11.939 24.0018 12.2375 24C12.9373 23.9144 13.6051 23.6582 14.1817 23.2541H14.2421C15.4497 22.5564 16.5848 21.7504 17.4422 21.1368C19.5114 19.7864 21.3915 18.1682 23.0333 16.3249C24.617 14.3338 25.3462 11.7998 25.062 9.27532ZM8.0472 13.0407H5.90978C5.83321 13.0423 5.7571 13.0285 5.68603 13.0001C5.61496 12.9716 5.5504 12.9292 5.49625 12.8752C5.44209 12.8213 5.39945 12.757 5.37091 12.6862C5.34236 12.6154 5.32849 12.5395 5.33014 12.4633V7.98811C5.32849 7.91183 5.34236 7.83601 5.37091 7.76521C5.39945 7.69441 5.44209 7.6301 5.49625 7.57615C5.5504 7.5222 5.61496 7.47973 5.68603 7.45129C5.7571 7.42285 5.83321 7.40904 5.90978 7.41068C5.98691 7.40908 6.06358 7.42283 6.13531 7.45113C6.20703 7.47943 6.27237 7.52171 6.32748 7.57549C6.38259 7.62927 6.42637 7.69347 6.45625 7.76432C6.48613 7.83518 6.50151 7.91126 6.5015 7.98811V11.8738H8.0472C8.20413 11.8738 8.35464 11.9359 8.46561 12.0464C8.57658 12.157 8.63892 12.3069 8.63892 12.4633C8.63894 12.5401 8.62355 12.6162 8.59367 12.687C8.56379 12.7579 8.52001 12.8221 8.4649 12.8759C8.40979 12.9297 8.34446 12.9719 8.27273 13.0002C8.20101 13.0285 8.12433 13.0423 8.0472 13.0407ZM10.2812 12.4512C10.2812 12.6108 10.2176 12.7637 10.1044 12.8765C9.99115 12.9894 9.83757 13.0527 9.67744 13.0527C9.5173 13.0527 9.36373 12.9894 9.25049 12.8765C9.13726 12.7637 9.07365 12.6108 9.07365 12.4512V7.97608C9.07365 7.81656 9.13726 7.66356 9.25049 7.55076C9.36373 7.43796 9.5173 7.37459 9.67744 7.37459C9.83757 7.37459 9.99115 7.43796 10.1044 7.55076C10.2176 7.66356 10.2812 7.81656 10.2812 7.97608V12.4512ZM15.5704 12.4512C15.5688 12.5747 15.5283 12.6945 15.4546 12.7938C15.381 12.8931 15.2779 12.9668 15.1599 13.0046H14.9787C14.8865 13.0056 14.7954 12.9843 14.7134 12.9423C14.6313 12.9004 14.5607 12.8392 14.5078 12.764L12.4066 9.90088V12.4512C12.4034 12.6055 12.3397 12.7523 12.2291 12.8603C12.1184 12.9682 11.9697 13.0287 11.8149 13.0287C11.7358 13.0336 11.6565 13.0223 11.5819 12.9955C11.5073 12.9687 11.4391 12.927 11.3814 12.8728C11.3236 12.8187 11.2777 12.7534 11.2463 12.6809C11.2149 12.6083 11.1988 12.5302 11.199 12.4512V8.10841C11.199 7.9848 11.2373 7.8642 11.3086 7.76303C11.3799 7.66186 11.4808 7.58504 11.5975 7.54301C11.7153 7.50696 11.8414 7.50846 11.9583 7.54728C12.0752 7.5861 12.1771 7.6603 12.2496 7.75955L14.3629 10.6467V7.97608C14.3629 7.81656 14.4265 7.66356 14.5397 7.55076C14.6529 7.43796 14.8065 7.37459 14.9667 7.37459C15.1268 7.37459 15.2804 7.43796 15.3936 7.55076C15.5068 7.66356 15.5704 7.81656 15.5704 7.97608V12.4512ZM19.8332 12.9324H16.935C16.8584 12.9341 16.7823 12.9202 16.7113 12.8918C16.6402 12.8634 16.5756 12.8209 16.5215 12.767C16.4673 12.713 16.4247 12.6487 16.3961 12.5779C16.3676 12.5071 16.3537 12.4313 16.3554 12.355V7.87985C16.3554 7.7267 16.4164 7.57983 16.5251 7.47154C16.6339 7.36324 16.7813 7.30241 16.935 7.30241H19.7366C19.8967 7.30241 20.0503 7.36578 20.1636 7.47858C20.2768 7.59138 20.3404 7.74438 20.3404 7.9039C20.3404 8.06343 20.2768 8.21642 20.1636 8.32923C20.0503 8.44203 19.8967 8.5054 19.7366 8.5054H17.5147V9.57607H19.326C19.4798 9.57607 19.6272 9.63691 19.7359 9.7452C19.8446 9.85349 19.9057 10.0004 19.9057 10.1535C19.9057 10.3078 19.845 10.4559 19.7367 10.5661C19.6283 10.6763 19.4809 10.7398 19.326 10.743H17.5147V11.8136H19.8332C19.9933 11.8136 20.1469 11.877 20.2602 11.9898C20.3734 12.1026 20.437 12.2556 20.437 12.4151C20.437 12.5747 20.3734 12.7277 20.2602 12.8405C20.1469 12.9533 19.9933 13.0166 19.8332 13.0166V12.9324Z" fill="white" fill-opacity="0.8"/>
</svg>
