<svg width="26" height="24" viewBox="0 0 26 24" fill="none" xmlns="http://www.w3.org/2000/svg">
<path d="M25.3223 14.7144V24H19.939V15.3363C19.939 13.1599 19.1604 11.6746 17.2119 11.6746C15.7244 11.6746 14.8392 12.6756 14.4498 13.6438C14.3078 13.99 14.2712 14.4718 14.2712 14.9564V24H8.88619C8.88619 24 8.95871 9.3265 8.88619 7.80621H14.2707V10.1016C14.2598 10.1188 14.2456 10.1373 14.2353 10.1539H14.2707V10.1016C14.9861 8.99978 16.2637 7.42577 19.1233 7.42577C22.6663 7.42572 25.3223 9.74027 25.3223 14.7144ZM3.25322 0C1.41101 0 0.206055 1.20834 0.206055 2.79736C0.206055 4.35175 1.37615 5.59676 3.18175 5.59676H3.21772C5.09561 5.59676 6.26349 4.35198 6.26349 2.79736C6.2281 1.20834 5.09561 0 3.25322 0ZM0.525878 24H5.90886V7.80621H0.525878V24Z" fill="white" fill-opacity="0.8"/>
</svg>
