<svg width="25" height="24" viewBox="0 0 25 24" fill="none" xmlns="http://www.w3.org/2000/svg">
<path d="M0.12207 0V24H24.1221V0H0.12207ZM20.0601 5.686L18.7731 6.92C18.7185 6.96155 18.6763 7.01725 18.6511 7.08106C18.6259 7.14487 18.6186 7.21436 18.6301 7.282V16.349C18.6188 16.4165 18.6262 16.4858 18.6514 16.5494C18.6766 16.613 18.7186 16.6685 18.7731 16.71L20.0301 17.944V18.215H13.7081V17.945L15.0101 16.68C15.1381 16.552 15.1381 16.515 15.1381 16.32V8.99L11.5181 18.185H11.0281L6.81207 8.99V15.153C6.79473 15.2808 6.80669 15.4109 6.84706 15.5334C6.88743 15.6559 6.95514 15.7676 7.04507 15.86L8.73907 17.914V18.185H3.93707V17.915L5.63207 15.86C5.72127 15.7675 5.78747 15.6553 5.82534 15.5325C5.86321 15.4097 5.87168 15.2797 5.85007 15.153V8.027C5.86005 7.92938 5.84687 7.83079 5.8116 7.73922C5.77633 7.64765 5.71996 7.56569 5.64707 7.5L4.14107 5.686V5.416H8.81507L12.4281 13.339L15.6041 5.415H20.0601V5.686Z" fill="white" fill-opacity="0.8"/>
</svg>
