<svg width="242" height="44" viewBox="0 0 242 44" fill="none" xmlns="http://www.w3.org/2000/svg">
<rect y="6.81848" width="6.85343" height="37.1816" fill="#5038BC"/>
<path d="M21.8453 -1.53141e-09L28.6987 6.8184L-1.36495e-05 6.8184L6.85342 -1.25293e-06L21.8453 -1.53141e-09Z" fill="#5038BC"/>
<path d="M5.88965 23.6512L9.31636 16.8328L28.6987 16.8328L21.8453 23.6512L5.88965 23.6512Z" fill="#5038BC"/>
<mask id="mask0" mask-type="alpha" maskUnits="userSpaceOnUse" x="0" y="6" width="7" height="29">
<rect opacity="0.45" y="6.81848" width="6.85343" height="27.2736" fill="#B9B9B9"/>
</mask>
<g mask="url(#mask0)">
<ellipse opacity="0.5" cx="5.94175" cy="6.83332" rx="7.57701" ry="4.33857" fill="url(#paint0_radial)"/>
<ellipse opacity="0.5" cx="9.95872" cy="23.6514" rx="7.0676" ry="4.68765" fill="url(#paint1_radial)"/>
</g>
<mask id="mask1" mask-type="alpha" maskUnits="userSpaceOnUse" x="6" y="0" width="16" height="7">
<rect opacity="0.45" x="21.8457" width="6.8184" height="14.9919" transform="rotate(90 21.8457 0)" fill="#5038BC"/>
</mask>
<g mask="url(#mask1)">
<ellipse opacity="0.5" cx="22.1671" cy="5.64643" rx="6.71186" ry="4.39048" transform="rotate(90 22.1671 5.64643)" fill="#5038BC"/>
</g>
<path d="M21.8457 0L28.6991 6.81839V16.8329H21.8457V0Z" fill="#5038BC"/>
<mask id="mask2" mask-type="alpha" maskUnits="userSpaceOnUse" x="21" y="7" width="8" height="10">
<rect opacity="0.45" x="28.6987" y="16.8329" width="6.85343" height="9.37529" transform="rotate(-180 28.6987 16.8329)" fill="#B9B9B9"/>
</mask>
<g mask="url(#mask2)">
<ellipse opacity="0.5" cx="23.0232" cy="17.4722" rx="6.74635" ry="4.36803" transform="rotate(-180 23.0232 17.4722)" fill="url(#paint2_radial)"/>
</g>
<mask id="mask3" mask-type="alpha" maskUnits="userSpaceOnUse" x="9" y="16" width="10" height="8">
<rect opacity="0.45" width="6.8184" height="9.42347" transform="matrix(-4.3936e-08 1 1 4.34879e-08 9.42383 16.8329)" fill="#B9B9B9"/>
</mask>
<g mask="url(#mask3)">
<ellipse opacity="0.7" rx="12.2938" ry="4.38131" transform="matrix(0.641681 0.766972 0.770196 -0.637807 10.7094 22.2727)" fill="url(#paint3_radial)"/>
</g>
<path d="M5.89002 23.6514L9.31674 16.833L28.6456 39.4722L23.4519 43.9468L5.89002 23.6514Z" fill="#5038BC"/>
<path d="M44.6876 10.3032C44.6876 11.2976 44.1468 11.8943 42.9931 11.8943H41.0824V8.74826H42.9931C44.1468 8.74826 44.6876 9.363 44.6876 10.3032ZM38 6.18081V18.8734H41.0824V14.0821H41.8215L44.4532 18.8734H47.9322L45.012 13.847C46.9588 13.2684 47.8241 11.7677 47.8241 10.1766C47.8241 7.97079 46.2738 6.18081 43.1734 6.18081H38ZM49.759 18.8734H52.8414V6.18081H49.759V18.8734ZM64.2684 15.0946C64.2684 10.8456 58.0135 11.8401 58.0135 9.63421C58.0135 8.83867 58.5723 8.45897 59.3113 8.47705C60.1405 8.49513 60.7173 8.98331 60.7714 9.79694H64.1062C63.98 7.37413 62.1233 6 59.3654 6C56.7156 6 54.7508 7.33797 54.7508 9.7427C54.7147 14.2448 61.0418 12.9791 61.0418 15.3296C61.0418 16.0709 60.465 16.5229 59.5637 16.5229C58.6984 16.5229 58.0856 16.0529 57.9954 15.0765H54.7147C54.8049 17.644 56.9319 19 59.6538 19C62.61 19 64.2684 17.2281 64.2684 15.0946ZM65.4803 8.65786H68.8331V18.8734H71.9156V8.65786H75.2684V6.18081H65.4803V8.65786ZM84.5665 6.18081H76.8154V18.8734H84.5665V16.3964H79.8978V13.612H84.0257V11.2253H79.8978V8.65786H84.5665V6.18081ZM93.904 18.8734H97.6714L92.5882 12.4006L97.4912 6.18081H93.868L89.65 11.7497V6.18081H86.5675V18.8734H89.65V13.2684L93.904 18.8734ZM102.956 18.8734H106.039V13.7385H109.896V11.3338H106.039V8.65786H111.194V6.18081H102.956V18.8734ZM121.448 18.8734H124.711L120.133 6.18081H116.563L111.985 18.8734H115.212L115.969 16.6314H120.691L121.448 18.8734ZM119.898 14.2448H116.78L118.33 9.59805L119.898 14.2448ZM135.298 15.0946C135.298 10.8456 129.043 11.8401 129.043 9.63421C129.043 8.83867 129.602 8.45897 130.341 8.47705C131.17 8.49513 131.747 8.98331 131.801 9.79694H135.136C135.009 7.37413 133.153 6 130.395 6C127.745 6 125.78 7.33797 125.78 9.7427C125.744 14.2448 132.071 12.9791 132.071 15.3296C132.071 16.0709 131.494 16.5229 130.593 16.5229C129.728 16.5229 129.115 16.0529 129.025 15.0765H125.744C125.834 17.644 127.961 19 130.683 19C133.639 19 135.298 17.2281 135.298 15.0946ZM137.195 18.8734H140.277V6.18081H137.195V18.8734ZM142.511 6.18081V18.8734H149.631V16.4868H145.593V6.18081H142.511ZM158.437 18.8734H162.205L157.122 12.4006L162.025 6.18081H158.401L154.183 11.7497V6.18081H151.101V18.8734H154.183V13.2684L158.437 18.8734ZM176.126 12.491C176.126 8.67594 173.26 6 169.655 6C166.067 6 163.147 8.67594 163.147 12.491C163.147 16.306 166.067 19 169.655 19C173.242 19 176.126 16.306 176.126 12.491ZM166.302 12.491C166.302 10.2309 167.6 8.8025 169.655 8.8025C171.673 8.8025 172.989 10.2309 172.989 12.491C172.989 14.7149 171.673 16.1794 169.655 16.1794C167.6 16.1794 166.302 14.7149 166.302 12.491ZM177.841 18.8734H180.924V11.2434L183.772 18.8734H186.259L189.089 11.2615V18.8734H192.172V6.18081H188.549L185.034 14.968L181.482 6.18081H177.841V18.8734ZM198.154 13.7566C198.154 17.2643 200.444 19 203.382 19C206.302 19 208.753 17.2643 208.753 13.7566V6.18081H205.671V13.7747C205.671 15.2754 204.896 16.1433 203.436 16.1433C201.976 16.1433 201.237 15.2754 201.237 13.7747V6.18081H198.154V13.7566ZM210.918 18.8734H214V6.18081H210.918V18.8734Z" fill="#5038BC"/>
<path d="M44.888 33.23H42.34L42.802 31.074H45.35L44.888 33.23ZM44.006 37.36H45.868L46.372 34.98H48.528V33.23H46.75L47.212 31.074H49.382V29.324H47.59L48.08 27H46.218L45.728 29.324H43.18L43.67 27H41.822L41.332 29.324H38.854V31.074H40.954L40.492 33.23H38V34.98H40.114L39.61 37.36H41.458L41.962 34.98H44.51L44.006 37.36ZM50.5401 32.46C50.5401 35.386 52.6821 37.444 55.4961 37.444C57.6661 37.444 59.4301 36.296 60.0881 34.28H57.8341C57.3721 35.232 56.5321 35.694 55.4821 35.694C53.7741 35.694 52.5561 34.434 52.5561 32.46C52.5561 30.472 53.7741 29.226 55.4821 29.226C56.5321 29.226 57.3721 29.688 57.8341 30.626H60.0881C59.4301 28.624 57.6661 27.462 55.4961 27.462C52.6821 27.462 50.5401 29.534 50.5401 32.46ZM71.2962 32.446C71.2962 29.52 69.0842 27.448 66.2982 27.448C63.5402 27.448 61.2862 29.52 61.2862 32.446C61.2862 35.386 63.5402 37.458 66.2982 37.458C69.0702 37.458 71.2962 35.386 71.2962 32.446ZM63.3022 32.446C63.3022 30.458 64.5202 29.212 66.2982 29.212C68.0622 29.212 69.2802 30.458 69.2802 32.446C69.2802 34.434 68.0622 35.708 66.2982 35.708C64.5202 35.708 63.3022 34.434 63.3022 32.446ZM72.7543 27.588V37.36H77.9343V35.806H74.7143V27.588H72.7543ZM79.1801 27.588V37.36H84.3601V35.806H81.1401V27.588H79.1801ZM92.2419 37.36H94.3139L90.7999 27.574H88.5179L85.0039 37.36H87.0619L87.7059 35.498H91.5979L92.2419 37.36ZM91.0659 33.93H88.2379L89.6519 29.842L91.0659 33.93ZM101.073 34.476C101.073 35.302 100.513 35.764 99.5614 35.764H97.5874V33.132H99.5194C100.471 33.132 101.073 33.636 101.073 34.476ZM100.835 30.402C100.835 31.2 100.303 31.62 99.3794 31.62H97.5874V29.17H99.3794C100.303 29.17 100.835 29.618 100.835 30.402ZM103.061 34.714C103.061 33.566 102.277 32.544 101.171 32.348C102.123 32.04 102.837 31.298 102.837 30.108C102.837 28.652 101.703 27.588 99.6594 27.588H95.6274V37.36H99.8414C101.871 37.36 103.061 36.268 103.061 34.714ZM114.158 32.446C114.158 29.52 111.946 27.448 109.16 27.448C106.401 27.448 104.147 29.52 104.147 32.446C104.147 35.386 106.401 37.458 109.16 37.458C111.932 37.458 114.158 35.386 114.158 32.446ZM106.163 32.446C106.163 30.458 107.382 29.212 109.16 29.212C110.924 29.212 112.142 30.458 112.142 32.446C112.142 34.434 110.924 35.708 109.16 35.708C107.382 35.708 106.163 34.434 106.163 32.446ZM120.796 30.626C120.796 31.508 120.306 32.082 119.214 32.082H117.576V29.212H119.214C120.306 29.212 120.796 29.758 120.796 30.626ZM115.616 27.588V37.36H117.576V33.552H118.5L120.656 37.36H122.924L120.586 33.398C122.154 32.978 122.812 31.774 122.812 30.584C122.812 28.946 121.636 27.588 119.284 27.588H115.616ZM131.22 37.36H133.292L129.778 27.574H127.496L123.982 37.36H126.04L126.684 35.498H130.576L131.22 37.36ZM130.044 33.93H127.216L128.63 29.842L130.044 33.93ZM134.088 29.17H136.692V37.36H138.652V29.17H141.256V27.588H134.088V29.17ZM142.686 37.36H144.646V27.588H142.686V37.36ZM150.6 35.358L147.912 27.588H145.812L149.396 37.36H151.776L155.36 27.588H153.274L150.6 35.358ZM162.206 27.574H156.536V37.36H162.206V35.764H158.496V33.174H161.786V31.62H158.496V29.17H162.206V27.574ZM167.137 27.602H164.099V37.36H167.137C170.343 37.36 172.317 35.526 172.317 32.502C172.317 29.478 170.343 27.602 167.137 27.602ZM165.373 36.31V28.638H167.137C169.685 28.638 171.015 30.122 171.015 32.502C171.015 34.882 169.685 36.31 167.137 36.31H165.373ZM173.997 37.36H175.271V27.602H173.997V37.36ZM183.785 34.7C183.785 31.088 178.521 32.656 178.521 30.136C178.521 29.086 179.347 28.54 180.397 28.568C181.587 28.582 182.203 29.324 182.287 29.982H183.687C183.533 28.498 182.315 27.476 180.453 27.476C178.521 27.476 177.219 28.568 177.219 30.178C177.219 33.804 182.497 32.124 182.497 34.756C182.497 35.68 181.769 36.38 180.537 36.38C179.179 36.38 178.605 35.568 178.521 34.756H177.163C177.191 36.366 178.577 37.458 180.537 37.458C182.651 37.458 183.785 36.086 183.785 34.7ZM190.881 30.472C190.881 31.564 190.251 32.348 188.809 32.348H186.933V28.652H188.809C190.265 28.652 190.881 29.366 190.881 30.472ZM185.659 27.602V37.36H186.933V33.37H188.473L190.797 37.36H192.323L189.873 33.272C191.511 32.908 192.197 31.718 192.197 30.472C192.197 28.876 191.105 27.602 188.809 27.602H185.659ZM194.149 33.762C194.149 36.296 195.801 37.458 197.817 37.458C199.833 37.458 201.499 36.296 201.499 33.762V27.602H200.225V33.776C200.225 35.568 199.273 36.338 197.831 36.338C196.389 36.338 195.423 35.568 195.423 33.776V27.602H194.149V33.762ZM204.898 32.236V28.652H206.774C208.23 28.652 208.846 29.324 208.846 30.458C208.846 31.55 208.23 32.236 206.774 32.236H204.898ZM210.148 30.458C210.148 28.862 209.07 27.602 206.774 27.602H203.624V37.36H204.898V33.286H206.774C209.196 33.286 210.148 31.942 210.148 30.458ZM211.13 28.638H213.804V37.36H215.078V28.638H217.738V27.602H211.13V28.638ZM219.306 37.36H220.58V27.602H219.306V37.36ZM232.075 32.474C232.075 29.548 229.933 27.49 227.175 27.49C224.431 27.49 222.275 29.548 222.275 32.474C222.275 35.4 224.431 37.458 227.175 37.458C229.933 37.458 232.075 35.4 232.075 32.474ZM223.577 32.474C223.577 30.08 225.117 28.596 227.175 28.596C229.233 28.596 230.773 30.08 230.773 32.474C230.773 34.854 229.233 36.352 227.175 36.352C225.117 36.352 223.577 34.854 223.577 32.474ZM240.155 27.588V35.344L235.031 27.588H233.757V37.36H235.031V29.59L240.155 37.36H241.429V27.588H240.155Z" fill="#5038BC"/>
<defs>
<radialGradient id="paint0_radial" cx="0" cy="0" r="1" gradientUnits="userSpaceOnUse" gradientTransform="translate(5.94175 6.83332) rotate(90) scale(4.33857 7.57701)">
<stop/>
<stop offset="0.917127" stop-opacity="0"/>
</radialGradient>
<radialGradient id="paint1_radial" cx="0" cy="0" r="1" gradientUnits="userSpaceOnUse" gradientTransform="translate(9.95872 23.6514) rotate(90) scale(4.68765 7.0676)">
<stop/>
<stop offset="0.917127" stop-opacity="0"/>
</radialGradient>
<radialGradient id="paint2_radial" cx="0" cy="0" r="1" gradientUnits="userSpaceOnUse" gradientTransform="translate(23.0232 17.4722) rotate(90) scale(4.36803 6.74635)">
<stop/>
<stop offset="0.917127" stop-opacity="0"/>
</radialGradient>
<radialGradient id="paint3_radial" cx="0" cy="0" r="1" gradientUnits="userSpaceOnUse" gradientTransform="translate(12.2938 4.38131) rotate(90) scale(4.38131 12.2938)">
<stop/>
<stop offset="0.917127" stop-opacity="0"/>
</radialGradient>
</defs>
</svg>
