<svg width="225" height="45" viewBox="0 0 225 45" fill="none" xmlns="http://www.w3.org/2000/svg">
<rect y="6.97339" width="7.00919" height="38.0266" fill="#917DEC"/>
<path d="M22.3416 -1.56622e-09L29.3508 6.97336L-0.000157691 6.97336L7.00903 -1.28141e-06L22.3416 -1.56622e-09Z" fill="#917DEC"/>
<path d="M6.02344 24.1887L9.52803 17.2154L29.3509 17.2154L22.3417 24.1887L6.02344 24.1887Z" fill="#917DEC"/>
<mask id="mask0_669_2980" style="mask-type:alpha" maskUnits="userSpaceOnUse" x="0" y="6" width="8" height="29">
<rect opacity="0.45" y="6.97339" width="7.00919" height="27.8934" fill="#B9B9B9"/>
</mask>
<g mask="url(#mask0_669_2980)">
<ellipse opacity="0.5" cx="6.07709" cy="6.98893" rx="7.74921" ry="4.43718" fill="url(#paint0_radial_669_2980)"/>
<ellipse opacity="0.5" cx="10.185" cy="24.1887" rx="7.22823" ry="4.79418" fill="url(#paint1_radial_669_2980)"/>
</g>
<mask id="mask1_669_2980" style="mask-type:alpha" maskUnits="userSpaceOnUse" x="7" y="0" width="16" height="7">
<rect opacity="0.45" x="22.3423" width="6.97336" height="15.3326" transform="rotate(90 22.3423 0)" fill="#5038BC"/>
</mask>
<g mask="url(#mask1_669_2980)">
<ellipse opacity="0.5" cx="22.6709" cy="5.7748" rx="6.8644" ry="4.49026" transform="rotate(90 22.6709 5.7748)" fill="#917DEC"/>
</g>
<path d="M22.3423 0L29.3515 6.97336V17.2155H22.3423V0Z" fill="#917DEC"/>
<mask id="mask2_669_2980" style="mask-type:alpha" maskUnits="userSpaceOnUse" x="22" y="7" width="8" height="11">
<rect opacity="0.45" x="29.3508" y="17.2156" width="7.00919" height="9.58837" transform="rotate(-180 29.3508 17.2156)" fill="#B9B9B9"/>
</mask>
<g mask="url(#mask2_669_2980)">
<ellipse opacity="0.5" cx="23.5464" cy="17.8694" rx="6.89967" ry="4.46731" transform="rotate(-180 23.5464 17.8694)" fill="url(#paint2_radial_669_2980)"/>
</g>
<mask id="mask3_669_2980" style="mask-type:alpha" maskUnits="userSpaceOnUse" x="9" y="17" width="11" height="8">
<rect opacity="0.45" width="6.97336" height="9.63764" transform="matrix(-4.3936e-08 1 1 4.34879e-08 9.63818 17.2156)" fill="#B9B9B9"/>
</mask>
<g mask="url(#mask3_669_2980)">
<ellipse opacity="0.7" cx="12.5732" cy="4.48088" rx="12.5732" ry="4.48088" transform="matrix(0.641681 0.766972 0.770196 -0.637807 -0.566162 15.9937)" fill="url(#paint3_radial_669_2980)"/>
</g>
<path d="M6.02378 24.1887L9.52837 17.2154L29.2965 40.3691L23.9848 44.9454L6.02378 24.1887Z" fill="#917DEC"/>
<path d="M45.8394 20L43.1143 15.0537H42.349V20H39.1572V6.89696H44.5142C45.547 6.89696 46.4243 7.07739 47.146 7.43825C47.8802 7.79912 48.4277 8.29686 48.7885 8.93148C49.1494 9.55365 49.3298 10.2505 49.3298 11.022C49.3298 11.893 49.081 12.6708 48.5832 13.3552C48.0979 14.0395 47.3762 14.5248 46.418 14.811L49.4418 20H45.8394ZM42.349 12.7952H44.3275C44.9124 12.7952 45.3479 12.6521 45.6341 12.3659C45.9328 12.0797 46.0821 11.6753 46.0821 11.1526C46.0821 10.6549 45.9328 10.2629 45.6341 9.97674C45.3479 9.69053 44.9124 9.54743 44.3275 9.54743H42.349V12.7952ZM54.5252 6.89696V20H51.3334V6.89696H54.5252ZM61.5792 20.1307C60.6211 20.1307 59.7625 19.9751 59.0034 19.664C58.2444 19.3529 57.6346 18.8925 57.1742 18.2828C56.7263 17.6731 56.4898 16.9389 56.4649 16.0803H59.862C59.9118 16.5656 60.0798 16.9389 60.366 17.2002C60.6522 17.4491 61.0255 17.5735 61.4859 17.5735C61.9588 17.5735 62.3321 17.4677 62.6058 17.2562C62.8796 17.0322 63.0165 16.7274 63.0165 16.3416C63.0165 16.0181 62.9045 15.7505 62.6805 15.539C62.4689 15.3275 62.2014 15.1532 61.8779 15.0164C61.5668 14.8795 61.1188 14.7239 60.534 14.5497C59.6878 14.2884 58.9972 14.0271 58.4621 13.7658C57.9271 13.5045 57.4666 13.1187 57.0809 12.6085C56.6951 12.0984 56.5023 11.4326 56.5023 10.6114C56.5023 9.39189 56.944 8.43996 57.8275 7.75557C58.711 7.05873 59.862 6.71031 61.2806 6.71031C62.724 6.71031 63.8875 7.05873 64.771 7.75557C65.6545 8.43996 66.1273 9.39811 66.1896 10.63H62.7365C62.7116 10.2069 62.556 9.87719 62.2698 9.64076C61.9836 9.39189 61.6166 9.26745 61.1686 9.26745C60.7828 9.26745 60.4718 9.37322 60.2353 9.58476C59.9989 9.78386 59.8807 10.0763 59.8807 10.462C59.8807 10.8851 60.0798 11.2149 60.478 11.4513C60.8762 11.6877 61.4983 11.9428 62.3445 12.2166C63.1907 12.5028 63.8751 12.7765 64.3977 13.0378C64.9328 13.2992 65.3932 13.6787 65.7789 14.1764C66.1647 14.6742 66.3575 15.315 66.3575 16.099C66.3575 16.8456 66.1647 17.5237 65.7789 18.1335C65.4056 18.7432 64.8581 19.2285 64.1364 19.5894C63.4146 19.9502 62.5623 20.1307 61.5792 20.1307ZM77.7477 6.89696V9.45411H74.276V20H71.0842V9.45411H67.6125V6.89696H77.7477ZM82.5414 9.45411V12.1046H86.8157V14.5684H82.5414V17.4429H87.3757V20H79.3496V6.89696H87.3757V9.45411H82.5414ZM97.0446 20L92.6396 14.2138V20H89.4478V6.89696H92.6396V12.6459L97.0073 6.89696H100.759L95.682 13.3178L100.946 20H97.0446ZM114.948 6.89696V9.45411H109.61V12.2166H113.604V14.6991H109.61V20H106.418V6.89696H114.948ZM124.782 17.6855H119.892L119.108 20H115.767L120.508 6.89696H124.204L128.945 20H125.566L124.782 17.6855ZM123.961 15.2217L122.337 10.4247L120.732 15.2217H123.961ZM135.129 20.1307C134.17 20.1307 133.312 19.9751 132.553 19.664C131.794 19.3529 131.184 18.8925 130.724 18.2828C130.276 17.6731 130.039 16.9389 130.014 16.0803H133.411C133.461 16.5656 133.629 16.9389 133.915 17.2002C134.201 17.4491 134.575 17.5735 135.035 17.5735C135.508 17.5735 135.881 17.4677 136.155 17.2562C136.429 17.0322 136.566 16.7274 136.566 16.3416C136.566 16.0181 136.454 15.7505 136.23 15.539C136.018 15.3275 135.751 15.1532 135.427 15.0164C135.116 14.8795 134.668 14.7239 134.083 14.5497C133.237 14.2884 132.546 14.0271 132.011 13.7658C131.476 13.5045 131.016 13.1187 130.63 12.6085C130.244 12.0984 130.052 11.4326 130.052 10.6114C130.052 9.39189 130.493 8.43996 131.377 7.75557C132.26 7.05873 133.411 6.71031 134.83 6.71031C136.273 6.71031 137.437 7.05873 138.32 7.75557C139.204 8.43996 139.677 9.39811 139.739 10.63H136.286C136.261 10.2069 136.105 9.87719 135.819 9.64076C135.533 9.39189 135.166 9.26745 134.718 9.26745C134.332 9.26745 134.021 9.37322 133.785 9.58476C133.548 9.78386 133.43 10.0763 133.43 10.462C133.43 10.8851 133.629 11.2149 134.027 11.4513C134.425 11.6877 135.048 11.9428 135.894 12.2166C136.74 12.5028 137.424 12.7765 137.947 13.0378C138.482 13.2992 138.942 13.6787 139.328 14.1764C139.714 14.6742 139.907 15.315 139.907 16.099C139.907 16.8456 139.714 17.5237 139.328 18.1335C138.955 18.7432 138.407 19.2285 137.686 19.5894C136.964 19.9502 136.112 20.1307 135.129 20.1307ZM145.063 6.89696V20H141.871V6.89696H145.063ZM150.568 17.5362H154.749V20H147.376V6.89696H150.568V17.5362ZM163.868 20L159.463 14.2138V20H156.271V6.89696H159.463V12.6459L163.83 6.89696H167.582L162.505 13.3178L167.769 20H163.868ZM175.483 20.1307C174.251 20.1307 173.118 19.8445 172.086 19.2721C171.065 18.6997 170.25 17.9033 169.64 16.8829C169.043 15.8501 168.744 14.6928 168.744 13.4112C168.744 12.1295 169.043 10.9784 169.64 9.95807C170.25 8.9377 171.065 8.14131 172.086 7.56891C173.118 6.99651 174.251 6.71031 175.483 6.71031C176.715 6.71031 177.841 6.99651 178.861 7.56891C179.894 8.14131 180.703 8.9377 181.287 9.95807C181.885 10.9784 182.183 12.1295 182.183 13.4112C182.183 14.6928 181.885 15.8501 181.287 16.8829C180.69 17.9033 179.881 18.6997 178.861 19.2721C177.841 19.8445 176.715 20.1307 175.483 20.1307ZM175.483 17.2189C176.528 17.2189 177.362 16.8705 177.984 16.1736C178.618 15.4768 178.936 14.556 178.936 13.4112C178.936 12.2539 178.618 11.3331 177.984 10.6487C177.362 9.95185 176.528 9.60343 175.483 9.60343C174.425 9.60343 173.579 9.94563 172.944 10.63C172.322 11.3144 172.011 12.2415 172.011 13.4112C172.011 14.5684 172.322 15.4954 172.944 16.1923C173.579 16.8767 174.425 17.2189 175.483 17.2189ZM198.798 6.89696V20H195.606V12.1419L192.676 20H190.1L187.151 12.1232V20H183.959V6.89696H187.73L191.407 15.9683L195.046 6.89696H198.798ZM208.184 6.89696V14.7364C208.184 15.5203 208.377 16.1238 208.763 16.5469C209.149 16.97 209.715 17.1815 210.462 17.1815C211.208 17.1815 211.781 16.97 212.179 16.5469C212.577 16.1238 212.776 15.5203 212.776 14.7364V6.89696H215.968V14.7177C215.968 15.8874 215.719 16.8767 215.221 17.6855C214.724 18.4943 214.052 19.1041 213.205 19.5147C212.372 19.9253 211.438 20.1307 210.406 20.1307C209.373 20.1307 208.446 19.9316 207.625 19.5334C206.816 19.1227 206.175 18.513 205.702 17.7042C205.229 16.8829 204.993 15.8874 204.993 14.7177V6.89696H208.184ZM221.401 6.89696V20H218.209V6.89696H221.401Z" fill="#917DEC"/>
<path d="M48.142 30.3143L47.5897 32.9304H49.5954V34.0932H47.3426L46.7177 37H45.4532L46.0781 34.0932H43.026L42.401 37H41.1365L41.7615 34.0932H39.4796V32.9304H42.0086L42.5609 30.3143H40.3081V29.1515H42.808L43.4329 26.2447H44.6974L44.0724 29.1515H47.1246L47.7496 26.2447H49.0141L48.3891 29.1515H50.4093V30.3143H48.142ZM46.8775 30.3143H43.8253L43.273 32.9304H46.3252L46.8775 30.3143ZM59.9996 29.8056C59.7186 29.2145 59.3117 28.7591 58.7788 28.4394C58.2458 28.1099 57.6257 27.9452 56.9184 27.9452C56.211 27.9452 55.5715 28.1099 54.9999 28.4394C54.4379 28.7591 53.9922 29.2242 53.6627 29.8346C53.343 30.4354 53.1831 31.133 53.1831 31.9276C53.1831 32.7221 53.343 33.4197 53.6627 34.0205C53.9922 34.6212 54.4379 35.0863 54.9999 35.4158C55.5715 35.7355 56.211 35.8954 56.9184 35.8954C57.9067 35.8954 58.7206 35.5999 59.3601 35.0088C59.9996 34.4178 60.3727 33.6184 60.4793 32.6107H56.4387V31.5351H61.8891V32.5525C61.8116 33.3858 61.5499 34.1513 61.1042 34.8489C60.6585 35.5369 60.0723 36.0843 59.3456 36.4913C58.6189 36.8886 57.8098 37.0872 56.9184 37.0872C55.9785 37.0872 55.121 36.8692 54.3458 36.4332C53.5707 35.9875 52.9554 35.3722 52.5 34.5873C52.0543 33.8025 51.8314 32.9159 51.8314 31.9276C51.8314 30.9392 52.0543 30.0527 52.5 29.2678C52.9554 28.4733 53.5707 27.858 54.3458 27.422C55.121 26.9763 55.9785 26.7534 56.9184 26.7534C57.9939 26.7534 58.9435 27.0199 59.7671 27.5528C60.6004 28.0857 61.206 28.8366 61.5839 29.8056H59.9996ZM64.9604 30.3288C65.193 29.8734 65.5224 29.5197 65.9488 29.2678C66.3848 29.0159 66.9129 28.8899 67.533 28.8899V30.2561H67.1842C65.7017 30.2561 64.9604 31.0604 64.9604 32.6688V37H63.6378V29.0353H64.9604V30.3288ZM72.5334 37.1308C71.7873 37.1308 71.1091 36.9612 70.4986 36.6221C69.8979 36.283 69.4231 35.8034 69.0743 35.1832C68.7352 34.5534 68.5656 33.8267 68.5656 33.0031C68.5656 32.1892 68.74 31.4722 69.0888 30.852C69.4473 30.2222 69.9318 29.7426 70.5422 29.4132C71.1527 29.074 71.8358 28.9045 72.5916 28.9045C73.3473 28.9045 74.0304 29.074 74.6409 29.4132C75.2513 29.7426 75.7309 30.2174 76.0798 30.8375C76.4383 31.4576 76.6175 32.1795 76.6175 33.0031C76.6175 33.8267 76.4334 34.5534 76.0652 35.1832C75.7067 35.8034 75.2174 36.283 74.5973 36.6221C73.9772 36.9612 73.2892 37.1308 72.5334 37.1308ZM72.5334 35.9681C73.0082 35.9681 73.4539 35.8566 73.8706 35.6338C74.2872 35.4109 74.6215 35.0766 74.8734 34.6309C75.135 34.1852 75.2659 33.6426 75.2659 33.0031C75.2659 32.3636 75.1399 31.821 74.888 31.3753C74.636 30.9296 74.3066 30.6001 73.8996 30.3869C73.4927 30.1641 73.0518 30.0527 72.577 30.0527C72.0926 30.0527 71.6468 30.1641 71.2399 30.3869C70.8426 30.6001 70.5229 30.9296 70.2806 31.3753C70.0384 31.821 69.9173 32.3636 69.9173 33.0031C69.9173 33.6523 70.0335 34.1997 70.2661 34.6455C70.5083 35.0912 70.8281 35.4255 71.2253 35.6483C71.6226 35.8615 72.0586 35.9681 72.5334 35.9681ZM85.4201 29.0353V37H84.0975V35.8227C83.8456 36.2297 83.4919 36.5494 83.0365 36.782C82.5908 37.0048 82.0967 37.1163 81.554 37.1163C80.9339 37.1163 80.3768 36.9903 79.8826 36.7384C79.3885 36.4768 78.996 36.0892 78.7053 35.5756C78.4244 35.0621 78.2839 34.4371 78.2839 33.7007V29.0353H79.5919V33.5263C79.5919 34.3112 79.7906 34.9168 80.1878 35.3431C80.5851 35.7597 81.1277 35.9681 81.8157 35.9681C82.523 35.9681 83.0801 35.7501 83.4871 35.314C83.894 34.878 84.0975 34.2433 84.0975 33.4101V29.0353H85.4201ZM91.5339 28.8899C92.5029 28.8899 93.2877 29.1855 93.8885 29.7765C94.4892 30.3579 94.7896 31.2009 94.7896 32.3055V37H93.4815V32.4944C93.4815 31.6999 93.2829 31.0943 92.8856 30.6776C92.4883 30.2513 91.9457 30.0381 91.2578 30.0381C90.5601 30.0381 90.003 30.2561 89.5863 30.6922C89.1794 31.1282 88.9759 31.7628 88.9759 32.5961V37H87.6533V29.0353H88.9759V30.1689C89.2375 29.762 89.5912 29.4471 90.0369 29.2242C90.4923 29.0014 90.9913 28.8899 91.5339 28.8899ZM96.4559 32.9886C96.4559 32.1747 96.6206 31.4625 96.9501 30.852C97.2795 30.2319 97.7301 29.7523 98.3017 29.4132C98.8831 29.074 99.5323 28.9045 100.249 28.9045C100.869 28.9045 101.446 29.0498 101.979 29.3405C102.512 29.6215 102.919 29.9945 103.2 30.4596V26.2447H104.537V37H103.2V35.503C102.938 35.9778 102.551 36.3702 102.037 36.6802C101.523 36.9806 100.923 37.1308 100.235 37.1308C99.5275 37.1308 98.8831 36.9564 98.3017 36.6076C97.7301 36.2588 97.2795 35.7694 96.9501 35.1396C96.6206 34.5098 96.4559 33.7928 96.4559 32.9886ZM103.2 33.0031C103.2 32.4024 103.079 31.8791 102.836 31.4334C102.594 30.9877 102.265 30.6486 101.848 30.416C101.441 30.1738 100.991 30.0527 100.496 30.0527C100.002 30.0527 99.5517 30.1689 99.1447 30.4015C98.7378 30.634 98.4132 30.9732 98.1709 31.4189C97.9287 31.8646 97.8076 32.3878 97.8076 32.9886C97.8076 33.599 97.9287 34.1319 98.1709 34.5873C98.4132 35.033 98.7378 35.377 99.1447 35.6193C99.5517 35.8518 100.002 35.9681 100.496 35.9681C100.991 35.9681 101.441 35.8518 101.848 35.6193C102.265 35.377 102.594 35.033 102.836 34.5873C103.079 34.1319 103.2 33.6038 103.2 33.0031ZM108.095 30.5178C108.366 30.043 108.763 29.6554 109.286 29.355C109.81 29.0546 110.406 28.9045 111.074 28.9045C111.791 28.9045 112.435 29.074 113.007 29.4132C113.579 29.7523 114.029 30.2319 114.359 30.852C114.688 31.4625 114.853 32.1747 114.853 32.9886C114.853 33.7928 114.688 34.5098 114.359 35.1396C114.029 35.7694 113.574 36.2588 112.993 36.6076C112.421 36.9564 111.781 37.1308 111.074 37.1308C110.386 37.1308 109.781 36.9806 109.257 36.6802C108.744 36.3799 108.356 35.9971 108.095 35.532V37H106.772V26.2447H108.095V30.5178ZM113.501 32.9886C113.501 32.3878 113.38 31.8646 113.138 31.4189C112.896 30.9732 112.566 30.634 112.15 30.4015C111.743 30.1689 111.292 30.0527 110.798 30.0527C110.313 30.0527 109.863 30.1738 109.446 30.416C109.039 30.6486 108.71 30.9925 108.458 31.4479C108.216 31.8937 108.095 32.412 108.095 33.0031C108.095 33.6038 108.216 34.1319 108.458 34.5873C108.71 35.033 109.039 35.377 109.446 35.6193C109.863 35.8518 110.313 35.9681 110.798 35.9681C111.292 35.9681 111.743 35.8518 112.15 35.6193C112.566 35.377 112.896 35.033 113.138 34.5873C113.38 34.1319 113.501 33.599 113.501 32.9886ZM117.917 30.3288C118.149 29.8734 118.479 29.5197 118.905 29.2678C119.341 29.0159 119.869 28.8899 120.489 28.8899V30.2561H120.14C118.658 30.2561 117.917 31.0604 117.917 32.6688V37H116.594V29.0353H117.917V30.3288ZM129.283 32.7124C129.283 32.9643 129.268 33.2308 129.239 33.5118H122.873C122.922 34.2966 123.188 34.9119 123.673 35.3576C124.167 35.7937 124.763 36.0117 125.46 36.0117C126.032 36.0117 126.507 35.8809 126.885 35.6193C127.272 35.3479 127.544 34.9894 127.699 34.5437H129.123C128.91 35.3092 128.484 35.9342 127.844 36.4186C127.205 36.8934 126.41 37.1308 125.46 37.1308C124.705 37.1308 124.026 36.9612 123.426 36.6221C122.835 36.283 122.37 35.8034 122.03 35.1832C121.691 34.5534 121.522 33.8267 121.522 33.0031C121.522 32.1795 121.686 31.4576 122.016 30.8375C122.345 30.2174 122.806 29.7426 123.397 29.4132C123.997 29.074 124.685 28.9045 125.46 28.9045C126.216 28.9045 126.885 29.0692 127.466 29.3986C128.048 29.7281 128.493 30.1835 128.803 30.7648C129.123 31.3365 129.283 31.9857 129.283 32.7124ZM127.917 32.4363C127.917 31.9324 127.805 31.5012 127.582 31.1427C127.36 30.7745 127.054 30.4984 126.667 30.3143C126.289 30.1205 125.867 30.0236 125.402 30.0236C124.734 30.0236 124.162 30.2368 123.687 30.6631C123.222 31.0894 122.956 31.6805 122.888 32.4363H127.917ZM130.535 32.9886C130.535 32.1747 130.699 31.4625 131.029 30.852C131.358 30.2319 131.809 29.7523 132.38 29.4132C132.962 29.074 133.606 28.9045 134.313 28.9045C135.011 28.9045 135.617 29.0546 136.13 29.355C136.644 29.6554 137.027 30.0333 137.278 30.4887V29.0353H138.616V37H137.278V35.5175C137.017 35.9826 136.624 36.3702 136.101 36.6802C135.588 36.9806 134.987 37.1308 134.299 37.1308C133.592 37.1308 132.952 36.9564 132.38 36.6076C131.809 36.2588 131.358 35.7694 131.029 35.1396C130.699 34.5098 130.535 33.7928 130.535 32.9886ZM137.278 33.0031C137.278 32.4024 137.157 31.8791 136.915 31.4334C136.673 30.9877 136.343 30.6486 135.927 30.416C135.52 30.1738 135.069 30.0527 134.575 30.0527C134.081 30.0527 133.63 30.1689 133.223 30.4015C132.816 30.634 132.492 30.9732 132.25 31.4189C132.007 31.8646 131.886 32.3878 131.886 32.9886C131.886 33.599 132.007 34.1319 132.25 34.5873C132.492 35.033 132.816 35.377 133.223 35.6193C133.63 35.8518 134.081 35.9681 134.575 35.9681C135.069 35.9681 135.52 35.8518 135.927 35.6193C136.343 35.377 136.673 35.033 136.915 34.5873C137.157 34.1319 137.278 33.6038 137.278 33.0031ZM145.298 37L142.173 33.4827V37H140.851V26.2447H142.173V32.5671L145.24 29.0353H147.086L143.336 33.0031L147.1 37H145.298ZM149.014 27.7417C148.762 27.7417 148.549 27.6545 148.374 27.4801C148.2 27.3057 148.113 27.0925 148.113 26.8406C148.113 26.5887 148.2 26.3755 148.374 26.2011C148.549 26.0267 148.762 25.9395 149.014 25.9395C149.256 25.9395 149.459 26.0267 149.624 26.2011C149.799 26.3755 149.886 26.5887 149.886 26.8406C149.886 27.0925 149.799 27.3057 149.624 27.4801C149.459 27.6545 149.256 27.7417 149.014 27.7417ZM149.653 29.0353V37H148.331V29.0353H149.653ZM155.788 28.8899C156.757 28.8899 157.542 29.1855 158.143 29.7765C158.743 30.3579 159.044 31.2009 159.044 32.3055V37H157.736V32.4944C157.736 31.6999 157.537 31.0943 157.14 30.6776C156.742 30.2513 156.2 30.0381 155.512 30.0381C154.814 30.0381 154.257 30.2561 153.84 30.6922C153.434 31.1282 153.23 31.7628 153.23 32.5961V37H151.907V29.0353H153.23V30.1689C153.492 29.762 153.845 29.4471 154.291 29.2242C154.746 29.0014 155.245 28.8899 155.788 28.8899ZM164.489 28.9045C165.177 28.9045 165.778 29.0546 166.291 29.355C166.814 29.6554 167.202 30.0333 167.454 30.4887V29.0353H168.791V37.1744C168.791 37.9011 168.636 38.5455 168.326 39.1075C168.016 39.6791 167.57 40.1248 166.989 40.4446C166.417 40.7644 165.749 40.9242 164.983 40.9242C163.937 40.9242 163.065 40.6771 162.367 40.183C161.669 39.6888 161.258 39.0154 161.132 38.1627H162.44C162.585 38.6472 162.885 39.0348 163.341 39.3255C163.796 39.6258 164.344 39.776 164.983 39.776C165.71 39.776 166.301 39.5483 166.756 39.0929C167.221 38.6375 167.454 37.998 167.454 37.1744V35.503C167.192 35.9681 166.805 36.3557 166.291 36.6657C165.778 36.9758 165.177 37.1308 164.489 37.1308C163.782 37.1308 163.137 36.9564 162.556 36.6076C161.984 36.2588 161.534 35.7694 161.204 35.1396C160.875 34.5098 160.71 33.7928 160.71 32.9886C160.71 32.1747 160.875 31.4625 161.204 30.852C161.534 30.2319 161.984 29.7523 162.556 29.4132C163.137 29.074 163.782 28.9045 164.489 28.9045ZM167.454 33.0031C167.454 32.4024 167.333 31.8791 167.091 31.4334C166.848 30.9877 166.519 30.6486 166.102 30.416C165.695 30.1738 165.245 30.0527 164.751 30.0527C164.256 30.0527 163.806 30.1689 163.399 30.4015C162.992 30.634 162.667 30.9732 162.425 31.4189C162.183 31.8646 162.062 32.3878 162.062 32.9886C162.062 33.599 162.183 34.1319 162.425 34.5873C162.667 35.033 162.992 35.377 163.399 35.6193C163.806 35.8518 164.256 35.9681 164.751 35.9681C165.245 35.9681 165.695 35.8518 166.102 35.6193C166.519 35.377 166.848 35.033 167.091 34.5873C167.333 34.1319 167.454 33.6038 167.454 33.0031ZM177.973 29.9073C177.741 29.481 177.421 29.1564 177.014 28.9335C176.607 28.7107 176.132 28.5992 175.59 28.5992C174.989 28.5992 174.456 28.7349 173.991 29.0062C173.526 29.2775 173.163 29.6651 172.901 30.1689C172.639 30.6728 172.509 31.2542 172.509 31.913C172.509 32.5913 172.639 33.1824 172.901 33.6862C173.172 34.1901 173.545 34.5776 174.02 34.8489C174.495 35.1202 175.047 35.2559 175.677 35.2559C176.452 35.2559 177.087 35.0524 177.581 34.6455C178.075 34.2288 178.4 33.6523 178.555 32.9159H175.067V31.3607H180.561V33.1339C180.425 33.8412 180.134 34.4953 179.689 35.096C179.243 35.6968 178.666 36.1812 177.959 36.5494C177.261 36.908 176.476 37.0872 175.604 37.0872C174.626 37.0872 173.739 36.8692 172.945 36.4332C172.16 35.9875 171.54 35.3722 171.084 34.5873C170.639 33.8025 170.416 32.911 170.416 31.913C170.416 30.915 170.639 30.0236 171.084 29.2387C171.54 28.4442 172.16 27.8289 172.945 27.3929C173.739 26.9472 174.621 26.7243 175.59 26.7243C176.733 26.7243 177.726 27.0053 178.569 27.5673C179.412 28.1196 179.994 28.8996 180.313 29.9073H177.973ZM184.101 30.198C184.362 29.7717 184.702 29.4374 185.118 29.1951C185.544 28.9529 186.029 28.8318 186.572 28.8318V30.9683H186.034C185.394 30.9683 184.91 31.1185 184.58 31.4189C184.261 31.7192 184.101 32.2425 184.101 32.9886V37H182.066V28.9481H184.101V30.198ZM191.518 37.1308C190.742 37.1308 190.045 36.9612 189.425 36.6221C188.804 36.2733 188.315 35.784 187.957 35.1542C187.608 34.5243 187.433 33.7976 187.433 32.974C187.433 32.1504 187.613 31.4237 187.971 30.7939C188.339 30.1641 188.838 29.6796 189.468 29.3405C190.098 28.9917 190.801 28.8173 191.576 28.8173C192.351 28.8173 193.053 28.9917 193.683 29.3405C194.313 29.6796 194.807 30.1641 195.166 30.7939C195.534 31.4237 195.718 32.1504 195.718 32.974C195.718 33.7976 195.529 34.5243 195.151 35.1542C194.783 35.784 194.279 36.2733 193.64 36.6221C193.01 36.9612 192.302 37.1308 191.518 37.1308ZM191.518 35.3576C191.886 35.3576 192.23 35.2704 192.549 35.096C192.879 34.9119 193.141 34.6406 193.334 34.2821C193.528 33.9236 193.625 33.4876 193.625 32.974C193.625 32.2086 193.422 31.6224 193.015 31.2154C192.617 30.7987 192.128 30.5904 191.547 30.5904C190.965 30.5904 190.476 30.7987 190.079 31.2154C189.691 31.6224 189.497 32.2086 189.497 32.974C189.497 33.7395 189.686 34.3306 190.064 34.7472C190.452 35.1542 190.936 35.3576 191.518 35.3576ZM208.373 28.9481L206.018 37H203.824L202.356 31.3753L200.888 37H198.678L196.309 28.9481H198.373L199.798 35.0815L201.338 28.9481H203.489L205.001 35.067L206.425 28.9481H208.373ZM211.843 30.6195V34.5147C211.843 34.786 211.906 34.9846 212.032 35.1106C212.167 35.2268 212.39 35.285 212.7 35.285H213.645V37H212.366C210.651 37 209.793 36.1667 209.793 34.5001V30.6195H208.834V28.9481H209.793V26.9569H211.843V28.9481H213.645V30.6195H211.843ZM219.643 28.8318C220.254 28.8318 220.796 28.9674 221.271 29.2387C221.746 29.5004 222.114 29.8928 222.376 30.416C222.647 30.9296 222.783 31.5497 222.783 32.2764V37H220.748V32.5525C220.748 31.913 220.588 31.4237 220.268 31.0846C219.948 30.7358 219.512 30.5614 218.96 30.5614C218.398 30.5614 217.952 30.7358 217.623 31.0846C217.303 31.4237 217.143 31.913 217.143 32.5525V37H215.109V26.2447H217.143V29.9509C217.405 29.6021 217.754 29.3308 218.19 29.137C218.626 28.9335 219.11 28.8318 219.643 28.8318Z" fill="#917DEC"/>
<defs>
<radialGradient id="paint0_radial_669_2980" cx="0" cy="0" r="1" gradientUnits="userSpaceOnUse" gradientTransform="translate(6.07709 6.98893) rotate(90) scale(4.43718 7.74921)">
<stop/>
<stop offset="0.917127" stop-opacity="0"/>
</radialGradient>
<radialGradient id="paint1_radial_669_2980" cx="0" cy="0" r="1" gradientUnits="userSpaceOnUse" gradientTransform="translate(10.185 24.1887) rotate(90) scale(4.79418 7.22823)">
<stop/>
<stop offset="0.917127" stop-opacity="0"/>
</radialGradient>
<radialGradient id="paint2_radial_669_2980" cx="0" cy="0" r="1" gradientUnits="userSpaceOnUse" gradientTransform="translate(23.5464 17.8694) rotate(90) scale(4.46731 6.89967)">
<stop/>
<stop offset="0.917127" stop-opacity="0"/>
</radialGradient>
<radialGradient id="paint3_radial_669_2980" cx="0" cy="0" r="1" gradientUnits="userSpaceOnUse" gradientTransform="translate(12.5732 4.48088) rotate(90) scale(4.48088 12.5732)">
<stop/>
<stop offset="0.917127" stop-opacity="0"/>
</radialGradient>
</defs>
</svg>
