<svg width="254" height="45" viewBox="0 0 254 45" fill="none" xmlns="http://www.w3.org/2000/svg">
<rect x="0.00012207" y="6.89807" width="6.93357" height="37.6163" fill="#5038BC"/>
<path d="M22.1007 -1.5493e-09L29.0343 6.89813L-2.50971e-05 6.89813L6.93355 -1.26758e-06L22.1007 -1.5493e-09Z" fill="#5038BC"/>
<path d="M5.95862 23.928L9.4254 17.0299L29.0344 17.0299L22.1008 23.928L5.95862 23.928Z" fill="#5038BC"/>
<mask id="mask0_775_5695" style="mask-type:alpha" maskUnits="userSpaceOnUse" x="0" y="6" width="7" height="29">
<rect opacity="0.45" x="0.00012207" y="6.89807" width="6.93357" height="27.5925" fill="#B9B9B9"/>
</mask>
<g mask="url(#mask0_775_5695)">
<ellipse opacity="0.5" cx="6.01143" cy="6.91323" rx="7.66561" ry="4.38931" fill="url(#paint0_radial_775_5695)"/>
<ellipse opacity="0.5" cx="10.0753" cy="23.9276" rx="7.15024" ry="4.74246" fill="url(#paint1_radial_775_5695)"/>
</g>
<mask id="mask1_775_5695" style="mask-type:alpha" maskUnits="userSpaceOnUse" x="6" y="0" width="17" height="7">
<rect opacity="0.45" x="22.1013" width="6.89813" height="15.1672" transform="rotate(90 22.1013 0)" fill="#5038BC"/>
</mask>
<g mask="url(#mask1_775_5695)">
<ellipse opacity="0.5" cx="22.4266" cy="5.71246" rx="6.79034" ry="4.44182" transform="rotate(90 22.4266 5.71246)" fill="#5038BC"/>
</g>
<path d="M22.1013 0L29.0349 6.89812V17.0297H22.1013V0Z" fill="#5038BC"/>
<mask id="mask2_775_5695" style="mask-type:alpha" maskUnits="userSpaceOnUse" x="22" y="7" width="8" height="11">
<rect opacity="0.45" x="29.0343" y="17.0298" width="6.93357" height="9.48492" transform="rotate(-180 29.0343 17.0298)" fill="#B9B9B9"/>
</mask>
<g mask="url(#mask2_775_5695)">
<ellipse opacity="0.5" cx="23.2923" cy="17.6766" rx="6.82523" ry="4.41911" transform="rotate(-180 23.2923 17.6766)" fill="url(#paint2_radial_775_5695)"/>
</g>
<mask id="mask3_775_5695" style="mask-type:alpha" maskUnits="userSpaceOnUse" x="9" y="17" width="11" height="7">
<rect opacity="0.45" width="6.89813" height="9.53366" transform="matrix(-4.3936e-08 1 1 4.34879e-08 9.53418 17.0298)" fill="#B9B9B9"/>
</mask>
<g mask="url(#mask3_775_5695)">
<ellipse opacity="0.7" rx="12.4375" ry="4.43254" transform="matrix(0.641681 0.766972 0.770196 -0.637807 10.8347 22.5331)" fill="url(#paint3_radial_775_5695)"/>
</g>
<path d="M5.95881 23.9279L9.4256 17.0297L28.9804 39.9337L23.7261 44.4606L5.95881 23.9279Z" fill="#5038BC"/>
<path d="M45.7548 19L43.0591 14.1071H42.3021V19H39.1448V6.03833H44.4439C45.4656 6.03833 46.3334 6.21681 47.0473 6.57378C47.7736 6.93075 48.3152 7.42312 48.6721 8.0509C49.0291 8.66636 49.2076 9.35568 49.2076 10.1189C49.2076 10.9805 48.9614 11.7498 48.469 12.4268C47.989 13.1039 47.275 13.5839 46.3272 13.867L49.3184 19H45.7548ZM42.3021 11.8729H44.2593C44.8378 11.8729 45.2686 11.7314 45.5517 11.4483C45.8472 11.1651 45.9949 10.7651 45.9949 10.2481C45.9949 9.75573 45.8472 9.36799 45.5517 9.08488C45.2686 8.80176 44.8378 8.66021 44.2593 8.66021H42.3021V11.8729ZM54.3469 6.03833V19H51.1896V6.03833H54.3469ZM61.3248 19.1292C60.377 19.1292 59.5277 18.9754 58.7768 18.6676C58.0259 18.3599 57.4228 17.9045 56.9673 17.3013C56.5242 16.6982 56.2903 15.9719 56.2657 15.1226H59.6262C59.6754 15.6026 59.8416 15.9719 60.1247 16.2304C60.4078 16.4766 60.7771 16.5997 61.2325 16.5997C61.7003 16.5997 62.0695 16.4951 62.3403 16.2858C62.6112 16.0642 62.7466 15.7627 62.7466 15.3811C62.7466 15.061 62.6358 14.7964 62.4142 14.5871C62.2049 14.3779 61.9403 14.2055 61.6203 14.0701C61.3125 13.9347 60.8694 13.7809 60.2909 13.6085C59.4538 13.35 58.7707 13.0915 58.2414 12.8331C57.7121 12.5746 57.2566 12.193 56.875 11.6883C56.4934 11.1836 56.3026 10.5251 56.3026 9.71265C56.3026 8.50634 56.7396 7.56468 57.6136 6.88767C58.4875 6.19835 59.6262 5.85369 61.0294 5.85369C62.4573 5.85369 63.6082 6.19835 64.4822 6.88767C65.3561 7.56468 65.8239 8.51249 65.8854 9.73111H62.4696C62.445 9.3126 62.2911 8.9864 62.008 8.75252C61.7249 8.50634 61.3618 8.38325 60.9186 8.38325C60.537 8.38325 60.2293 8.48787 59.9954 8.69713C59.7616 8.89408 59.6446 9.18335 59.6446 9.56494C59.6446 9.98345 59.8416 10.3096 60.2355 10.5435C60.6294 10.7774 61.2448 11.0297 62.0819 11.3005C62.9189 11.5837 63.5959 11.8545 64.1129 12.113C64.6422 12.3715 65.0976 12.7469 65.4792 13.2393C65.8608 13.7316 66.0516 14.3656 66.0516 15.141C66.0516 15.8796 65.8608 16.5505 65.4792 17.1536C65.1099 17.7568 64.5683 18.2368 63.8544 18.5938C63.1405 18.9508 62.2973 19.1292 61.3248 19.1292ZM77.3189 6.03833V8.56789H73.8846V19H70.7273V8.56789H67.293V6.03833H77.3189ZM82.0608 8.56789V11.1898H86.2891V13.627H82.0608V16.4704H86.843V19H78.9035V6.03833H86.843V8.56789H82.0608ZM96.4076 19L92.0501 13.2762V19H88.8928V6.03833H92.0501V11.7252L96.3707 6.03833H100.082L95.0597 12.3899L100.267 19H96.4076ZM114.118 6.03833V8.56789H108.837V11.3005H112.788V13.7562H108.837V19H105.68V6.03833H114.118ZM123.846 16.7105H119.008L118.233 19H114.928L119.618 6.03833H123.274L127.963 19H124.621L123.846 16.7105ZM123.034 14.2732L121.427 9.52801L119.839 14.2732H123.034ZM134.081 19.1292C133.133 19.1292 132.283 18.9754 131.533 18.6676C130.782 18.3599 130.179 17.9045 129.723 17.3013C129.28 16.6982 129.046 15.9719 129.021 15.1226H132.382C132.431 15.6026 132.597 15.9719 132.88 16.2304C133.164 16.4766 133.533 16.5997 133.988 16.5997C134.456 16.5997 134.825 16.4951 135.096 16.2858C135.367 16.0642 135.502 15.7627 135.502 15.3811C135.502 15.061 135.392 14.7964 135.17 14.5871C134.961 14.3779 134.696 14.2055 134.376 14.0701C134.068 13.9347 133.625 13.7809 133.047 13.6085C132.21 13.35 131.526 13.0915 130.997 12.8331C130.468 12.5746 130.012 12.193 129.631 11.6883C129.249 11.1836 129.058 10.5251 129.058 9.71265C129.058 8.50634 129.495 7.56468 130.369 6.88767C131.243 6.19835 132.382 5.85369 133.785 5.85369C135.213 5.85369 136.364 6.19835 137.238 6.88767C138.112 7.56468 138.58 8.51249 138.641 9.73111H135.225C135.201 9.3126 135.047 8.9864 134.764 8.75252C134.481 8.50634 134.118 8.38325 133.674 8.38325C133.293 8.38325 132.985 8.48787 132.751 8.69713C132.517 8.89408 132.4 9.18335 132.4 9.56494C132.4 9.98345 132.597 10.3096 132.991 10.5435C133.385 10.7774 134.001 11.0297 134.838 11.3005C135.675 11.5837 136.352 11.8545 136.869 12.113C137.398 12.3715 137.853 12.7469 138.235 13.2393C138.617 13.7316 138.807 14.3656 138.807 15.141C138.807 15.8796 138.617 16.5505 138.235 17.1536C137.866 17.7568 137.324 18.2368 136.61 18.5938C135.896 18.9508 135.053 19.1292 134.081 19.1292ZM143.908 6.03833V19H140.75V6.03833H143.908ZM149.353 16.5628H153.489V19H146.196V6.03833H149.353V16.5628ZM162.51 19L158.152 13.2762V19H154.995V6.03833H158.152V11.7252L162.473 6.03833H166.184L161.162 12.3899L166.369 19H162.51ZM173.999 19.1292C172.781 19.1292 171.661 18.8461 170.639 18.2799C169.63 17.7137 168.823 16.9259 168.22 15.9165C167.629 14.8949 167.334 13.7501 167.334 12.4822C167.334 11.2144 167.629 10.0758 168.22 9.06641C168.823 8.05705 169.63 7.26926 170.639 6.70303C171.661 6.1368 172.781 5.85369 173.999 5.85369C175.218 5.85369 176.332 6.1368 177.341 6.70303C178.363 7.26926 179.163 8.05705 179.742 9.06641C180.332 10.0758 180.628 11.2144 180.628 12.4822C180.628 13.7501 180.332 14.8949 179.742 15.9165C179.151 16.9259 178.351 17.7137 177.341 18.2799C176.332 18.8461 175.218 19.1292 173.999 19.1292ZM173.999 16.2489C175.033 16.2489 175.858 15.9042 176.473 15.2149C177.101 14.5256 177.415 13.6147 177.415 12.4822C177.415 11.3375 177.101 10.4266 176.473 9.74958C175.858 9.06026 175.033 8.7156 173.999 8.7156C172.953 8.7156 172.116 9.0541 171.488 9.73111C170.873 10.4081 170.565 11.3252 170.565 12.4822C170.565 13.627 170.873 14.544 171.488 15.2334C172.116 15.9104 172.953 16.2489 173.999 16.2489ZM197.063 6.03833V19H193.906V11.2267L191.007 19H188.459L185.542 11.2082V19H182.384V6.03833H186.114L189.751 15.0118L193.352 6.03833H197.063ZM206.348 6.03833V13.7932C206.348 14.5687 206.539 15.1657 206.921 15.5842C207.302 16.0027 207.862 16.2119 208.601 16.2119C209.34 16.2119 209.906 16.0027 210.3 15.5842C210.694 15.1657 210.891 14.5687 210.891 13.7932V6.03833H214.048V13.7747C214.048 14.9318 213.802 15.9104 213.309 16.7105C212.817 17.5106 212.152 18.1137 211.315 18.5199C210.49 18.9261 209.567 19.1292 208.546 19.1292C207.524 19.1292 206.607 18.9323 205.794 18.5384C204.994 18.1322 204.36 17.529 203.893 16.7289C203.425 15.9165 203.191 14.9318 203.191 13.7747V6.03833H206.348ZM219.422 6.03833V19H216.265V6.03833H219.422Z" fill="#5038BC"/>
<path d="M48.1735 30.2751L47.699 32.4893H49.525V34.2864H47.3108L46.7933 36.7306H44.8811L45.3986 34.2864H42.782L42.2644 36.7306H40.3666L40.8842 34.2864H38.7132V32.4893H41.2723L41.7468 30.2751H39.5902V28.478H42.135L42.6382 26.0913H44.536L44.0328 28.478H46.6495L47.1527 26.0913H49.0649L48.5617 28.478H50.402V30.2751H48.1735ZM46.2613 30.2751H43.6446L43.1702 32.4893H45.7868L46.2613 30.2751ZM57.2559 36.7306L55.0418 32.8199H54.0929V36.7306H52.0801V26.6952H55.847C56.6233 26.6952 57.2847 26.8342 57.831 27.1121C58.3774 27.3805 58.7847 27.7495 59.0531 28.2192C59.3311 28.6793 59.4701 29.1968 59.4701 29.7719C59.4701 30.4333 59.2784 31.0324 58.895 31.5691C58.5116 32.0963 57.9413 32.4605 57.1841 32.6618L59.5851 36.7306H57.2559ZM54.0929 31.3103H55.7751C56.3214 31.3103 56.7288 31.1809 56.9971 30.9221C57.2655 30.6538 57.3997 30.2847 57.3997 29.8151C57.3997 29.355 57.2655 29.0004 56.9971 28.7511C56.7288 28.4924 56.3214 28.363 55.7751 28.363H54.0929V31.3103ZM63.3034 28.3198V30.8359H66.6821V32.4318H63.3034V35.0916H67.1134V36.7306H61.2906V26.6808H67.1134V28.3198H63.3034ZM77.9572 26.6952L74.2766 36.7306H71.8325L68.1519 26.6952H70.3085L73.0689 34.6746L75.815 26.6952H77.9572ZM83.8223 36.8312C82.883 36.8312 82.0203 36.6108 81.2344 36.1699C80.4484 35.729 79.8254 35.1203 79.3653 34.3439C78.9052 33.558 78.6752 32.6714 78.6752 31.6841C78.6752 30.7065 78.9052 29.8294 79.3653 29.0531C79.8254 28.2671 80.4484 27.6537 81.2344 27.2128C82.0203 26.7719 82.883 26.5514 83.8223 26.5514C84.7712 26.5514 85.6339 26.7719 86.4102 27.2128C87.1962 27.6537 87.8144 28.2671 88.2649 29.0531C88.725 29.8294 88.955 30.7065 88.955 31.6841C88.955 32.6714 88.725 33.558 88.2649 34.3439C87.8144 35.1203 87.1962 35.729 86.4102 36.1699C85.6243 36.6108 84.7616 36.8312 83.8223 36.8312ZM83.8223 35.0341C84.4262 35.0341 84.9581 34.8999 85.4182 34.6315C85.8783 34.3535 86.2377 33.9605 86.4965 33.4525C86.7553 32.9445 86.8847 32.3551 86.8847 31.6841C86.8847 31.0132 86.7553 30.4285 86.4965 29.9301C86.2377 29.4221 85.8783 29.0339 85.4182 28.7655C84.9581 28.4971 84.4262 28.363 83.8223 28.363C83.2185 28.363 82.6817 28.4971 82.212 28.7655C81.752 29.0339 81.3925 29.4221 81.1337 29.9301C80.8749 30.4285 80.7455 31.0132 80.7455 31.6841C80.7455 32.3551 80.8749 32.9445 81.1337 33.4525C81.3925 33.9605 81.752 34.3535 82.212 34.6315C82.6817 34.8999 83.2185 35.0341 83.8223 35.0341ZM92.4654 35.1347H95.7721V36.7306H90.4525V26.6952H92.4654V35.1347ZM99.0356 26.6952V32.9062C99.0356 33.5867 99.2129 34.1091 99.5676 34.4733C99.9222 34.828 100.421 35.0053 101.063 35.0053C101.715 35.0053 102.218 34.828 102.572 34.4733C102.927 34.1091 103.104 33.5867 103.104 32.9062V26.6952H105.132V32.8918C105.132 33.7449 104.945 34.4686 104.571 35.0628C104.207 35.6475 103.713 36.0884 103.09 36.3855C102.477 36.6827 101.791 36.8312 101.034 36.8312C100.286 36.8312 99.6059 36.6827 98.9925 36.3855C98.3886 36.0884 97.9094 35.6475 97.5547 35.0628C97.2001 34.4686 97.0228 33.7449 97.0228 32.8918V26.6952H99.0356ZM113.906 26.6952V28.3198H111.231V36.7306H109.219V28.3198H106.544V26.6952H113.906ZM117.387 26.6952V36.7306H115.374V26.6952H117.387ZM124.034 36.8312C123.095 36.8312 122.232 36.6108 121.446 36.1699C120.66 35.729 120.037 35.1203 119.577 34.3439C119.117 33.558 118.887 32.6714 118.887 31.6841C118.887 30.7065 119.117 29.8294 119.577 29.0531C120.037 28.2671 120.66 27.6537 121.446 27.2128C122.232 26.7719 123.095 26.5514 124.034 26.5514C124.983 26.5514 125.846 26.7719 126.622 27.2128C127.408 27.6537 128.026 28.2671 128.477 29.0531C128.937 29.8294 129.167 30.7065 129.167 31.6841C129.167 32.6714 128.937 33.558 128.477 34.3439C128.026 35.1203 127.408 35.729 126.622 36.1699C125.836 36.6108 124.973 36.8312 124.034 36.8312ZM124.034 35.0341C124.638 35.0341 125.17 34.8999 125.63 34.6315C126.09 34.3535 126.449 33.9605 126.708 33.4525C126.967 32.9445 127.096 32.3551 127.096 31.6841C127.096 31.0132 126.967 30.4285 126.708 29.9301C126.449 29.4221 126.09 29.0339 125.63 28.7655C125.17 28.4971 124.638 28.363 124.034 28.363C123.43 28.363 122.893 28.4971 122.424 28.7655C121.964 29.0339 121.604 29.4221 121.345 29.9301C121.087 30.4285 120.957 31.0132 120.957 31.6841C120.957 32.3551 121.087 32.9445 121.345 33.4525C121.604 33.9605 121.964 34.3535 122.424 34.6315C122.893 34.8999 123.43 35.0341 124.034 35.0341ZM139.248 36.7306H137.235L132.677 29.8438V36.7306H130.664V26.6808H132.677L137.235 33.5819V26.6808H139.248V36.7306ZM147.39 34.8184H143.393L142.732 36.7306H140.618L144.227 26.6808H146.571L150.179 36.7306H148.052L147.39 34.8184ZM146.844 33.2081L145.392 29.0099L143.94 33.2081H146.844ZM156.704 36.7306L154.49 32.8199H153.541V36.7306H151.528V26.6952H155.295C156.072 26.6952 156.733 26.8342 157.279 27.1121C157.826 27.3805 158.233 27.7495 158.501 28.2192C158.779 28.6793 158.918 29.1968 158.918 29.7719C158.918 30.4333 158.727 31.0324 158.343 31.5691C157.96 32.0963 157.389 32.4605 156.632 32.6618L159.033 36.7306H156.704ZM153.541 31.3103H155.223C155.77 31.3103 156.177 31.1809 156.445 30.9221C156.714 30.6538 156.848 30.2847 156.848 29.8151C156.848 29.355 156.714 29.0004 156.445 28.7511C156.177 28.4924 155.77 28.363 155.223 28.363H153.541V31.3103ZM168.718 26.6952L165.325 33.2369V36.7306H163.312V33.2369L159.905 26.6952H162.177L164.333 31.2816L166.475 26.6952H168.718ZM171.302 26.7096V36.7306H169.994V26.7096H171.302ZM183.697 26.7814V36.7306H182.389V29.3119L179.082 36.7306H178.162L174.841 29.2975V36.7306H173.532V26.7814H174.941L178.622 35.0053L182.303 26.7814H183.697ZM192.616 29.6425C192.616 30.4764 192.328 31.1713 191.753 31.7273C191.188 32.2736 190.32 32.5468 189.151 32.5468H187.224V36.7306H185.916V26.7096H189.151C190.282 26.7096 191.14 26.9827 191.724 27.5291C192.319 28.0754 192.616 28.7799 192.616 29.6425ZM189.151 31.4685C189.879 31.4685 190.416 31.3103 190.761 30.994C191.106 30.6777 191.279 30.2272 191.279 29.6425C191.279 28.4061 190.569 27.7879 189.151 27.7879H187.224V31.4685H189.151ZM200.165 34.5021H195.795L194.99 36.7306H193.609L197.232 26.7671H198.742L202.351 36.7306H200.971L200.165 34.5021ZM199.792 33.4382L197.98 28.3773L196.168 33.4382H199.792ZM203.441 31.7129C203.441 30.7352 203.661 29.8582 204.102 29.0818C204.543 28.2959 205.142 27.6824 205.899 27.2415C206.666 26.8006 207.515 26.5802 208.444 26.5802C209.537 26.5802 210.491 26.8437 211.305 27.3709C212.12 27.8981 212.714 28.6457 213.088 29.6138H211.521C211.243 29.0099 210.841 28.5451 210.313 28.2192C209.796 27.8933 209.173 27.7304 208.444 27.7304C207.745 27.7304 207.117 27.8933 206.561 28.2192C206.005 28.5451 205.569 29.0099 205.253 29.6138C204.936 30.2081 204.778 30.9078 204.778 31.7129C204.778 32.5084 204.936 33.2081 205.253 33.812C205.569 34.4062 206.005 34.8663 206.561 35.1922C207.117 35.5181 207.745 35.681 208.444 35.681C209.173 35.681 209.796 35.5229 210.313 35.2066C210.841 34.8807 211.243 34.4158 211.521 33.812H213.088C212.714 34.7705 212.12 35.5133 211.305 36.0405C210.491 36.5581 209.537 36.8169 208.444 36.8169C207.515 36.8169 206.666 36.6012 205.899 36.1699C205.142 35.729 204.543 35.1203 204.102 34.3439C203.661 33.5676 203.441 32.6905 203.441 31.7129ZM221.204 26.7096V27.7735H218.472V36.7306H217.164V27.7735H214.418V26.7096H221.204Z" fill="#5038BC"/>
<defs>
<radialGradient id="paint0_radial_775_5695" cx="0" cy="0" r="1" gradientUnits="userSpaceOnUse" gradientTransform="translate(6.01143 6.91323) rotate(90) scale(4.38931 7.66561)">
<stop/>
<stop offset="0.917127" stop-opacity="0"/>
</radialGradient>
<radialGradient id="paint1_radial_775_5695" cx="0" cy="0" r="1" gradientUnits="userSpaceOnUse" gradientTransform="translate(10.0753 23.9276) rotate(90) scale(4.74246 7.15024)">
<stop/>
<stop offset="0.917127" stop-opacity="0"/>
</radialGradient>
<radialGradient id="paint2_radial_775_5695" cx="0" cy="0" r="1" gradientUnits="userSpaceOnUse" gradientTransform="translate(23.2923 17.6766) rotate(90) scale(4.41911 6.82523)">
<stop/>
<stop offset="0.917127" stop-opacity="0"/>
</radialGradient>
<radialGradient id="paint3_radial_775_5695" cx="0" cy="0" r="1" gradientUnits="userSpaceOnUse" gradientTransform="translate(12.4375 4.43254) rotate(90) scale(4.43254 12.4375)">
<stop/>
<stop offset="0.917127" stop-opacity="0"/>
</radialGradient>
</defs>
</svg>
