<svg width="257" height="45" viewBox="0 0 257 45" fill="none" xmlns="http://www.w3.org/2000/svg">
<rect y="6.97339" width="7.00919" height="38.0266" fill="#5038BC"/>
<path d="M22.3416 -1.56622e-09L29.3508 6.97336L-0.000157691 6.97336L7.00903 -1.28141e-06L22.3416 -1.56622e-09Z" fill="#5038BC"/>
<path d="M6.02344 24.1887L9.52803 17.2154L29.3509 17.2154L22.3417 24.1887L6.02344 24.1887Z" fill="#5038BC"/>
<mask id="mask0_110_1397" style="mask-type:alpha" maskUnits="userSpaceOnUse" x="0" y="6" width="8" height="29">
<rect opacity="0.45" y="6.97339" width="7.00919" height="27.8934" fill="#B9B9B9"/>
</mask>
<g mask="url(#mask0_110_1397)">
<ellipse opacity="0.5" cx="6.07709" cy="6.98893" rx="7.74921" ry="4.43718" fill="url(#paint0_radial_110_1397)"/>
<ellipse opacity="0.5" cx="10.185" cy="24.1887" rx="7.22823" ry="4.79418" fill="url(#paint1_radial_110_1397)"/>
</g>
<mask id="mask1_110_1397" style="mask-type:alpha" maskUnits="userSpaceOnUse" x="7" y="0" width="16" height="7">
<rect opacity="0.45" x="22.3423" width="6.97336" height="15.3326" transform="rotate(90 22.3423 0)" fill="#5038BC"/>
</mask>
<g mask="url(#mask1_110_1397)">
<ellipse opacity="0.5" cx="22.6709" cy="5.7748" rx="6.8644" ry="4.49026" transform="rotate(90 22.6709 5.7748)" fill="#5038BC"/>
</g>
<path d="M22.3423 0L29.3515 6.97336V17.2155H22.3423V0Z" fill="#5038BC"/>
<mask id="mask2_110_1397" style="mask-type:alpha" maskUnits="userSpaceOnUse" x="22" y="7" width="8" height="11">
<rect opacity="0.45" x="29.3508" y="17.2156" width="7.00919" height="9.58837" transform="rotate(-180 29.3508 17.2156)" fill="#B9B9B9"/>
</mask>
<g mask="url(#mask2_110_1397)">
<ellipse opacity="0.5" cx="23.5464" cy="17.8694" rx="6.89967" ry="4.46731" transform="rotate(-180 23.5464 17.8694)" fill="url(#paint2_radial_110_1397)"/>
</g>
<mask id="mask3_110_1397" style="mask-type:alpha" maskUnits="userSpaceOnUse" x="9" y="17" width="11" height="8">
<rect opacity="0.45" width="6.97336" height="9.63764" transform="matrix(-4.3936e-08 1 1 4.34879e-08 9.63818 17.2156)" fill="#B9B9B9"/>
</mask>
<g mask="url(#mask3_110_1397)">
<ellipse opacity="0.7" cx="12.5732" cy="4.48088" rx="12.5732" ry="4.48088" transform="matrix(0.641681 0.766972 0.770196 -0.637807 -0.566162 15.9937)" fill="url(#paint3_radial_110_1397)"/>
</g>
<path d="M6.02378 24.1887L9.52837 17.2154L29.2965 40.3691L23.9848 44.9454L6.02378 24.1887Z" fill="#5038BC"/>
<path d="M46.254 20L43.5288 15.0537H42.7636V20H39.5718V6.89696H44.9287C45.9616 6.89696 46.8388 7.07739 47.5605 7.43825C48.2947 7.79912 48.8422 8.29686 49.2031 8.93148C49.564 9.55365 49.7444 10.2505 49.7444 11.022C49.7444 11.893 49.4955 12.6708 48.9978 13.3552C48.5125 14.0395 47.7908 14.5248 46.8326 14.811L49.8564 20H46.254ZM42.7636 12.7952H44.7421C45.3269 12.7952 45.7625 12.6521 46.0487 12.3659C46.3473 12.0797 46.4966 11.6753 46.4966 11.1526C46.4966 10.6549 46.3473 10.2629 46.0487 9.97674C45.7625 9.69053 45.3269 9.54743 44.7421 9.54743H42.7636V12.7952ZM54.9398 6.89696V20H51.748V6.89696H54.9398ZM61.9938 20.1307C61.0356 20.1307 60.177 19.9751 59.418 19.664C58.6589 19.3529 58.0492 18.8925 57.5888 18.2828C57.1408 17.6731 56.9044 16.9389 56.8795 16.0803H60.2766C60.3263 16.5656 60.4943 16.9389 60.7805 17.2002C61.0667 17.4491 61.44 17.5735 61.9005 17.5735C62.3733 17.5735 62.7466 17.4677 63.0204 17.2562C63.2941 17.0322 63.431 16.7274 63.431 16.3416C63.431 16.0181 63.319 15.7505 63.095 15.539C62.8835 15.3275 62.616 15.1532 62.2924 15.0164C61.9813 14.8795 61.5334 14.7239 60.9485 14.5497C60.1024 14.2884 59.4117 14.0271 58.8767 13.7658C58.3416 13.5045 57.8812 13.1187 57.4954 12.6085C57.1097 12.0984 56.9168 11.4326 56.9168 10.6114C56.9168 9.39189 57.3586 8.43996 58.2421 7.75557C59.1255 7.05873 60.2766 6.71031 61.6951 6.71031C63.1386 6.71031 64.3021 7.05873 65.1855 7.75557C66.069 8.43996 66.5419 9.39811 66.6041 10.63H63.151C63.1261 10.2069 62.9706 9.87719 62.6844 9.64076C62.3982 9.39189 62.0311 9.26745 61.5831 9.26745C61.1974 9.26745 60.8863 9.37322 60.6499 9.58476C60.4135 9.78386 60.2952 10.0763 60.2952 10.462C60.2952 10.8851 60.4943 11.2149 60.8925 11.4513C61.2907 11.6877 61.9129 11.9428 62.7591 12.2166C63.6052 12.5028 64.2896 12.7765 64.8122 13.0378C65.3473 13.2992 65.8077 13.6787 66.1935 14.1764C66.5792 14.6742 66.7721 15.315 66.7721 16.099C66.7721 16.8456 66.5792 17.5237 66.1935 18.1335C65.8202 18.7432 65.2726 19.2285 64.5509 19.5894C63.8292 19.9502 62.9768 20.1307 61.9938 20.1307ZM78.1623 6.89696V9.45411H74.6906V20H71.4988V9.45411H68.027V6.89696H78.1623ZM82.9559 9.45411V12.1046H87.2303V14.5684H82.9559V17.4429H87.7902V20H79.7642V6.89696H87.7902V9.45411H82.9559ZM97.4592 20L93.0541 14.2138V20H89.8624V6.89696H93.0541V12.6459L97.4218 6.89696H101.174L96.0966 13.3178L101.36 20H97.4592ZM115.363 6.89696V9.45411H110.024V12.2166H114.019V14.6991H110.024V20H106.832V6.89696H115.363ZM125.197 17.6855H120.306L119.523 20H116.181L120.922 6.89696H124.618L129.359 20H125.981L125.197 17.6855ZM124.376 15.2217L122.752 10.4247L121.146 15.2217H124.376ZM135.543 20.1307C134.585 20.1307 133.726 19.9751 132.967 19.664C132.208 19.3529 131.598 18.8925 131.138 18.2828C130.69 17.6731 130.454 16.9389 130.429 16.0803H133.826C133.876 16.5656 134.044 16.9389 134.33 17.2002C134.616 17.4491 134.989 17.5735 135.45 17.5735C135.923 17.5735 136.296 17.4677 136.57 17.2562C136.843 17.0322 136.98 16.7274 136.98 16.3416C136.98 16.0181 136.868 15.7505 136.644 15.539C136.433 15.3275 136.165 15.1532 135.842 15.0164C135.531 14.8795 135.083 14.7239 134.498 14.5497C133.652 14.2884 132.961 14.0271 132.426 13.7658C131.891 13.5045 131.43 13.1187 131.045 12.6085C130.659 12.0984 130.466 11.4326 130.466 10.6114C130.466 9.39189 130.908 8.43996 131.791 7.75557C132.675 7.05873 133.826 6.71031 135.244 6.71031C136.688 6.71031 137.851 7.05873 138.735 7.75557C139.618 8.43996 140.091 9.39811 140.153 10.63H136.7C136.675 10.2069 136.52 9.87719 136.234 9.64076C135.947 9.39189 135.58 9.26745 135.132 9.26745C134.747 9.26745 134.436 9.37322 134.199 9.58476C133.963 9.78386 133.845 10.0763 133.845 10.462C133.845 10.8851 134.044 11.2149 134.442 11.4513C134.84 11.6877 135.462 11.9428 136.308 12.2166C137.155 12.5028 137.839 12.7765 138.362 13.0378C138.897 13.2992 139.357 13.6787 139.743 14.1764C140.129 14.6742 140.321 15.315 140.321 16.099C140.321 16.8456 140.129 17.5237 139.743 18.1335C139.369 18.7432 138.822 19.2285 138.1 19.5894C137.378 19.9502 136.526 20.1307 135.543 20.1307ZM145.477 6.89696V20H142.286V6.89696H145.477ZM150.982 17.5362H155.163V20H147.79V6.89696H150.982V17.5362ZM164.282 20L159.877 14.2138V20H156.686V6.89696H159.877V12.6459L164.245 6.89696H167.997L162.92 13.3178L168.183 20H164.282ZM175.897 20.1307C174.665 20.1307 173.533 19.8445 172.5 19.2721C171.48 18.6997 170.665 17.9033 170.055 16.8829C169.458 15.8501 169.159 14.6928 169.159 13.4112C169.159 12.1295 169.458 10.9784 170.055 9.95807C170.665 8.9377 171.48 8.14131 172.5 7.56891C173.533 6.99651 174.665 6.71031 175.897 6.71031C177.129 6.71031 178.255 6.99651 179.276 7.56891C180.308 8.14131 181.117 8.9377 181.702 9.95807C182.299 10.9784 182.598 12.1295 182.598 13.4112C182.598 14.6928 182.299 15.8501 181.702 16.8829C181.105 17.9033 180.296 18.6997 179.276 19.2721C178.255 19.8445 177.129 20.1307 175.897 20.1307ZM175.897 17.2189C176.942 17.2189 177.776 16.8705 178.398 16.1736C179.033 15.4768 179.35 14.556 179.35 13.4112C179.35 12.2539 179.033 11.3331 178.398 10.6487C177.776 9.95185 176.942 9.60343 175.897 9.60343C174.839 9.60343 173.993 9.94563 173.359 10.63C172.736 11.3144 172.425 12.2415 172.425 13.4112C172.425 14.5684 172.736 15.4954 173.359 16.1923C173.993 16.8767 174.839 17.2189 175.897 17.2189ZM199.213 6.89696V20H196.021V12.1419L193.09 20H190.515L187.565 12.1232V20H184.374V6.89696H188.144L191.821 15.9683L195.461 6.89696H199.213ZM208.599 6.89696V14.7364C208.599 15.5203 208.792 16.1238 209.178 16.5469C209.563 16.97 210.13 17.1815 210.876 17.1815C211.623 17.1815 212.195 16.97 212.593 16.5469C212.992 16.1238 213.191 15.5203 213.191 14.7364V6.89696H216.382V14.7177C216.382 15.8874 216.134 16.8767 215.636 17.6855C215.138 18.4943 214.466 19.1041 213.62 19.5147C212.786 19.9253 211.853 20.1307 210.82 20.1307C209.787 20.1307 208.86 19.9316 208.039 19.5334C207.23 19.1227 206.589 18.513 206.117 17.7042C205.644 16.8829 205.407 15.8874 205.407 14.7177V6.89696H208.599ZM221.816 6.89696V20H218.624V6.89696H221.816Z" fill="#5038BC"/>
<path d="M47.8998 30.2818L47.3475 32.898H49.3532V34.0607H47.1004L46.4755 36.9675H45.211L45.836 34.0607H42.7838L42.1588 36.9675H40.8943L41.5193 34.0607H39.2374V32.898H41.7664L42.3187 30.2818H40.0659V29.1191H42.5658L43.1907 26.2122H44.4552L43.8302 29.1191H46.8824L47.5074 26.2122H48.7719L48.1469 29.1191H50.1671V30.2818H47.8998ZM46.6353 30.2818H43.5832L43.0309 32.898H46.083L46.6353 30.2818ZM59.7574 29.7731C59.4764 29.1821 59.0695 28.7266 58.5366 28.4069C58.0036 28.0775 57.3835 27.9127 56.6762 27.9127C55.9689 27.9127 55.3294 28.0775 54.7577 28.4069C54.1957 28.7266 53.75 29.1917 53.4205 29.8022C53.1008 30.4029 52.9409 31.1006 52.9409 31.8951C52.9409 32.6896 53.1008 33.3873 53.4205 33.988C53.75 34.5888 54.1957 35.0539 54.7577 35.3833C55.3294 35.7031 55.9689 35.8629 56.6762 35.8629C57.6645 35.8629 58.4784 35.5674 59.1179 34.9763C59.7574 34.3853 60.1305 33.5859 60.2371 32.5782H56.1966V31.5027H61.6469V32.5201C61.5694 33.3534 61.3078 34.1188 60.862 34.8165C60.4163 35.5044 59.8301 36.0519 59.1034 36.4588C58.3767 36.8561 57.5676 37.0547 56.6762 37.0547C55.7363 37.0547 54.8788 36.8367 54.1036 36.4007C53.3285 35.955 52.7132 35.3397 52.2578 34.5549C51.8121 33.77 51.5892 32.8834 51.5892 31.8951C51.5892 30.9068 51.8121 30.0202 52.2578 29.2353C52.7132 28.4408 53.3285 27.8255 54.1036 27.3895C54.8788 26.9438 55.7363 26.7209 56.6762 26.7209C57.7517 26.7209 58.7013 26.9874 59.5249 27.5203C60.3582 28.0532 60.9638 28.8042 61.3417 29.7731H59.7574ZM64.7182 30.2963C64.9508 29.8409 65.2802 29.4873 65.7066 29.2353C66.1426 28.9834 66.6707 28.8575 67.2908 28.8575V30.2237H66.942C65.4595 30.2237 64.7182 31.0279 64.7182 32.6363V36.9675H63.3956V29.0028H64.7182V30.2963ZM72.2912 37.0983C71.5452 37.0983 70.8669 36.9288 70.2565 36.5896C69.6557 36.2505 69.1809 35.7709 68.8321 35.1508C68.493 34.5209 68.3234 33.7942 68.3234 32.9706C68.3234 32.1567 68.4978 31.4397 68.8466 30.8196C69.2051 30.1898 69.6896 29.7101 70.3001 29.3807C70.9105 29.0416 71.5936 28.872 72.3494 28.872C73.1052 28.872 73.7883 29.0416 74.3987 29.3807C75.0091 29.7101 75.4888 30.1849 75.8376 30.805C76.1961 31.4252 76.3753 32.147 76.3753 32.9706C76.3753 33.7942 76.1912 34.5209 75.823 35.1508C75.4645 35.7709 74.9752 36.2505 74.3551 36.5896C73.735 36.9288 73.047 37.0983 72.2912 37.0983ZM72.2912 35.9356C72.766 35.9356 73.2117 35.8242 73.6284 35.6013C74.045 35.3785 74.3793 35.0442 74.6312 34.5985C74.8929 34.1527 75.0237 33.6101 75.0237 32.9706C75.0237 32.3311 74.8977 31.7885 74.6458 31.3428C74.3939 30.8971 74.0644 30.5676 73.6575 30.3545C73.2505 30.1316 72.8096 30.0202 72.3348 30.0202C71.8504 30.0202 71.4047 30.1316 70.9977 30.3545C70.6004 30.5676 70.2807 30.8971 70.0384 31.3428C69.7962 31.7885 69.6751 32.3311 69.6751 32.9706C69.6751 33.6198 69.7914 34.1673 70.0239 34.613C70.2661 35.0587 70.5859 35.393 70.9832 35.6159C71.3804 35.829 71.8165 35.9356 72.2912 35.9356ZM85.178 29.0028V36.9675H83.8553V35.7903C83.6034 36.1972 83.2497 36.517 82.7943 36.7495C82.3486 36.9724 81.8545 37.0838 81.3119 37.0838C80.6917 37.0838 80.1346 36.9578 79.6404 36.7059C79.1463 36.4443 78.7538 36.0567 78.4632 35.5432C78.1822 35.0296 78.0417 34.4047 78.0417 33.6683V29.0028H79.3497V33.4939C79.3497 34.2787 79.5484 34.8843 79.9456 35.3106C80.3429 35.7273 80.8855 35.9356 81.5735 35.9356C82.2808 35.9356 82.8379 35.7176 83.2449 35.2816C83.6519 34.8455 83.8553 34.2109 83.8553 33.3776V29.0028H85.178ZM91.2917 28.8575C92.2607 28.8575 93.0455 29.153 93.6463 29.744C94.247 30.3254 94.5474 31.1684 94.5474 32.273V36.9675H93.2393V32.4619C93.2393 31.6674 93.0407 31.0618 92.6434 30.6452C92.2461 30.2188 91.7035 30.0057 91.0156 30.0057C90.3179 30.0057 89.7608 30.2237 89.3442 30.6597C88.9372 31.0957 88.7337 31.7304 88.7337 32.5637V36.9675H87.4111V29.0028H88.7337V30.1365C88.9953 29.7295 89.349 29.4146 89.7947 29.1917C90.2501 28.9689 90.7491 28.8575 91.2917 28.8575ZM96.2137 32.9561C96.2137 32.1422 96.3784 31.43 96.7079 30.8196C97.0373 30.1994 97.4879 29.7198 98.0596 29.3807C98.6409 29.0416 99.2901 28.872 100.007 28.872C100.627 28.872 101.204 29.0173 101.737 29.308C102.27 29.589 102.677 29.9621 102.958 30.4271V26.2122H104.295V36.9675H102.958V35.4705C102.696 35.9453 102.308 36.3377 101.795 36.6478C101.281 36.9482 100.681 37.0983 99.9926 37.0983C99.2853 37.0983 98.6409 36.9239 98.0596 36.5751C97.4879 36.2263 97.0373 35.737 96.7079 35.1072C96.3784 34.4773 96.2137 33.7603 96.2137 32.9561ZM102.958 32.9706C102.958 32.3699 102.836 31.8467 102.594 31.4009C102.352 30.9552 102.023 30.6161 101.606 30.3835C101.199 30.1413 100.748 30.0202 100.254 30.0202C99.7601 30.0202 99.3095 30.1365 98.9025 30.369C98.4956 30.6016 98.171 30.9407 97.9287 31.3864C97.6865 31.8321 97.5654 32.3553 97.5654 32.9561C97.5654 33.5665 97.6865 34.0995 97.9287 34.5549C98.171 35.0006 98.4956 35.3445 98.9025 35.5868C99.3095 35.8193 99.7601 35.9356 100.254 35.9356C100.748 35.9356 101.199 35.8193 101.606 35.5868C102.023 35.3445 102.352 35.0006 102.594 34.5549C102.836 34.0995 102.958 33.5714 102.958 32.9706ZM107.852 30.4853C108.124 30.0105 108.521 29.6229 109.044 29.3225C109.567 29.0222 110.163 28.872 110.832 28.872C111.549 28.872 112.193 29.0416 112.765 29.3807C113.337 29.7198 113.787 30.1994 114.117 30.8196C114.446 31.43 114.611 32.1422 114.611 32.9561C114.611 33.7603 114.446 34.4773 114.117 35.1072C113.787 35.737 113.332 36.2263 112.75 36.5751C112.179 36.9239 111.539 37.0983 110.832 37.0983C110.144 37.0983 109.538 36.9482 109.015 36.6478C108.502 36.3474 108.114 35.9647 107.852 35.4996V36.9675H106.53V26.2122H107.852V30.4853ZM113.259 32.9561C113.259 32.3553 113.138 31.8321 112.896 31.3864C112.654 30.9407 112.324 30.6016 111.907 30.369C111.5 30.1365 111.05 30.0202 110.556 30.0202C110.071 30.0202 109.621 30.1413 109.204 30.3835C108.797 30.6161 108.468 30.9601 108.216 31.4155C107.974 31.8612 107.852 32.3796 107.852 32.9706C107.852 33.5714 107.974 34.0995 108.216 34.5549C108.468 35.0006 108.797 35.3445 109.204 35.5868C109.621 35.8193 110.071 35.9356 110.556 35.9356C111.05 35.9356 111.5 35.8193 111.907 35.5868C112.324 35.3445 112.654 35.0006 112.896 34.5549C113.138 34.0995 113.259 33.5665 113.259 32.9561ZM117.674 30.2963C117.907 29.8409 118.236 29.4873 118.663 29.2353C119.099 28.9834 119.627 28.8575 120.247 28.8575V30.2237H119.898C118.416 30.2237 117.674 31.0279 117.674 32.6363V36.9675H116.352V29.0028H117.674V30.2963ZM129.041 32.6799C129.041 32.9319 129.026 33.1983 128.997 33.4793H122.631C122.68 34.2642 122.946 34.8795 123.431 35.3252C123.925 35.7612 124.521 35.9792 125.218 35.9792C125.79 35.9792 126.265 35.8484 126.643 35.5868C127.03 35.3155 127.302 34.957 127.457 34.5113H128.881C128.668 35.2767 128.241 35.9017 127.602 36.3862C126.962 36.8609 126.168 37.0983 125.218 37.0983C124.462 37.0983 123.784 36.9288 123.183 36.5896C122.592 36.2505 122.127 35.7709 121.788 35.1508C121.449 34.5209 121.28 33.7942 121.28 32.9706C121.28 32.147 121.444 31.4252 121.774 30.805C122.103 30.1849 122.563 29.7101 123.154 29.3807C123.755 29.0416 124.443 28.872 125.218 28.872C125.974 28.872 126.643 29.0367 127.224 29.3662C127.805 29.6956 128.251 30.151 128.561 30.7324C128.881 31.304 129.041 31.9532 129.041 32.6799ZM127.675 32.4038C127.675 31.8999 127.563 31.4688 127.34 31.1103C127.117 30.7421 126.812 30.4659 126.425 30.2818C126.047 30.088 125.625 29.9911 125.16 29.9911C124.492 29.9911 123.92 30.2043 123.445 30.6306C122.98 31.057 122.714 31.648 122.646 32.4038H127.675ZM130.292 32.9561C130.292 32.1422 130.457 31.43 130.787 30.8196C131.116 30.1994 131.567 29.7198 132.138 29.3807C132.72 29.0416 133.364 28.872 134.071 28.872C134.769 28.872 135.375 29.0222 135.888 29.3225C136.402 29.6229 136.784 30.0008 137.036 30.4562V29.0028H138.373V36.9675H137.036V35.485C136.775 35.9501 136.382 36.3377 135.859 36.6478C135.345 36.9482 134.745 37.0983 134.057 37.0983C133.349 37.0983 132.71 36.9239 132.138 36.5751C131.567 36.2263 131.116 35.737 130.787 35.1072C130.457 34.4773 130.292 33.7603 130.292 32.9561ZM137.036 32.9706C137.036 32.3699 136.915 31.8467 136.673 31.4009C136.431 30.9552 136.101 30.6161 135.685 30.3835C135.278 30.1413 134.827 30.0202 134.333 30.0202C133.839 30.0202 133.388 30.1365 132.981 30.369C132.574 30.6016 132.25 30.9407 132.007 31.3864C131.765 31.8321 131.644 32.3553 131.644 32.9561C131.644 33.5665 131.765 34.0995 132.007 34.5549C132.25 35.0006 132.574 35.3445 132.981 35.5868C133.388 35.8193 133.839 35.9356 134.333 35.9356C134.827 35.9356 135.278 35.8193 135.685 35.5868C136.101 35.3445 136.431 35.0006 136.673 34.5549C136.915 34.0995 137.036 33.5714 137.036 32.9706ZM145.056 36.9675L141.931 33.4503V36.9675H140.608V26.2122H141.931V32.5346L144.998 29.0028H146.844L143.094 32.9706L146.858 36.9675H145.056ZM148.772 27.7093C148.52 27.7093 148.306 27.622 148.132 27.4476C147.958 27.2732 147.87 27.0601 147.87 26.8081C147.87 26.5562 147.958 26.343 148.132 26.1686C148.306 25.9942 148.52 25.907 148.772 25.907C149.014 25.907 149.217 25.9942 149.382 26.1686C149.556 26.343 149.644 26.5562 149.644 26.8081C149.644 27.0601 149.556 27.2732 149.382 27.4476C149.217 27.622 149.014 27.7093 148.772 27.7093ZM149.411 29.0028V36.9675H148.088V29.0028H149.411ZM155.546 28.8575C156.515 28.8575 157.3 29.153 157.9 29.744C158.501 30.3254 158.802 31.1684 158.802 32.273V36.9675H157.493V32.4619C157.493 31.6674 157.295 31.0618 156.898 30.6452C156.5 30.2188 155.958 30.0057 155.27 30.0057C154.572 30.0057 154.015 30.2237 153.598 30.6597C153.191 31.0957 152.988 31.7304 152.988 32.5637V36.9675H151.665V29.0028H152.988V30.1365C153.249 29.7295 153.603 29.4146 154.049 29.1917C154.504 28.9689 155.003 28.8575 155.546 28.8575ZM164.247 28.872C164.935 28.872 165.535 29.0222 166.049 29.3225C166.572 29.6229 166.96 30.0008 167.212 30.4562V29.0028H168.549V37.1419C168.549 37.8686 168.394 38.513 168.084 39.075C167.774 39.6467 167.328 40.0924 166.747 40.4121C166.175 40.7319 165.506 40.8918 164.741 40.8918C163.694 40.8918 162.822 40.6447 162.125 40.1505C161.427 39.6564 161.015 38.9829 160.889 38.1303H162.197C162.343 38.6147 162.643 39.0023 163.099 39.293C163.554 39.5934 164.101 39.7436 164.741 39.7436C165.468 39.7436 166.059 39.5159 166.514 39.0605C166.979 38.605 167.212 37.9655 167.212 37.1419V35.4705C166.95 35.9356 166.563 36.3232 166.049 36.6332C165.535 36.9433 164.935 37.0983 164.247 37.0983C163.539 37.0983 162.895 36.9239 162.314 36.5751C161.742 36.2263 161.291 35.737 160.962 35.1072C160.633 34.4773 160.468 33.7603 160.468 32.9561C160.468 32.1422 160.633 31.43 160.962 30.8196C161.291 30.1994 161.742 29.7198 162.314 29.3807C162.895 29.0416 163.539 28.872 164.247 28.872ZM167.212 32.9706C167.212 32.3699 167.091 31.8467 166.848 31.4009C166.606 30.9552 166.277 30.6161 165.86 30.3835C165.453 30.1413 165.003 30.0202 164.508 30.0202C164.014 30.0202 163.564 30.1365 163.157 30.369C162.75 30.6016 162.425 30.9407 162.183 31.3864C161.941 31.8321 161.82 32.3553 161.82 32.9561C161.82 33.5665 161.941 34.0995 162.183 34.5549C162.425 35.0006 162.75 35.3445 163.157 35.5868C163.564 35.8193 164.014 35.9356 164.508 35.9356C165.003 35.9356 165.453 35.8193 165.86 35.5868C166.277 35.3445 166.606 35.0006 166.848 34.5549C167.091 34.0995 167.212 33.5714 167.212 32.9706ZM177.731 29.8748C177.499 29.4485 177.179 29.1239 176.772 28.9011C176.365 28.6782 175.89 28.5668 175.348 28.5668C174.747 28.5668 174.214 28.7024 173.749 28.9737C173.284 29.245 172.92 29.6326 172.659 30.1365C172.397 30.6403 172.266 31.2217 172.266 31.8806C172.266 32.5588 172.397 33.1499 172.659 33.6537C172.93 34.1576 173.303 34.5452 173.778 34.8165C174.253 35.0878 174.805 35.2234 175.435 35.2234C176.21 35.2234 176.845 35.0199 177.339 34.613C177.833 34.1963 178.158 33.6198 178.313 32.8834H174.824V31.3283H180.318V33.1014C180.183 33.8088 179.892 34.4628 179.446 35.0636C179.001 35.6643 178.424 36.1488 177.717 36.517C177.019 36.8755 176.234 37.0547 175.362 37.0547C174.384 37.0547 173.497 36.8367 172.702 36.4007C171.918 35.955 171.297 35.3397 170.842 34.5549C170.396 33.77 170.174 32.8786 170.174 31.8806C170.174 30.8826 170.396 29.9911 170.842 29.2063C171.297 28.4117 171.918 27.7965 172.702 27.3604C173.497 26.9147 174.379 26.6919 175.348 26.6919C176.491 26.6919 177.484 26.9729 178.327 27.5348C179.17 28.0871 179.752 28.8671 180.071 29.8748H177.731ZM183.859 30.1655C184.12 29.7392 184.459 29.4049 184.876 29.1627C185.302 28.9204 185.787 28.7993 186.329 28.7993V30.9358H185.792C185.152 30.9358 184.668 31.086 184.338 31.3864C184.018 31.6868 183.859 32.21 183.859 32.9561V36.9675H181.824V28.9156H183.859V30.1655ZM191.275 37.0983C190.5 37.0983 189.803 36.9288 189.182 36.5896C188.562 36.2408 188.073 35.7515 187.714 35.1217C187.366 34.4919 187.191 33.7652 187.191 32.9416C187.191 32.118 187.37 31.3912 187.729 30.7614C188.097 30.1316 188.596 29.6471 189.226 29.308C189.856 28.9592 190.558 28.7848 191.333 28.7848C192.109 28.7848 192.811 28.9592 193.441 29.308C194.071 29.6471 194.565 30.1316 194.923 30.7614C195.292 31.3912 195.476 32.118 195.476 32.9416C195.476 33.7652 195.287 34.4919 194.909 35.1217C194.541 35.7515 194.037 36.2408 193.397 36.5896C192.768 36.9288 192.06 37.0983 191.275 37.0983ZM191.275 35.3252C191.644 35.3252 191.988 35.238 192.307 35.0636C192.637 34.8795 192.898 34.6081 193.092 34.2496C193.286 33.8911 193.383 33.4551 193.383 32.9416C193.383 32.1761 193.179 31.5899 192.772 31.1829C192.375 30.7663 191.886 30.558 191.304 30.558C190.723 30.558 190.234 30.7663 189.836 31.1829C189.449 31.5899 189.255 32.1761 189.255 32.9416C189.255 33.707 189.444 34.2981 189.822 34.7147C190.209 35.1217 190.694 35.3252 191.275 35.3252ZM208.131 28.9156L205.776 36.9675H203.581L202.113 31.3428L200.645 36.9675H198.436L196.067 28.9156H198.131L199.555 35.049L201.096 28.9156H203.247L204.759 35.0345L206.183 28.9156H208.131ZM211.601 30.587V34.4822C211.601 34.7535 211.664 34.9521 211.79 35.0781C211.925 35.1944 212.148 35.2525 212.458 35.2525H213.403V36.9675H212.124C210.409 36.9675 209.551 36.1342 209.551 34.4676V30.587H208.592V28.9156H209.551V26.9244H211.601V28.9156H213.403V30.587H211.601ZM219.401 28.7993C220.011 28.7993 220.554 28.935 221.029 29.2063C221.504 29.4679 221.872 29.8603 222.133 30.3835C222.405 30.8971 222.54 31.5172 222.54 32.2439V36.9675H220.506V32.5201C220.506 31.8806 220.346 31.3912 220.026 31.0521C219.706 30.7033 219.27 30.5289 218.718 30.5289C218.156 30.5289 217.71 30.7033 217.381 31.0521C217.061 31.3912 216.901 31.8806 216.901 32.5201V36.9675H214.866V26.2122H216.901V29.9185C217.163 29.5696 217.512 29.2983 217.948 29.1045C218.384 28.9011 218.868 28.7993 219.401 28.7993Z" fill="#5038BC"/>
<defs>
<radialGradient id="paint0_radial_110_1397" cx="0" cy="0" r="1" gradientUnits="userSpaceOnUse" gradientTransform="translate(6.07709 6.98893) rotate(90) scale(4.43718 7.74921)">
<stop/>
<stop offset="0.917127" stop-opacity="0"/>
</radialGradient>
<radialGradient id="paint1_radial_110_1397" cx="0" cy="0" r="1" gradientUnits="userSpaceOnUse" gradientTransform="translate(10.185 24.1887) rotate(90) scale(4.79418 7.22823)">
<stop/>
<stop offset="0.917127" stop-opacity="0"/>
</radialGradient>
<radialGradient id="paint2_radial_110_1397" cx="0" cy="0" r="1" gradientUnits="userSpaceOnUse" gradientTransform="translate(23.5464 17.8694) rotate(90) scale(4.46731 6.89967)">
<stop/>
<stop offset="0.917127" stop-opacity="0"/>
</radialGradient>
<radialGradient id="paint3_radial_110_1397" cx="0" cy="0" r="1" gradientUnits="userSpaceOnUse" gradientTransform="translate(12.5732 4.48088) rotate(90) scale(4.48088 12.5732)">
<stop/>
<stop offset="0.917127" stop-opacity="0"/>
</radialGradient>
</defs>
</svg>
