<svg width="98" height="29" viewBox="0 0 98 29" fill="none" xmlns="http://www.w3.org/2000/svg">
<path d="M91.3045 6.75317V13.4298H86.8662V6.75317" fill="#66D9FB"/>
<path d="M91.3045 17.8235V24.5193H86.8662V17.8235" fill="#C28AEB"/>
<path d="M91.2339 13.3787H98V17.8553H91.2339" fill="#7DFA8C"/>
<g style="mix-blend-mode:multiply">
<path d="M80.1001 13.3787H86.8662V17.8553H80.1001" fill="#FF9F1A"/>
</g>
<path d="M91.3045 13.3787H86.8662V17.8233H91.3045V13.3787Z" fill="#FF3838"/>
<path d="M5.16733 28.1389H0V0H5.16733V10.6096C6.41439 9.13235 8.51202 8.51202 10.3347 8.51202C15.195 8.51202 17.4461 11.8887 17.4461 16.0903V28.1389H12.2788V16.9793C12.2788 14.8433 11.23 13.1741 8.74225 13.1741C6.56788 13.1741 5.28244 14.8049 5.16733 16.9025V28.1389Z" fill="white" fill-opacity="0.8"/>
<path d="M25.2929 17.1393L29.9934 16.4358C31.0806 16.2824 31.4323 15.7388 31.4323 15.0801C31.4323 13.7179 30.3835 12.5923 28.2347 12.5923C26.086 12.5923 24.7366 14.0249 24.5831 15.7004L19.9721 14.7091C20.2791 11.7162 23.0418 8.41626 28.1708 8.41626C34.227 8.41626 36.4846 11.8313 36.4846 15.6812V25.0822C36.489 26.1053 36.5659 27.1268 36.7148 28.1391H31.9759C31.845 27.383 31.7808 26.6169 31.7841 25.8496C31.1698 26.7684 30.3279 27.5124 29.3405 28.0089C28.3531 28.5054 27.2538 28.7376 26.1499 28.6827C22.0698 28.6827 19.582 25.9263 19.582 22.927C19.582 19.5055 22.1081 17.5998 25.2929 17.1393ZM31.4323 20.4009V19.5439L27.122 20.1834C25.7982 20.3817 24.7494 21.1171 24.7494 22.5944C24.7494 23.7264 25.5615 24.8136 27.2371 24.8136C29.4179 24.8328 31.4323 23.7839 31.4323 20.4009Z" fill="white" fill-opacity="0.8"/>
<path d="M43.3978 18.5463C43.3978 22.0061 45.6489 23.9503 48.2901 23.9503C49.2757 23.9907 50.2461 23.6969 51.0436 23.1164C51.8412 22.5359 52.4191 21.703 52.6836 20.7527L57.2306 22.2683C56.3737 25.4659 53.3935 28.7147 48.2773 28.7147C46.9413 28.7368 45.6145 28.488 44.3772 27.9834C43.1399 27.4787 42.0177 26.7286 41.0782 25.7784C40.1387 24.8282 39.4015 23.6974 38.9109 22.4545C38.4204 21.2115 38.1868 19.8821 38.2241 18.5463C38.2241 12.6435 42.5792 8.40991 48.1366 8.40991C53.3423 8.40991 56.2969 11.6075 57.0899 14.8563L52.4918 16.4359C52.2657 15.4938 51.719 14.6597 50.9455 14.0763C50.172 13.493 49.2197 13.1967 48.2518 13.2383C45.6105 13.2127 43.3978 15.1185 43.3978 18.5463Z" fill="white" fill-opacity="0.8"/>
<path d="M69.97 17.056L77.785 28.1389H71.4473L66.3951 20.8356L64.2591 23.0867V28.1389H59.0918V0H64.2591V16.1287L70.8654 9.01724H77.6251L69.97 17.056Z" fill="white" fill-opacity="0.8"/>
</svg>
