<svg width="130" height="38" viewBox="0 0 130 38" fill="none" xmlns="http://www.w3.org/2000/svg">
<path d="M120.824 8.93652V17.7717H114.951V8.93652" fill="#66D9FB"/>
<path d="M120.824 23.5859V32.4465H114.951V23.5859" fill="#C28AEB"/>
<path d="M120.731 17.7041H129.684V23.6281H120.731" fill="#7DFA8C"/>
<g style="mix-blend-mode:multiply">
<path d="M105.997 17.7041H114.951V23.6281H105.997" fill="#FF9F1A"/>
</g>
<path d="M120.824 17.7041H114.951V23.5858H120.824V17.7041Z" fill="#FF3838"/>
<path d="M6.83797 37.2365H0V0H6.83797V14.0399C8.48823 12.0849 11.264 11.264 13.6759 11.264C20.1077 11.264 23.0866 15.7324 23.0866 21.2925V37.2365H16.2487V22.4688C16.2487 19.6423 14.8607 17.4335 11.5687 17.4335C8.69134 17.4335 6.99031 19.5915 6.83797 22.3673V37.2365Z" fill="#333333"/>
<path d="M33.4706 22.6805L39.6908 21.7496C41.1295 21.5465 41.595 20.8272 41.595 19.9555C41.595 18.1529 40.2071 16.6634 37.3636 16.6634C34.52 16.6634 32.7344 18.5591 32.5313 20.7764L26.4296 19.4646C26.8358 15.504 30.4917 11.1372 37.2789 11.1372C45.2932 11.1372 48.2806 15.6564 48.2806 20.751V33.1914C48.2865 34.5453 48.3883 35.8971 48.5853 37.2366H42.3143C42.1411 36.2361 42.0561 35.2223 42.0604 34.2069C41.2476 35.4228 40.1335 36.4073 38.8268 37.0643C37.5201 37.7214 36.0654 38.0286 34.6047 37.9559C29.2054 37.9559 25.9133 34.3085 25.9133 30.3394C25.9133 25.8118 29.2562 23.2898 33.4706 22.6805ZM41.595 26.9966V25.8625L35.891 26.7088C34.1392 26.9712 32.7513 27.9444 32.7513 29.8993C32.7513 31.3972 33.8261 32.8359 36.0433 32.8359C38.9292 32.8613 41.595 31.4734 41.595 26.9966Z" fill="#333333"/>
<path d="M57.4288 24.5425C57.4288 29.1209 60.4077 31.6936 63.9029 31.6936C65.2071 31.7471 66.4912 31.3583 67.5466 30.5902C68.602 29.822 69.3668 28.7197 69.7169 27.4622L75.7339 29.4679C74.5999 33.6993 70.6562 37.9984 63.886 37.9984C62.1179 38.0277 60.3623 37.6985 58.7249 37.0307C57.0876 36.3629 55.6025 35.3703 54.3593 34.1128C53.1161 32.8553 52.1404 31.3591 51.4913 29.7142C50.8422 28.0694 50.533 26.3101 50.5824 24.5425C50.5824 16.7313 56.3456 11.1289 63.6998 11.1289C70.5885 11.1289 74.4984 15.3603 75.5478 19.6594L69.463 21.7498C69.1638 20.5031 68.4404 19.3993 67.4168 18.6273C66.3932 17.8553 65.133 17.4633 63.8521 17.5184C60.357 17.4845 57.4288 20.0064 57.4288 24.5425Z" fill="#333333"/>
<path d="M92.5919 22.5704L102.934 37.2365H94.5469L87.8612 27.5719L85.0346 30.5508V37.2365H78.1967V0H85.0346V21.3433L93.7767 11.9326H102.722L92.5919 22.5704Z" fill="#333333"/>
</svg>
