<svg width="24" height="25" viewBox="0 0 24 25" fill="none" xmlns="http://www.w3.org/2000/svg">
<path opacity="0.4" d="M16.4154 2.50137C15.1238 2.5345 13.8774 3.13192 12.7853 4.22637L11.252 5.76261C10.8609 6.1542 10.8609 6.78175 11.252 7.17335C11.6431 7.56494 12.301 7.56494 12.6921 7.17335L14.1932 5.6371C15.6463 4.18118 17.2578 4.03559 18.8552 5.6371C20.4537 7.23761 20.3083 8.85218 18.8552 10.3081L15.8208 13.3495C14.3677 14.8054 12.7562 14.95 11.1588 13.3495L10.7206 12.9107C9.77693 11.9648 8.36801 13.3756 9.31264 14.3214L9.75086 14.7602C12.1937 17.2081 15.0446 16.9481 17.2287 14.7602L20.2632 11.7188C22.4473 9.53094 22.707 6.67432 20.2632 4.22637C19.0418 3.00239 17.706 2.46924 16.4154 2.50137Z" fill="#5038BC"/>
<path d="M10.2251 8.50947C9.01897 8.58775 7.84495 9.16582 6.77839 10.2326L3.73941 13.2724C1.29196 15.7191 1.55207 18.5743 3.73941 20.7611C5.92575 22.9479 8.78195 23.2078 11.2284 20.7611L12.764 19.2256C13.1556 18.8342 13.1556 18.207 12.764 17.8156C12.3723 17.4242 11.7135 17.4242 11.3218 17.8156L9.81838 19.3511C8.21755 20.9518 6.60466 20.8062 5.14944 19.3511C3.69423 17.8959 3.54861 16.2831 5.14944 14.6824L8.18842 11.6426C8.92657 10.905 9.65569 10.5598 10.3507 10.5146C11.1912 10.4594 12.073 10.8578 12.8574 11.6426L13.2962 12.0812C13.6879 12.4726 14.3146 12.4726 14.7062 12.0812C15.0979 11.6898 15.0979 11.0626 14.7062 10.6712L14.2674 10.2326C13.1054 9.07048 11.7054 8.41213 10.2251 8.50947Z" fill="#5038BC"/>
</svg>
