<svg width="209" height="44" viewBox="0 0 209 44" fill="none" xmlns="http://www.w3.org/2000/svg">
<rect y="6.81848" width="6.85343" height="37.1816" fill="#5038BC"/>
<path d="M21.8453 -1.53141e-09L28.6987 6.8184L-2.98042e-07 6.8184L6.85343 -1.25293e-06L21.8453 -1.53141e-09Z" fill="#5038BC"/>
<path d="M5.88965 23.6512L9.31636 16.8328L28.6987 16.8328L21.8453 23.6512L5.88965 23.6512Z" fill="#5038BC"/>
<mask id="mask0" mask-type="alpha" maskUnits="userSpaceOnUse" x="0" y="6" width="7" height="29">
<rect opacity="0.45" y="6.81848" width="6.85343" height="27.2736" fill="#B9B9B9"/>
</mask>
<g mask="url(#mask0)">
<ellipse opacity="0.5" cx="5.94175" cy="6.83332" rx="7.57701" ry="4.33857" fill="url(#paint0_radial)"/>
<ellipse opacity="0.5" cx="9.95872" cy="23.6514" rx="7.0676" ry="4.68765" fill="url(#paint1_radial)"/>
</g>
<mask id="mask1" mask-type="alpha" maskUnits="userSpaceOnUse" x="6" y="0" width="16" height="7">
<rect opacity="0.45" x="21.8457" width="6.8184" height="14.9919" transform="rotate(90 21.8457 0)" fill="#5038BC"/>
</mask>
<g mask="url(#mask1)">
<ellipse opacity="0.5" cx="22.1671" cy="5.64643" rx="6.71186" ry="4.39048" transform="rotate(90 22.1671 5.64643)" fill="#5038BC"/>
</g>
<path d="M21.8457 0L28.6991 6.81839V16.8329H21.8457V0Z" fill="#5038BC"/>
<mask id="mask2" mask-type="alpha" maskUnits="userSpaceOnUse" x="21" y="7" width="8" height="10">
<rect opacity="0.45" x="28.6987" y="16.8329" width="6.85343" height="9.37529" transform="rotate(-180 28.6987 16.8329)" fill="#B9B9B9"/>
</mask>
<g mask="url(#mask2)">
<ellipse opacity="0.5" cx="23.0232" cy="17.4722" rx="6.74635" ry="4.36803" transform="rotate(-180 23.0232 17.4722)" fill="url(#paint2_radial)"/>
</g>
<mask id="mask3" mask-type="alpha" maskUnits="userSpaceOnUse" x="9" y="16" width="10" height="8">
<rect opacity="0.45" width="6.8184" height="9.42347" transform="matrix(-4.3936e-08 1 1 4.34879e-08 9.42383 16.8329)" fill="#B9B9B9"/>
</mask>
<g mask="url(#mask3)">
<ellipse opacity="0.7" rx="12.2938" ry="4.38131" transform="matrix(0.641681 0.766972 0.770196 -0.637807 10.7094 22.2727)" fill="url(#paint3_radial)"/>
</g>
<path d="M5.89002 23.6514L9.31674 16.833L28.6456 39.4722L23.4519 43.9468L5.89002 23.6514Z" fill="#5038BC"/>
<path d="M48.584 42.168C47.352 42.168 46.248 41.968 45.272 41.568C44.296 41.168 43.512 40.576 42.92 39.792C42.344 39.008 42.04 38.064 42.008 36.96H46.376C46.44 37.584 46.656 38.064 47.024 38.4C47.392 38.72 47.872 38.88 48.464 38.88C49.072 38.88 49.552 38.744 49.904 38.472C50.256 38.184 50.432 37.792 50.432 37.296C50.432 36.88 50.288 36.536 50 36.264C49.728 35.992 49.384 35.768 48.968 35.592C48.568 35.416 47.992 35.216 47.24 34.992C46.152 34.656 45.264 34.32 44.576 33.984C43.888 33.648 43.296 33.152 42.8 32.496C42.304 31.84 42.056 30.984 42.056 29.928C42.056 28.36 42.624 27.136 43.76 26.256C44.896 25.36 46.376 24.912 48.2 24.912C50.056 24.912 51.552 25.36 52.688 26.256C53.824 27.136 54.432 28.368 54.512 29.952H50.072C50.04 29.408 49.84 28.984 49.472 28.68C49.104 28.36 48.632 28.2 48.056 28.2C47.56 28.2 47.16 28.336 46.856 28.608C46.552 28.864 46.4 29.24 46.4 29.736C46.4 30.28 46.656 30.704 47.168 31.008C47.68 31.312 48.48 31.64 49.568 31.992C50.656 32.36 51.536 32.712 52.208 33.048C52.896 33.384 53.488 33.872 53.984 34.512C54.48 35.152 54.728 35.976 54.728 36.984C54.728 37.944 54.48 38.816 53.984 39.6C53.504 40.384 52.8 41.008 51.872 41.472C50.944 41.936 49.848 42.168 48.584 42.168ZM70.4776 28.608V42H66.3736V40.176C65.9576 40.768 65.3896 41.248 64.6696 41.616C63.9656 41.968 63.1816 42.144 62.3176 42.144C61.2936 42.144 60.3896 41.92 59.6056 41.472C58.8216 41.008 58.2136 40.344 57.7816 39.48C57.3496 38.616 57.1336 37.6 57.1336 36.432V28.608H61.2136V35.88C61.2136 36.776 61.4456 37.472 61.9096 37.968C62.3736 38.464 62.9976 38.712 63.7816 38.712C64.5816 38.712 65.2136 38.464 65.6776 37.968C66.1416 37.472 66.3736 36.776 66.3736 35.88V28.608H70.4776ZM78.8735 42.192C77.7055 42.192 76.6655 41.992 75.7535 41.592C74.8415 41.192 74.1215 40.648 73.5935 39.96C73.0655 39.256 72.7695 38.472 72.7055 37.608H76.7615C76.8095 38.072 77.0255 38.448 77.4095 38.736C77.7935 39.024 78.2655 39.168 78.8255 39.168C79.3375 39.168 79.7295 39.072 80.0015 38.88C80.2895 38.672 80.4335 38.408 80.4335 38.088C80.4335 37.704 80.2335 37.424 79.8335 37.248C79.4335 37.056 78.7855 36.848 77.8895 36.624C76.9295 36.4 76.1295 36.168 75.4895 35.928C74.8495 35.672 74.2975 35.28 73.8335 34.752C73.3695 34.208 73.1375 33.48 73.1375 32.568C73.1375 31.8 73.3455 31.104 73.7615 30.48C74.1935 29.84 74.8175 29.336 75.6335 28.968C76.4655 28.6 77.4495 28.416 78.5855 28.416C80.2655 28.416 81.5855 28.832 82.5455 29.664C83.5215 30.496 84.0815 31.6 84.2255 32.976H80.4335C80.3695 32.512 80.1615 32.144 79.8095 31.872C79.4735 31.6 79.0255 31.464 78.4655 31.464C77.9855 31.464 77.6175 31.56 77.3615 31.752C77.1055 31.928 76.9775 32.176 76.9775 32.496C76.9775 32.88 77.1775 33.168 77.5775 33.36C77.9935 33.552 78.6335 33.744 79.4975 33.936C80.4895 34.192 81.2975 34.448 81.9215 34.704C82.5455 34.944 83.0895 35.344 83.5535 35.904C84.0335 36.448 84.2815 37.184 84.2975 38.112C84.2975 38.896 84.0735 39.6 83.6255 40.224C83.1935 40.832 82.5615 41.312 81.7295 41.664C80.9135 42.016 79.9615 42.192 78.8735 42.192ZM100.032 28.608V42H95.9283V40.176C95.5123 40.768 94.9443 41.248 94.2243 41.616C93.5203 41.968 92.7363 42.144 91.8723 42.144C90.8483 42.144 89.9443 41.92 89.1603 41.472C88.3763 41.008 87.7683 40.344 87.3363 39.48C86.9043 38.616 86.6883 37.6 86.6883 36.432V28.608H90.7683V35.88C90.7683 36.776 91.0003 37.472 91.4643 37.968C91.9283 38.464 92.5523 38.712 93.3363 38.712C94.1363 38.712 94.7683 38.464 95.2323 37.968C95.6963 37.472 95.9283 36.776 95.9283 35.88V28.608H100.032ZM111.14 28.464C112.708 28.464 113.956 28.976 114.884 30C115.828 31.008 116.3 32.4 116.3 34.176V42H112.22V34.728C112.22 33.832 111.988 33.136 111.524 32.64C111.06 32.144 110.436 31.896 109.652 31.896C108.868 31.896 108.244 32.144 107.78 32.64C107.316 33.136 107.084 33.832 107.084 34.728V42H102.98V28.608H107.084V30.384C107.5 29.792 108.06 29.328 108.764 28.992C109.468 28.64 110.26 28.464 111.14 28.464Z" fill="#333333"/>
<path d="M129.712 25.152V36.624C129.712 38.4 129.208 39.768 128.2 40.728C127.208 41.688 125.864 42.168 124.168 42.168C122.392 42.168 120.968 41.664 119.896 40.656C118.824 39.648 118.288 38.216 118.288 36.36H122.368C122.368 37.064 122.512 37.6 122.8 37.968C123.088 38.32 123.504 38.496 124.048 38.496C124.544 38.496 124.928 38.336 125.2 38.016C125.472 37.696 125.608 37.232 125.608 36.624V25.152H129.712ZM132.211 35.28C132.211 33.904 132.467 32.696 132.979 31.656C133.507 30.616 134.219 29.816 135.115 29.256C136.011 28.696 137.011 28.416 138.115 28.416C139.059 28.416 139.883 28.608 140.587 28.992C141.307 29.376 141.859 29.88 142.243 30.504V28.608H146.347V42H142.243V40.104C141.843 40.728 141.283 41.232 140.563 41.616C139.859 42 139.035 42.192 138.091 42.192C137.003 42.192 136.011 41.912 135.115 41.352C134.219 40.776 133.507 39.968 132.979 38.928C132.467 37.872 132.211 36.656 132.211 35.28ZM142.243 35.304C142.243 34.28 141.955 33.472 141.379 32.88C140.819 32.288 140.131 31.992 139.315 31.992C138.499 31.992 137.803 32.288 137.227 32.88C136.667 33.456 136.387 34.256 136.387 35.28C136.387 36.304 136.667 37.12 137.227 37.728C137.803 38.32 138.499 38.616 139.315 38.616C140.131 38.616 140.819 38.32 141.379 37.728C141.955 37.136 142.243 36.328 142.243 35.304ZM148.5 35.28C148.5 33.904 148.756 32.696 149.268 31.656C149.796 30.616 150.508 29.816 151.404 29.256C152.3 28.696 153.3 28.416 154.404 28.416C155.284 28.416 156.084 28.6 156.804 28.968C157.54 29.336 158.116 29.832 158.532 30.456V24.24H162.636V42H158.532V40.08C158.148 40.72 157.596 41.232 156.876 41.616C156.172 42 155.348 42.192 154.404 42.192C153.3 42.192 152.3 41.912 151.404 41.352C150.508 40.776 149.796 39.968 149.268 38.928C148.756 37.872 148.5 36.656 148.5 35.28ZM158.532 35.304C158.532 34.28 158.244 33.472 157.668 32.88C157.108 32.288 156.42 31.992 155.604 31.992C154.788 31.992 154.092 32.288 153.516 32.88C152.956 33.456 152.676 34.256 152.676 35.28C152.676 36.304 152.956 37.12 153.516 37.728C154.092 38.32 154.788 38.616 155.604 38.616C156.42 38.616 157.108 38.32 157.668 37.728C158.244 37.136 158.532 36.328 158.532 35.304ZM184.829 28.608L181.205 42H176.669L174.557 33.312L172.373 42H167.861L164.213 28.608H168.317L170.213 38.184L172.469 28.608H176.813L179.093 38.136L180.965 28.608H184.829ZM185.578 35.28C185.578 33.904 185.834 32.696 186.346 31.656C186.874 30.616 187.586 29.816 188.482 29.256C189.378 28.696 190.378 28.416 191.482 28.416C192.426 28.416 193.25 28.608 193.954 28.992C194.674 29.376 195.226 29.88 195.61 30.504V28.608H199.714V42H195.61V40.104C195.21 40.728 194.65 41.232 193.93 41.616C193.226 42 192.402 42.192 191.458 42.192C190.37 42.192 189.378 41.912 188.482 41.352C187.586 40.776 186.874 39.968 186.346 38.928C185.834 37.872 185.578 36.656 185.578 35.28ZM195.61 35.304C195.61 34.28 195.322 33.472 194.746 32.88C194.186 32.288 193.498 31.992 192.682 31.992C191.866 31.992 191.17 32.288 190.594 32.88C190.034 33.456 189.754 34.256 189.754 35.28C189.754 36.304 190.034 37.12 190.594 37.728C191.17 38.32 191.866 38.616 192.682 38.616C193.498 38.616 194.186 38.32 194.746 37.728C195.322 37.136 195.61 36.328 195.61 35.304ZM206.787 24.24V42H202.683V24.24H206.787Z" fill="#5038BC"/>
<path d="M45.5977 6.97914C45.5977 7.66759 45.2259 8.08067 44.4328 8.08067H43.1192V5.90264H44.4328C45.2259 5.90264 45.5977 6.32823 45.5977 6.97914ZM41 4.12517V12.9124H43.1192V9.59527H43.6273L45.4366 12.9124H47.8284L45.8208 9.43254C47.1592 9.03199 47.754 7.99305 47.754 6.89152C47.754 5.36439 46.6883 4.12517 44.5567 4.12517H41ZM49.0843 12.9124H51.2035V4.12517H49.0843V12.9124ZM59.0595 10.2962C59.0595 7.35466 54.7593 8.04312 54.7593 6.51599C54.7593 5.96523 55.1434 5.70236 55.6515 5.71488C56.2216 5.7274 56.6182 6.06537 56.6553 6.62865H58.948C58.8612 4.95132 57.5848 4 55.6887 4C53.867 4 52.5162 4.92629 52.5162 6.5911C52.4914 9.70793 56.8412 8.83171 56.8412 10.459C56.8412 10.9722 56.4447 11.2851 55.825 11.2851C55.2302 11.2851 54.8088 10.9597 54.7469 10.2837H52.4914C52.5533 12.0612 54.0157 13 55.887 13C57.9194 13 59.0595 11.7733 59.0595 10.2962ZM59.8927 5.84006H62.1978V12.9124H64.3169V5.84006H66.622V4.12517H59.8927V5.84006ZM73.0145 4.12517H67.6856V12.9124H73.0145V11.1975H69.8047V9.26982H72.6427V7.61752H69.8047V5.84006H73.0145V4.12517ZM79.434 12.9124H82.0241L78.5294 8.43115L81.9002 4.12517H79.4092L76.5093 7.98053V4.12517H74.3902V12.9124H76.5093V9.03199L79.434 12.9124ZM85.6575 12.9124H87.7766V9.35744H90.4287V7.69263H87.7766V5.84006H91.3209V4.12517H85.6575V12.9124ZM98.3708 12.9124H100.614L97.4662 4.12517H95.0124L91.8646 12.9124H94.0829L94.6034 11.3602H97.8503L98.3708 12.9124ZM97.3051 9.70793H95.1611L96.2269 6.49096L97.3051 9.70793ZM107.892 10.2962C107.892 7.35466 103.592 8.04312 103.592 6.51599C103.592 5.96523 103.976 5.70236 104.484 5.71488C105.054 5.7274 105.451 6.06537 105.488 6.62865H107.781C107.694 4.95132 106.418 4 104.521 4C102.7 4 101.349 4.92629 101.349 6.5911C101.324 9.70793 105.674 8.83171 105.674 10.459C105.674 10.9722 105.277 11.2851 104.658 11.2851C104.063 11.2851 103.642 10.9597 103.58 10.2837H101.324C101.386 12.0612 102.848 13 104.72 13C106.752 13 107.892 11.7733 107.892 10.2962ZM109.196 12.9124H111.316V4.12517H109.196V12.9124ZM112.851 4.12517V12.9124H117.746V11.2601H114.97V4.12517H112.851ZM123.801 12.9124H126.391L122.896 8.43115L126.267 4.12517H123.776L120.876 7.98053V4.12517H118.757V12.9124H120.876V9.03199L123.801 12.9124ZM135.961 8.49374C135.961 5.85257 133.991 4 131.512 4C129.046 4 127.039 5.85257 127.039 8.49374C127.039 11.1349 129.046 13 131.512 13C133.979 13 135.961 11.1349 135.961 8.49374ZM129.207 8.49374C129.207 6.92907 130.1 5.94019 131.512 5.94019C132.9 5.94019 133.805 6.92907 133.805 8.49374C133.805 10.0334 132.9 11.0473 131.512 11.0473C130.1 11.0473 129.207 10.0334 129.207 8.49374ZM137.141 12.9124H139.26V7.63004L141.218 12.9124H142.928L144.874 7.64256V12.9124H146.993V4.12517H144.502L142.086 10.2086L139.644 4.12517H137.141V12.9124ZM151.106 9.36996C151.106 11.7983 152.68 13 154.7 13C156.708 13 158.393 11.7983 158.393 9.36996V4.12517H156.274V9.38248C156.274 10.4214 155.741 11.0223 154.737 11.0223C153.733 11.0223 153.225 10.4214 153.225 9.38248V4.12517H151.106V9.36996ZM159.881 12.9124H162V4.12517H159.881V12.9124Z" fill="#5038BC"/>
<defs>
<radialGradient id="paint0_radial" cx="0" cy="0" r="1" gradientUnits="userSpaceOnUse" gradientTransform="translate(5.94175 6.83332) rotate(90) scale(4.33857 7.57701)">
<stop/>
<stop offset="0.917127" stop-opacity="0"/>
</radialGradient>
<radialGradient id="paint1_radial" cx="0" cy="0" r="1" gradientUnits="userSpaceOnUse" gradientTransform="translate(9.95872 23.6514) rotate(90) scale(4.68765 7.0676)">
<stop/>
<stop offset="0.917127" stop-opacity="0"/>
</radialGradient>
<radialGradient id="paint2_radial" cx="0" cy="0" r="1" gradientUnits="userSpaceOnUse" gradientTransform="translate(23.0232 17.4722) rotate(90) scale(4.36803 6.74635)">
<stop/>
<stop offset="0.917127" stop-opacity="0"/>
</radialGradient>
<radialGradient id="paint3_radial" cx="0" cy="0" r="1" gradientUnits="userSpaceOnUse" gradientTransform="translate(12.2938 4.38131) rotate(90) scale(4.38131 12.2938)">
<stop/>
<stop offset="0.917127" stop-opacity="0"/>
</radialGradient>
</defs>
</svg>
