<svg width="10" height="13" viewBox="0 0 10 13" fill="none" xmlns="http://www.w3.org/2000/svg">
<path d="M4.71321 12.0015C3.50513 12.0015 2.36243 11.7609 1.49555 11.3241C0.530457 10.8373 0 10.1564 0 9.4044C0 8.40707 0.932852 7.54586 2.49557 7.10108C2.60896 7.07138 2.72949 7.08734 2.83125 7.14553C2.93301 7.20371 3.0079 7.29948 3.03983 7.41227C3.07176 7.52506 3.05819 7.64588 3.00202 7.74877C2.94586 7.85167 2.85159 7.92843 2.73945 7.96258C1.61854 8.28169 0.894344 8.84767 0.894344 9.4044C0.894344 10.2104 2.46213 11.1059 4.71202 11.1059C6.96191 11.1059 8.53059 10.2104 8.53059 9.4044C8.53059 8.84767 7.8064 8.28169 6.68549 7.96258C6.62892 7.94649 6.57608 7.91942 6.52997 7.8829C6.48387 7.84639 6.44541 7.80115 6.41679 7.74977C6.35899 7.64601 6.34477 7.52353 6.37727 7.40929C6.40977 7.29505 6.48632 7.19839 6.59009 7.14059C6.69385 7.08279 6.81632 7.06858 6.93057 7.10108C8.49328 7.54586 9.42613 8.40707 9.42613 9.4044C9.42613 10.1564 8.89508 10.8373 7.93058 11.3241C7.0637 11.7609 5.921 12.0015 4.71321 12.0015Z" fill="#333333"/>
<path d="M4.79977 0C2.81202 0 1.19971 1.59888 1.19971 3.57006C1.19971 6.24761 4.79977 10.2002 4.79977 10.2002C4.79977 10.2002 8.39983 6.24761 8.39983 3.57006C8.39983 1.59888 6.78752 0 4.79977 0ZM4.79977 4.84508C4.09004 4.84508 3.51403 4.27387 3.51403 3.57006C3.51403 2.86625 4.09004 2.29504 4.79977 2.29504C5.5095 2.29504 6.08551 2.86625 6.08551 3.57006C6.08551 4.27387 5.5095 4.84508 4.79977 4.84508Z" fill="#333333"/>
</svg>
