<svg width="504" height="124" viewBox="0 0 504 124" fill="none" xmlns="http://www.w3.org/2000/svg">
<path d="M20.6928 101.448C17.4074 101.448 14.4634 100.915 11.8608 99.848C9.25808 98.7813 7.16742 97.2027 5.58875 95.112C4.05275 93.0213 3.24208 90.504 3.15675 87.56H14.8048C14.9754 89.224 15.5514 90.504 16.5328 91.4C17.5141 92.2533 18.7941 92.68 20.3728 92.68C21.9941 92.68 23.2741 92.3173 24.2128 91.592C25.1514 90.824 25.6208 89.7787 25.6208 88.456C25.6208 87.3467 25.2368 86.4293 24.4688 85.704C23.7434 84.9787 22.8261 84.3813 21.7168 83.912C20.6501 83.4427 19.1141 82.9093 17.1088 82.312C14.2074 81.416 11.8394 80.52 10.0048 79.624C8.17008 78.728 6.59142 77.4053 5.26875 75.656C3.94608 73.9067 3.28475 71.624 3.28475 68.808C3.28475 64.6267 4.79942 61.3627 7.82875 59.016C10.8581 56.6267 14.8048 55.432 19.6688 55.432C24.6181 55.432 28.6074 56.6267 31.6368 59.016C34.6661 61.3627 36.2874 64.648 36.5008 68.872H24.6608C24.5754 67.4213 24.0421 66.2907 23.0608 65.48C22.0794 64.6267 20.8208 64.2 19.2847 64.2C17.9621 64.2 16.8954 64.5627 16.0848 65.288C15.2741 65.9707 14.8688 66.9733 14.8688 68.296C14.8688 69.7467 15.5514 70.8773 16.9167 71.688C18.2821 72.4987 20.4154 73.3733 23.3168 74.312C26.2181 75.2933 28.5648 76.232 30.3568 77.128C32.1914 78.024 33.7701 79.3253 35.0928 81.032C36.4154 82.7387 37.0768 84.936 37.0768 87.624C37.0768 90.184 36.4154 92.5093 35.0928 94.6C33.8128 96.6907 31.9354 98.3547 29.4608 99.592C26.9861 100.829 24.0634 101.448 20.6928 101.448ZM79.0758 65.288V101H68.1318V96.136C67.0224 97.7147 65.5078 98.9947 63.5878 99.976C61.7104 100.915 59.6198 101.384 57.3158 101.384C54.5851 101.384 52.1744 100.787 50.0838 99.592C47.9931 98.3547 46.3718 96.584 45.2198 94.28C44.0678 91.976 43.4918 89.2667 43.4918 86.152V65.288H54.3718V84.68C54.3718 87.0693 54.9904 88.9253 56.2278 90.248C57.4651 91.5707 59.1291 92.232 61.2198 92.232C63.3531 92.232 65.0384 91.5707 66.2758 90.248C67.5131 88.9253 68.1318 87.0693 68.1318 84.68V65.288H79.0758ZM101.465 101.512C98.3501 101.512 95.5768 100.979 93.1448 99.912C90.7128 98.8453 88.7928 97.3947 87.3848 95.56C85.9768 93.6827 85.1874 91.592 85.0168 89.288H95.8328C95.9608 90.5253 96.5368 91.528 97.5608 92.296C98.5848 93.064 99.8434 93.448 101.337 93.448C102.702 93.448 103.747 93.192 104.473 92.68C105.241 92.1253 105.625 91.4213 105.625 90.568C105.625 89.544 105.091 88.7973 104.025 88.328C102.958 87.816 101.23 87.2613 98.8408 86.664C96.2808 86.0667 94.1474 85.448 92.4408 84.808C90.7341 84.1253 89.2621 83.08 88.0248 81.672C86.7874 80.2213 86.1688 78.28 86.1688 75.848C86.1688 73.8 86.7234 71.944 87.8328 70.28C88.9848 68.5733 90.6488 67.2293 92.8248 66.248C95.0434 65.2667 97.6674 64.776 100.697 64.776C105.177 64.776 108.697 65.8853 111.257 68.104C113.859 70.3227 115.353 73.2667 115.737 76.936H105.625C105.454 75.6987 104.899 74.7173 103.961 73.992C103.065 73.2667 101.87 72.904 100.377 72.904C99.0968 72.904 98.1154 73.16 97.4328 73.672C96.7501 74.1413 96.4088 74.8027 96.4088 75.656C96.4088 76.68 96.9421 77.448 98.0088 77.96C99.1181 78.472 100.825 78.984 103.129 79.496C105.774 80.1787 107.929 80.8613 109.593 81.544C111.257 82.184 112.707 83.2507 113.945 84.744C115.225 86.1947 115.886 88.1573 115.929 90.632C115.929 92.7227 115.331 94.6 114.137 96.264C112.985 97.8853 111.299 99.1653 109.081 100.104C106.905 101.043 104.366 101.512 101.465 101.512ZM157.888 65.288V101H146.944V96.136C145.835 97.7147 144.32 98.9947 142.4 99.976C140.523 100.915 138.432 101.384 136.128 101.384C133.398 101.384 130.987 100.787 128.896 99.592C126.806 98.3547 125.184 96.584 124.032 94.28C122.88 91.976 122.304 89.2667 122.304 86.152V65.288H133.184V84.68C133.184 87.0693 133.803 88.9253 135.04 90.248C136.278 91.5707 137.942 92.232 140.032 92.232C142.166 92.232 143.851 91.5707 145.088 90.248C146.326 88.9253 146.944 87.0693 146.944 84.68V65.288H157.888ZM187.509 64.904C191.691 64.904 195.019 66.2693 197.493 69C200.011 71.688 201.269 75.4 201.269 80.136V101H190.389V81.608C190.389 79.2187 189.771 77.3627 188.533 76.04C187.296 74.7173 185.632 74.056 183.541 74.056C181.451 74.056 179.787 74.7173 178.549 76.04C177.312 77.3627 176.693 79.2187 176.693 81.608V101H165.749V65.288H176.693V70.024C177.803 68.4453 179.296 67.208 181.173 66.312C183.051 65.3733 185.163 64.904 187.509 64.904Z" fill="#333333"/>
<path d="M237.034 56.072V86.664C237.034 91.4 235.69 95.048 233.002 97.608C230.357 100.168 226.773 101.448 222.25 101.448C217.514 101.448 213.717 100.104 210.858 97.416C208 94.728 206.57 90.9093 206.57 85.96H217.45C217.45 87.8373 217.834 89.2667 218.602 90.248C219.37 91.1867 220.48 91.656 221.93 91.656C223.253 91.656 224.277 91.2293 225.002 90.376C225.728 89.5227 226.09 88.2853 226.09 86.664V56.072H237.034ZM243.698 83.08C243.698 79.4107 244.381 76.1893 245.746 73.416C247.154 70.6427 249.053 68.5093 251.442 67.016C253.832 65.5227 256.498 64.776 259.442 64.776C261.96 64.776 264.157 65.288 266.034 66.312C267.954 67.336 269.426 68.68 270.45 70.344V65.288H281.394V101H270.45V95.944C269.384 97.608 267.89 98.952 265.97 99.976C264.093 101 261.896 101.512 259.378 101.512C256.477 101.512 253.832 100.765 251.442 99.272C249.053 97.736 247.154 95.5813 245.746 92.808C244.381 89.992 243.698 86.7493 243.698 83.08ZM270.45 83.144C270.45 80.4133 269.682 78.2587 268.146 76.68C266.653 75.1013 264.818 74.312 262.642 74.312C260.466 74.312 258.61 75.1013 257.074 76.68C255.581 78.216 254.834 80.3493 254.834 83.08C254.834 85.8107 255.581 87.9867 257.074 89.608C258.61 91.1867 260.466 91.976 262.642 91.976C264.818 91.976 266.653 91.1867 268.146 89.608C269.682 88.0293 270.45 85.8747 270.45 83.144ZM287.136 83.08C287.136 79.4107 287.818 76.1893 289.184 73.416C290.592 70.6427 292.49 68.5093 294.88 67.016C297.269 65.5227 299.936 64.776 302.88 64.776C305.226 64.776 307.36 65.2667 309.28 66.248C311.242 67.2293 312.778 68.552 313.888 70.216V53.64H324.832V101H313.888V95.88C312.864 97.5867 311.392 98.952 309.472 99.976C307.594 101 305.397 101.512 302.88 101.512C299.936 101.512 297.269 100.765 294.88 99.272C292.49 97.736 290.592 95.5813 289.184 92.808C287.818 89.992 287.136 86.7493 287.136 83.08ZM313.888 83.144C313.888 80.4133 313.12 78.2587 311.584 76.68C310.09 75.1013 308.256 74.312 306.08 74.312C303.904 74.312 302.048 75.1013 300.512 76.68C299.018 78.216 298.272 80.3493 298.272 83.08C298.272 85.8107 299.018 87.9867 300.512 89.608C302.048 91.1867 303.904 91.976 306.08 91.976C308.256 91.976 310.09 91.1867 311.584 89.608C313.12 88.0293 313.888 85.8747 313.888 83.144ZM384.013 65.288L374.349 101H362.253L356.621 77.832L350.797 101H338.765L329.037 65.288H339.981L345.037 90.824L351.053 65.288H362.637L368.717 90.696L373.709 65.288H384.013ZM386.011 83.08C386.011 79.4107 386.693 76.1893 388.059 73.416C389.467 70.6427 391.365 68.5093 393.755 67.016C396.144 65.5227 398.811 64.776 401.755 64.776C404.272 64.776 406.469 65.288 408.347 66.312C410.267 67.336 411.739 68.68 412.763 70.344V65.288H423.707V101H412.763V95.944C411.696 97.608 410.203 98.952 408.283 99.976C406.405 101 404.208 101.512 401.691 101.512C398.789 101.512 396.144 100.765 393.755 99.272C391.365 97.736 389.467 95.5813 388.059 92.808C386.693 89.992 386.011 86.7493 386.011 83.08ZM412.763 83.144C412.763 80.4133 411.995 78.2587 410.459 76.68C408.965 75.1013 407.131 74.312 404.955 74.312C402.779 74.312 400.923 75.1013 399.387 76.68C397.893 78.216 397.147 80.3493 397.147 83.08C397.147 85.8107 397.893 87.9867 399.387 89.608C400.923 91.1867 402.779 91.976 404.955 91.976C407.131 91.976 408.965 91.1867 410.459 89.608C411.995 88.0293 412.763 85.8747 412.763 83.144ZM442.568 53.64V101H431.624V53.64H442.568Z" fill="#5038BC"/>
<rect x="431.317" width="75" height="36" rx="18" transform="rotate(15 431.317 0)" fill="#C424A3"/>
<path d="M452.486 24.2948C452.992 24.5365 453.358 24.9196 453.584 25.4441C453.811 25.9686 453.849 26.5104 453.7 27.0693C453.564 27.5742 453.319 27.9866 452.962 28.3066C452.617 28.6201 452.182 28.8221 451.655 28.9129C451.128 29.0037 450.545 28.9633 449.904 28.7918L445.834 27.7011L448.363 18.2621L452.258 19.3056C452.898 19.4771 453.42 19.7282 453.824 20.0587C454.238 20.3917 454.512 20.7744 454.647 21.2068C454.792 21.6417 454.801 22.0935 454.675 22.5623C454.528 23.1122 454.256 23.5321 453.859 23.8221C453.472 24.1144 453.014 24.272 452.486 24.2948ZM449.213 22.664L450.944 23.1278C451.395 23.2486 451.768 23.2424 452.065 23.1093C452.364 22.9671 452.564 22.7068 452.665 22.3281C452.767 21.9495 452.724 21.6239 452.536 21.3513C452.348 21.0787 452.029 20.882 451.578 20.7613L449.847 20.2975L449.213 22.664ZM450.047 27.1777C450.507 27.3009 450.892 27.2881 451.202 27.1394C451.522 26.9931 451.735 26.7216 451.841 26.3249C451.95 25.9192 451.899 25.5674 451.689 25.2696C451.481 24.9627 451.148 24.7477 450.688 24.6245L448.822 24.1245L448.14 26.6668L450.047 27.1777ZM458.537 22.6258L457.902 24.9923L461.08 25.8438L460.678 27.3449L457.5 26.4934L456.83 28.9951L460.414 29.9553L460 31.497L454.524 30.0295L457.056 20.5769L462.533 22.0444L462.12 23.586L458.537 22.6258ZM470.673 24.2401L470.264 25.7682L467.749 25.0942L465.629 33.0051L463.736 32.4979L465.856 24.5869L463.34 23.913L463.75 22.3849L470.673 24.2401ZM475.795 33.8015L472.036 32.7942L470.932 34.4261L468.944 33.8934L474.871 25.3504L477.075 25.941L477.937 36.303L475.936 35.7668L475.795 33.8015ZM475.687 32.1493L475.38 27.8346L472.956 31.4173L475.687 32.1493Z" fill="#F8F8F8"/>
</svg>
