<svg width="64" height="64" viewBox="0 0 64 64" fill="none" xmlns="http://www.w3.org/2000/svg">
<path opacity="0.4" fill-rule="evenodd" clip-rule="evenodd" d="M18.6667 8C12.7757 8 8 12.776 8 18.6667V45.3333C8 51.224 12.7757 56 18.6667 56H45.3333C51.224 56 56 51.224 56 45.3333V18.6667C56 12.776 51.224 8 45.3333 8H18.6667ZM21.3333 18.6667C19.8606 18.6667 18.6667 19.8606 18.6667 21.3333C18.6667 22.8061 19.8606 24 21.3333 24H42.6667C44.1394 24 45.3333 22.8061 45.3333 21.3333C45.3333 19.8606 44.1394 18.6667 42.6667 18.6667H21.3333Z" fill="#8785F4"/>
<path fill-rule="evenodd" clip-rule="evenodd" d="M21.3337 5.33337C22.8064 5.33337 24.0003 6.52728 24.0003 8.00004V10.6667C24.0003 12.1395 22.8064 13.3334 21.3337 13.3334C19.8609 13.3334 18.667 12.1395 18.667 10.6667V8.00004C18.667 6.52728 19.8609 5.33337 21.3337 5.33337ZM42.667 5.33337C44.1398 5.33337 45.3337 6.52728 45.3337 8.00004V10.6667C45.3337 12.1395 44.1398 13.3334 42.667 13.3334C41.1942 13.3334 40.0003 12.1395 40.0003 10.6667V8.00004C40.0003 6.52728 41.1942 5.33337 42.667 5.33337ZM41.8859 36.5523C42.9273 35.5109 42.9273 33.8225 41.8859 32.7811C40.8445 31.7397 39.1561 31.7397 38.1147 32.7811L32.0003 38.8955L28.5526 35.4478C27.5112 34.4064 25.8228 34.4064 24.7814 35.4478C23.74 36.4892 23.74 38.1776 24.7814 39.219L30.1147 44.5523C31.1561 45.5937 32.8445 45.5937 33.8859 44.5523L41.8859 36.5523Z" fill="#8785F4"/>
</svg>
