<svg width="64" height="64" viewBox="0 0 64 64" fill="none" xmlns="http://www.w3.org/2000/svg">
<path opacity="0.4" fill-rule="evenodd" clip-rule="evenodd" d="M10.667 16C10.667 10.109 15.4426 5.33337 21.3337 5.33337H42.667C48.558 5.33337 53.3337 10.109 53.3337 16V48C53.3337 53.8911 48.558 58.6667 42.667 58.6667H21.3337C15.4426 58.6667 10.667 53.8911 10.667 48V16ZM26.667 16C25.1942 16 24.0003 17.1939 24.0003 18.6667C24.0003 20.1395 25.1942 21.3334 26.667 21.3334H37.3337C38.8064 21.3334 40.0003 20.1395 40.0003 18.6667C40.0003 17.1939 38.8064 16 37.3337 16H26.667Z" fill="#8785F4"/>
<path fill-rule="evenodd" clip-rule="evenodd" d="M32 42.6666C36.4183 42.6666 40 39.0849 40 34.6666C40 30.2483 36.4183 26.6666 32 26.6666C27.5817 26.6666 24 30.2483 24 34.6666C24 39.0849 27.5817 42.6666 32 42.6666ZM42.6667 58.6666H21.3334C19.4199 58.6666 17.624 58.1627 16.0713 57.2804C16.116 56.8471 16.1816 56.42 16.2668 56C17.5022 49.914 22.8829 45.3333 29.3334 45.3333H34.6667C41.1173 45.3333 46.498 49.914 47.7334 56C47.8186 56.42 47.8841 56.8471 47.9289 57.2804C46.3761 58.1627 44.5803 58.6666 42.6667 58.6666Z" fill="#8785F4"/>
</svg>
