<svg width="24" height="24" viewBox="0 0 24 24" fill="none" xmlns="http://www.w3.org/2000/svg">
<path d="M16.2177 1.17496e-05H7.37289C6.40418 -0.00173407 5.44467 0.191089 4.54938 0.567422C3.65409 0.943756 2.84063 1.4962 2.15565 2.19306C1.47067 2.88992 0.927657 3.7175 0.557743 4.62833C0.187829 5.53916 -0.00170449 6.51532 1.15492e-05 7.50084V16.4992C1.15492e-05 18.4885 0.776794 20.3964 2.15948 21.8031C3.54216 23.2097 5.41748 24 7.37289 24H16.2177C18.1721 23.9965 20.0454 23.2051 21.4273 21.7992C22.8093 20.3933 23.5872 18.4874 23.5906 16.4992V7.50084C23.5906 5.51149 22.8138 3.60363 21.4311 2.19695C20.0485 0.790275 18.1731 1.17496e-05 16.2177 1.17496e-05ZM21.4282 16.4992C21.4282 17.9051 20.8793 19.2534 19.9021 20.2475C18.925 21.2416 17.5996 21.8001 16.2177 21.8001H7.37289C5.99097 21.8001 4.66566 21.2416 3.6885 20.2475C2.71134 19.2534 2.16237 17.9051 2.16237 16.4992V7.50084C2.16237 6.09494 2.71134 4.74663 3.6885 3.75251C4.66566 2.75839 5.99097 2.1999 7.37289 2.1999H16.2177C17.5996 2.1999 18.925 2.75839 19.9021 3.75251C20.8793 4.74663 21.4282 6.09494 21.4282 7.50084V16.4992Z" fill="#333333"/>
<path d="M11.7888 6.00343C10.6211 6.00344 9.47973 6.35586 8.50906 7.0161C7.53838 7.67634 6.78205 8.61472 6.33581 9.71245C5.88957 10.8102 5.77348 12.0179 6.00222 13.1828C6.23097 14.3477 6.79427 15.4174 7.62083 16.2564C8.44739 17.0955 9.50005 17.6662 10.6456 17.8963C11.7911 18.1265 12.978 18.0057 14.056 17.5493C15.134 17.0929 16.0547 16.3214 16.7015 15.3324C17.3484 14.3434 17.6923 13.1814 17.6897 11.9935C17.6897 11.2058 17.537 10.4258 17.2402 9.69814C16.9435 8.97052 16.5087 8.30959 15.9606 7.75319C15.4124 7.19679 14.7618 6.75584 14.046 6.45559C13.3301 6.15534 12.5631 6.00169 11.7888 6.00343ZM11.7888 15.7439C11.0597 15.7439 10.3469 15.524 9.7407 15.1119C9.13447 14.6998 8.66197 14.114 8.38295 13.4287C8.10393 12.7434 8.03093 11.9893 8.17317 11.2618C8.31541 10.5343 8.66651 9.86606 9.18207 9.34156C9.69763 8.81705 10.3545 8.45986 11.0696 8.31515C11.7847 8.17044 12.5259 8.24471 13.1995 8.52857C13.8731 8.81243 14.4489 9.29313 14.8539 9.90988C15.259 10.5266 15.4752 11.2517 15.4752 11.9935C15.4752 12.486 15.3799 12.9737 15.1946 13.4287C15.0093 13.8837 14.7378 14.2972 14.3955 14.6455C14.0532 14.9937 13.6468 15.27 13.1995 15.4584C12.7523 15.6469 12.2729 15.7439 11.7888 15.7439Z" fill="#333333"/>
<path d="M18.1328 6.34763C18.5645 6.34763 18.9144 5.99163 18.9144 5.55248C18.9144 5.11333 18.5645 4.75732 18.1328 4.75732C17.7012 4.75732 17.3513 5.11333 17.3513 5.55248C17.3513 5.99163 17.7012 6.34763 18.1328 6.34763Z" fill="#333333"/>
</svg>
