<svg width="24" height="24" viewBox="0 0 24 24" fill="none" xmlns="http://www.w3.org/2000/svg">
<path d="M20.5798 0H2.94397C2.16318 0 1.41437 0.316636 0.86227 0.880252C0.310168 1.44387 0 2.20829 0 3.00537L0 21.0089C0.00370651 21.8035 0.31551 22.5643 0.867211 23.1248C1.41891 23.6853 2.16561 24 2.94397 24H11.7619V15.7424H8.81791V12.0072H11.7619V9.00179C11.76 8.41113 11.8726 7.82593 12.0932 7.27988C12.3138 6.73382 12.6379 6.23768 13.0471 5.82002C13.4562 5.40236 13.9422 5.07143 14.4771 4.84627C15.012 4.6211 15.5852 4.50616 16.1638 4.50805H19.1078V8.2576H17.6358C16.8227 8.2576 16.1638 8.17173 16.1638 9.00179V12.0072H19.8368L18.3648 15.7424H16.1638V23.9857H20.5798C21.3557 23.9819 22.0988 23.6656 22.6475 23.1055C23.1962 22.5454 23.5061 21.7868 23.5097 20.9946V3.00537C23.5098 2.21077 23.2015 1.4485 22.6524 0.885295C22.1034 0.322089 21.3581 0.00378381 20.5798 0V0Z" fill="#333333"/>
</svg>
