<svg width="25" height="24" viewBox="0 0 25 24" fill="none" xmlns="http://www.w3.org/2000/svg">
<path d="M24.7398 9.27532V9.03472V8.8663C24.4086 7.09154 23.57 5.44983 22.3246 4.13853C20.9832 2.72706 19.3291 1.6477 17.4943 0.986685C15.8635 0.359796 14.134 0.0258121 12.3862 0.000229142C10.0823 -0.0128774 7.81022 0.53646 5.76865 1.60021C3.98102 2.43337 2.48047 3.77432 1.4556 5.45455C0.430734 7.13477 -0.0727315 9.07929 0.00848187 11.0437C0.190201 12.9859 0.95146 14.8295 2.19421 16.3369C3.43629 17.8276 5.02934 18.9889 6.83133 19.7173C7.94708 20.1449 9.10457 20.4554 10.285 20.6436H10.4178C10.756 20.6436 10.8405 20.788 10.8647 20.8241C10.8889 20.9106 10.8889 21.0022 10.8647 21.0887C10.8647 21.1609 10.8647 21.2211 10.8647 21.2812C10.6902 21.8122 10.6366 22.3751 10.7077 22.9293C10.7405 23.2249 10.8821 23.4979 11.1051 23.6956C11.3281 23.8934 11.6167 24.0018 11.9152 24C12.615 23.9144 13.2828 23.6582 13.8595 23.2541H13.9198C15.1274 22.5564 16.2625 21.7504 17.1199 21.1368C19.1891 19.7864 21.0693 18.1682 22.711 16.3249C24.2947 14.3338 25.024 11.7998 24.7398 9.27532ZM7.72494 13.0407H5.58751C5.51094 13.0423 5.43483 13.0285 5.36376 13.0001C5.29269 12.9716 5.22814 12.9292 5.17398 12.8752C5.11982 12.8213 5.07719 12.757 5.04864 12.6862C5.02009 12.6154 5.00623 12.5395 5.00787 12.4633V7.98811C5.00623 7.91183 5.02009 7.83601 5.04864 7.76521C5.07719 7.69441 5.11982 7.6301 5.17398 7.57615C5.22814 7.5222 5.29269 7.47973 5.36376 7.45129C5.43483 7.42285 5.51094 7.40904 5.58751 7.41068C5.66464 7.40908 5.74132 7.42283 5.81304 7.45113C5.88477 7.47943 5.9501 7.52171 6.00521 7.57549C6.06032 7.62927 6.1041 7.69347 6.13398 7.76432C6.16386 7.83518 6.17925 7.91126 6.17923 7.98811V11.8738H7.72494C7.88187 11.8738 8.03237 11.9359 8.14334 12.0464C8.25431 12.157 8.31665 12.3069 8.31665 12.4633C8.31667 12.5401 8.30129 12.6162 8.2714 12.687C8.24152 12.7579 8.19774 12.8221 8.14263 12.8759C8.08752 12.9297 8.02219 12.9719 7.95047 13.0002C7.87874 13.0285 7.80207 13.0423 7.72494 13.0407ZM9.95897 12.4512C9.95897 12.6108 9.89535 12.7637 9.78212 12.8765C9.66889 12.9894 9.51531 13.0527 9.35517 13.0527C9.19504 13.0527 9.04146 12.9894 8.92823 12.8765C8.815 12.7637 8.75138 12.6108 8.75138 12.4512V7.97608C8.75138 7.81656 8.815 7.66356 8.92823 7.55076C9.04146 7.43796 9.19504 7.37459 9.35517 7.37459C9.51531 7.37459 9.66889 7.43796 9.78212 7.55076C9.89535 7.66356 9.95897 7.81656 9.95897 7.97608V12.4512ZM15.2482 12.4512C15.2465 12.5747 15.206 12.6945 15.1324 12.7938C15.0587 12.8931 14.9556 12.9668 14.8376 13.0046H14.6565C14.5642 13.0056 14.4732 12.9843 14.3911 12.9423C14.309 12.9004 14.2385 12.8392 14.1855 12.764L12.0843 9.90088V12.4512C12.0812 12.6055 12.0174 12.7523 11.9068 12.8603C11.7962 12.9682 11.6475 13.0287 11.4926 13.0287C11.4135 13.0336 11.3342 13.0223 11.2596 12.9955C11.1851 12.9687 11.1168 12.927 11.0591 12.8728C11.0014 12.8187 10.9554 12.7534 10.924 12.6809C10.8927 12.6083 10.8766 12.5302 10.8767 12.4512V8.10841C10.8768 7.9848 10.9151 7.8642 10.9864 7.76303C11.0577 7.66186 11.1585 7.58504 11.2752 7.54301C11.393 7.50696 11.5192 7.50846 11.6361 7.54728C11.753 7.5861 11.8548 7.6603 11.9273 7.75955L14.0406 10.6467V7.97608C14.0406 7.81656 14.1042 7.66356 14.2174 7.55076C14.3307 7.43796 14.4843 7.37459 14.6444 7.37459C14.8045 7.37459 14.9581 7.43796 15.0713 7.55076C15.1846 7.66356 15.2482 7.81656 15.2482 7.97608V12.4512ZM19.5109 12.9324H16.6127C16.5362 12.9341 16.4601 12.9202 16.389 12.8918C16.3179 12.8634 16.2534 12.8209 16.1992 12.767C16.1451 12.713 16.1024 12.6487 16.0739 12.5779C16.0453 12.5071 16.0315 12.4313 16.0331 12.355V7.87985C16.0331 7.7267 16.0942 7.57983 16.2029 7.47154C16.3116 7.36324 16.459 7.30241 16.6127 7.30241H19.4143C19.5745 7.30241 19.7281 7.36578 19.8413 7.47858C19.9545 7.59138 20.0181 7.74438 20.0181 7.9039C20.0181 8.06343 19.9545 8.21642 19.8413 8.32923C19.7281 8.44203 19.5745 8.5054 19.4143 8.5054H17.1924V9.57607H19.0038C19.1575 9.57607 19.3049 9.63691 19.4136 9.7452C19.5223 9.85349 19.5834 10.0004 19.5834 10.1535C19.5834 10.3078 19.5228 10.4559 19.4144 10.5661C19.306 10.6763 19.1586 10.7398 19.0038 10.743H17.1924V11.8136H19.5109C19.6711 11.8136 19.8247 11.877 19.9379 11.9898C20.0511 12.1026 20.1147 12.2556 20.1147 12.4151C20.1147 12.5747 20.0511 12.7277 19.9379 12.8405C19.8247 12.9533 19.6711 13.0166 19.5109 13.0166V12.9324Z" fill="#333333"/>
</svg>
