<svg width="26" height="24" viewBox="0 0 26 24" fill="none" xmlns="http://www.w3.org/2000/svg">
<path d="M25.1162 14.7144V24H19.733V15.3363C19.733 13.1599 18.9544 11.6746 17.0058 11.6746C15.5184 11.6746 14.6332 12.6756 14.2437 13.6438C14.1017 13.99 14.0652 14.4718 14.0652 14.9564V24H8.68013C8.68013 24 8.75266 9.3265 8.68013 7.80621H14.0646V10.1016C14.0537 10.1188 14.0395 10.1373 14.0292 10.1539H14.0646V10.1016C14.78 8.99978 16.0576 7.42577 18.9173 7.42577C22.4602 7.42572 25.1162 9.74027 25.1162 14.7144ZM3.04717 0C1.20496 0 0 1.20834 0 2.79736C0 4.35175 1.1701 5.59676 2.97569 5.59676H3.01166C4.88955 5.59676 6.05743 4.35198 6.05743 2.79736C6.02204 1.20834 4.88955 0 3.04717 0ZM0.319823 24H5.70281V7.80621H0.319823V24Z" fill="#333333"/>
</svg>
