<svg width="29" height="24" viewBox="0 0 29 24" fill="none" xmlns="http://www.w3.org/2000/svg">
<path d="M28.6154 2.82176C27.5377 3.31126 26.3955 3.63232 25.2263 3.7744C26.4584 3.03057 27.3784 1.83937 27.8071 0.432842C26.6561 1.13134 25.4005 1.62666 24.0919 1.89844C23.2052 0.931365 22.0358 0.291989 20.7633 0.0785549C19.4909 -0.134879 18.1858 0.0894372 17.0487 0.717036C15.9115 1.34464 15.0052 2.34079 14.4691 3.55244C13.9329 4.76408 13.7965 6.12418 14.0808 7.42373C11.7466 7.30275 9.46326 6.67515 7.37928 5.58178C5.29529 4.4884 3.4574 2.95376 1.98521 1.0777C1.46866 2.01057 1.19506 3.06597 1.19113 4.1408C1.19042 5.13829 1.42824 6.12051 1.88344 7.00009C2.33863 7.87967 2.9971 8.62935 3.80026 9.18244C2.87045 9.16175 1.95982 8.90506 1.14859 8.43499V8.50827C1.14726 9.90732 1.61376 11.2639 2.46909 12.3482C3.32443 13.4326 4.51605 14.1781 5.84219 14.4586C5.32284 14.5906 4.78865 14.6498 4.25402 14.6344C3.90028 14.6683 3.54426 14.6683 3.19052 14.6344C3.57111 15.8378 4.30309 16.8898 5.28579 17.6457C6.26849 18.4015 7.45362 18.8241 8.6782 18.8554C6.59437 20.5005 4.04013 21.3822 1.41801 21.3615C0.944328 21.3673 0.470755 21.3429 0 21.2882C2.68465 23.0729 5.81238 24.0147 9.00434 23.9996C11.2003 24.0152 13.3774 23.5796 15.4091 22.7183C17.4408 21.8569 19.2867 20.5868 20.8395 18.9819C22.3924 17.377 23.6212 15.4692 24.4546 13.3693C25.288 11.2693 25.7094 9.01921 25.6943 6.74955C25.6943 6.48575 25.6943 6.22194 25.6943 5.97279C26.843 5.11205 27.8325 4.0447 28.6154 2.82176Z" fill="#333333"/>
</svg>
