<svg width="254" height="48" viewBox="0 0 254 48" fill="none" xmlns="http://www.w3.org/2000/svg">
<g clip-path="url(#clip0_7147_1740)">
<path d="M0 7L7 0V48H0V7Z" fill="url(#paint0_linear_7147_1740)"/>
<path d="M-3.0598e-07 7L7 7.86805e-07L25 0L25 7.00001L-3.0598e-07 7Z" fill="url(#paint1_linear_7147_1740)"/>
<path d="M25 -6.11959e-07L32 7L32 19L25 26L25 -6.11959e-07Z" fill="url(#paint2_linear_7147_1740)"/>
<path d="M10 19L10 26L25 26L32 19L10 19Z" fill="url(#paint3_linear_7147_1740)"/>
<path d="M27 48L32 43L10 19L7 26L27 48Z" fill="#5038BC"/>
</g>
<path d="M60.4 23L57.48 17.7H56.66V23H53.24V8.96H58.98C60.0867 8.96 61.0267 9.15333 61.8 9.54C62.5867 9.92667 63.1733 10.46 63.56 11.14C63.9467 11.8067 64.14 12.5533 64.14 13.38C64.14 14.3133 63.8733 15.1467 63.34 15.88C62.82 16.6133 62.0467 17.1333 61.02 17.44L64.26 23H60.4ZM56.66 15.28H58.78C59.4067 15.28 59.8733 15.1267 60.18 14.82C60.5 14.5133 60.66 14.08 60.66 13.52C60.66 12.9867 60.5 12.5667 60.18 12.26C59.8733 11.9533 59.4067 11.8 58.78 11.8H56.66V15.28ZM69.7069 8.96V23H66.2869V8.96H69.7069ZM77.2653 23.14C76.2386 23.14 75.3186 22.9733 74.5053 22.64C73.692 22.3067 73.0386 21.8133 72.5453 21.16C72.0653 20.5067 71.812 19.72 71.7853 18.8H75.4253C75.4786 19.32 75.6586 19.72 75.9653 20C76.272 20.2667 76.672 20.4 77.1653 20.4C77.672 20.4 78.072 20.2867 78.3653 20.06C78.6586 19.82 78.8053 19.4933 78.8053 19.08C78.8053 18.7333 78.6853 18.4467 78.4453 18.22C78.2186 17.9933 77.932 17.8067 77.5853 17.66C77.252 17.5133 76.772 17.3467 76.1453 17.16C75.2386 16.88 74.4986 16.6 73.9253 16.32C73.352 16.04 72.8586 15.6267 72.4453 15.08C72.032 14.5333 71.8253 13.82 71.8253 12.94C71.8253 11.6333 72.2986 10.6133 73.2453 9.88C74.192 9.13333 75.4253 8.76 76.9453 8.76C78.492 8.76 79.7386 9.13333 80.6853 9.88C81.632 10.6133 82.1386 11.64 82.2053 12.96H78.5053C78.4786 12.5067 78.312 12.1533 78.0053 11.9C77.6986 11.6333 77.3053 11.5 76.8253 11.5C76.412 11.5 76.0786 11.6133 75.8253 11.84C75.572 12.0533 75.4453 12.3667 75.4453 12.78C75.4453 13.2333 75.6586 13.5867 76.0853 13.84C76.512 14.0933 77.1786 14.3667 78.0853 14.66C78.992 14.9667 79.7253 15.26 80.2853 15.54C80.8586 15.82 81.352 16.2267 81.7653 16.76C82.1786 17.2933 82.3853 17.98 82.3853 18.82C82.3853 19.62 82.1786 20.3467 81.7653 21C81.3653 21.6533 80.7786 22.1733 80.0053 22.56C79.232 22.9467 78.3186 23.14 77.2653 23.14ZM94.59 8.96V11.7H90.87V23H87.45V11.7H83.73V8.96H94.59ZM99.7264 11.7V14.54H104.306V17.18H99.7264V20.26H104.906V23H96.3064V8.96H104.906V11.7H99.7264ZM115.267 23L110.547 16.8V23H107.127V8.96H110.547V15.12L115.227 8.96H119.247L113.807 15.84L119.447 23H115.267ZM134.45 8.96V11.7H128.73V14.66H133.01V17.32H128.73V23H125.31V8.96H134.45ZM144.988 20.52H139.748L138.908 23H135.328L140.408 8.96H144.368L149.448 23H145.828L144.988 20.52ZM144.108 17.88L142.368 12.74L140.648 17.88H144.108ZM156.074 23.14C155.047 23.14 154.127 22.9733 153.314 22.64C152.501 22.3067 151.847 21.8133 151.354 21.16C150.874 20.5067 150.621 19.72 150.594 18.8H154.234C154.287 19.32 154.467 19.72 154.774 20C155.081 20.2667 155.481 20.4 155.974 20.4C156.481 20.4 156.881 20.2867 157.174 20.06C157.467 19.82 157.614 19.4933 157.614 19.08C157.614 18.7333 157.494 18.4467 157.254 18.22C157.027 17.9933 156.741 17.8067 156.394 17.66C156.061 17.5133 155.581 17.3467 154.954 17.16C154.047 16.88 153.307 16.6 152.734 16.32C152.161 16.04 151.667 15.6267 151.254 15.08C150.841 14.5333 150.634 13.82 150.634 12.94C150.634 11.6333 151.107 10.6133 152.054 9.88C153.001 9.13333 154.234 8.76 155.754 8.76C157.301 8.76 158.547 9.13333 159.494 9.88C160.441 10.6133 160.947 11.64 161.014 12.96H157.314C157.287 12.5067 157.121 12.1533 156.814 11.9C156.507 11.6333 156.114 11.5 155.634 11.5C155.221 11.5 154.887 11.6133 154.634 11.84C154.381 12.0533 154.254 12.3667 154.254 12.78C154.254 13.2333 154.467 13.5867 154.894 13.84C155.321 14.0933 155.987 14.3667 156.894 14.66C157.801 14.9667 158.534 15.26 159.094 15.54C159.667 15.82 160.161 16.2267 160.574 16.76C160.987 17.2933 161.194 17.98 161.194 18.82C161.194 19.62 160.987 20.3467 160.574 21C160.174 21.6533 159.587 22.1733 158.814 22.56C158.041 22.9467 157.127 23.14 156.074 23.14ZM166.719 8.96V23H163.299V8.96H166.719ZM172.617 20.36H177.097V23H169.197V8.96H172.617V20.36ZM186.868 23L182.148 16.8V23H178.728V8.96H182.148V15.12L186.828 8.96H190.848L185.408 15.84L191.048 23H186.868ZM199.314 23.14C197.994 23.14 196.78 22.8333 195.674 22.22C194.58 21.6067 193.707 20.7533 193.054 19.66C192.414 18.5533 192.094 17.3133 192.094 15.94C192.094 14.5667 192.414 13.3333 193.054 12.24C193.707 11.1467 194.58 10.2933 195.674 9.68C196.78 9.06667 197.994 8.76 199.314 8.76C200.634 8.76 201.84 9.06667 202.934 9.68C204.04 10.2933 204.907 11.1467 205.534 12.24C206.174 13.3333 206.494 14.5667 206.494 15.94C206.494 17.3133 206.174 18.5533 205.534 19.66C204.894 20.7533 204.027 21.6067 202.934 22.22C201.84 22.8333 200.634 23.14 199.314 23.14ZM199.314 20.02C200.434 20.02 201.327 19.6467 201.994 18.9C202.674 18.1533 203.014 17.1667 203.014 15.94C203.014 14.7 202.674 13.7133 201.994 12.98C201.327 12.2333 200.434 11.86 199.314 11.86C198.18 11.86 197.274 12.2267 196.594 12.96C195.927 13.6933 195.594 14.6867 195.594 15.94C195.594 17.18 195.927 18.1733 196.594 18.92C197.274 19.6533 198.18 20.02 199.314 20.02ZM224.296 8.96V23H220.876V14.58L217.736 23H214.976L211.816 14.56V23H208.396V8.96H212.436L216.376 18.68L220.276 8.96H224.296ZM234.354 8.96V17.36C234.354 18.2 234.561 18.8467 234.974 19.3C235.387 19.7533 235.994 19.98 236.794 19.98C237.594 19.98 238.207 19.7533 238.634 19.3C239.061 18.8467 239.274 18.2 239.274 17.36V8.96H242.694V17.34C242.694 18.5933 242.427 19.6533 241.894 20.52C241.361 21.3867 240.641 22.04 239.734 22.48C238.841 22.92 237.841 23.14 236.734 23.14C235.627 23.14 234.634 22.9267 233.754 22.5C232.887 22.06 232.201 21.4067 231.694 20.54C231.187 19.66 230.934 18.5933 230.934 17.34V8.96H234.354ZM248.515 8.96V23H245.095V8.96H248.515Z" fill="#5038BC"/>
<path d="M62.01 34.868L61.618 36.702H63.298V38.858H61.156L60.694 41H58.454L58.916 38.858H56.592L56.13 41H53.89L54.352 38.858H52.28V36.702H54.814L55.206 34.868H53.176V32.712H55.654L56.102 30.64H58.342L57.894 32.712H60.218L60.666 30.64H62.906L62.458 32.712H64.194V34.868H62.01ZM59.77 34.868H57.446L57.054 36.702H59.378L59.77 34.868ZM70.5402 41L68.4962 37.29H67.9222V41H65.5282V31.172H69.5462C70.3208 31.172 70.9788 31.3073 71.5202 31.578C72.0708 31.8487 72.4815 32.222 72.7522 32.698C73.0228 33.1647 73.1582 33.6873 73.1582 34.266C73.1582 34.9193 72.9715 35.5027 72.5982 36.016C72.2342 36.5293 71.6928 36.8933 70.9742 37.108L73.2422 41H70.5402ZM67.9222 35.596H69.4062C69.8448 35.596 70.1715 35.4887 70.3862 35.274C70.6102 35.0593 70.7222 34.756 70.7222 34.364C70.7222 33.9907 70.6102 33.6967 70.3862 33.482C70.1715 33.2673 69.8448 33.16 69.4062 33.16H67.9222V35.596ZM77.055 33.09V35.078H80.261V36.926H77.055V39.082H80.681V41H74.661V31.172H80.681V33.09H77.055ZM93.3652 31.172V41H90.9712V35.106L88.7732 41H86.8412L84.6292 35.092V41H82.2352V31.172H85.0632L87.8212 37.976L90.5512 31.172H93.3652ZM101.205 39.264H97.5368L96.9488 41H94.4428L97.9988 31.172H100.771L104.327 41H101.793L101.205 39.264ZM100.589 37.416L99.3708 33.818L98.1668 37.416H100.589ZM110.421 41L108.377 37.29H107.803V41H105.409V31.172H109.427C110.202 31.172 110.86 31.3073 111.401 31.578C111.952 31.8487 112.362 32.222 112.633 32.698C112.904 33.1647 113.039 33.6873 113.039 34.266C113.039 34.9193 112.852 35.5027 112.479 36.016C112.115 36.5293 111.574 36.8933 110.855 37.108L113.123 41H110.421ZM107.803 35.596H109.287C109.726 35.596 110.052 35.4887 110.267 35.274C110.491 35.0593 110.603 34.756 110.603 34.364C110.603 33.9907 110.491 33.6967 110.267 33.482C110.052 33.2673 109.726 33.16 109.287 33.16H107.803V35.596ZM120.24 41L116.936 36.66V41H114.542V31.172H116.936V35.484L120.212 31.172H123.026L119.218 35.988L123.166 41H120.24ZM130.422 39.264H126.754L126.166 41H123.66L127.216 31.172H129.988L133.544 41H131.01L130.422 39.264ZM129.806 37.416L128.588 33.818L127.384 37.416H129.806ZM140.576 35.96C141.145 36.0813 141.602 36.366 141.948 36.814C142.293 37.2527 142.466 37.7567 142.466 38.326C142.466 39.1473 142.176 39.8007 141.598 40.286C141.028 40.762 140.23 41 139.204 41H134.626V31.172H139.05C140.048 31.172 140.828 31.4007 141.388 31.858C141.957 32.3153 142.242 32.936 142.242 33.72C142.242 34.2987 142.088 34.7793 141.78 35.162C141.481 35.5447 141.08 35.8107 140.576 35.96ZM137.02 35.148H138.588C138.98 35.148 139.278 35.064 139.484 34.896C139.698 34.7187 139.806 34.462 139.806 34.126C139.806 33.79 139.698 33.5333 139.484 33.356C139.278 33.1787 138.98 33.09 138.588 33.09H137.02V35.148ZM138.784 39.068C139.185 39.068 139.493 38.9793 139.708 38.802C139.932 38.6153 140.044 38.3493 140.044 38.004C140.044 37.6587 139.927 37.388 139.694 37.192C139.47 36.996 139.157 36.898 138.756 36.898H137.02V39.068H138.784ZM146.248 39.152H149.384V41H143.854V31.172H146.248V39.152ZM152.92 33.09V35.078H156.126V36.926H152.92V39.082H156.546V41H150.526V31.172H156.546V33.09H152.92ZM159.584 32.278V35.54H163.14V36.59H159.584V39.95H163.56V41H158.31V31.228H163.56V32.278H159.584ZM168.582 41.098C167.938 41.098 167.359 40.986 166.846 40.762C166.342 40.5287 165.945 40.2113 165.656 39.81C165.367 39.3993 165.217 38.928 165.208 38.396H166.566C166.613 38.8533 166.799 39.2407 167.126 39.558C167.462 39.866 167.947 40.02 168.582 40.02C169.189 40.02 169.665 39.8707 170.01 39.572C170.365 39.264 170.542 38.872 170.542 38.396C170.542 38.0227 170.439 37.7193 170.234 37.486C170.029 37.2527 169.772 37.0753 169.464 36.954C169.156 36.8327 168.741 36.702 168.218 36.562C167.574 36.394 167.056 36.226 166.664 36.058C166.281 35.89 165.95 35.6287 165.67 35.274C165.399 34.91 165.264 34.4247 165.264 33.818C165.264 33.286 165.399 32.8147 165.67 32.404C165.941 31.9933 166.319 31.676 166.804 31.452C167.299 31.228 167.863 31.116 168.498 31.116C169.413 31.116 170.159 31.3447 170.738 31.802C171.326 32.2593 171.657 32.866 171.732 33.622H170.332C170.285 33.2487 170.089 32.922 169.744 32.642C169.399 32.3527 168.941 32.208 168.372 32.208C167.84 32.208 167.406 32.348 167.07 32.628C166.734 32.8987 166.566 33.2813 166.566 33.776C166.566 34.1307 166.664 34.42 166.86 34.644C167.065 34.868 167.313 35.0407 167.602 35.162C167.901 35.274 168.316 35.4047 168.848 35.554C169.492 35.7313 170.01 35.9087 170.402 36.086C170.794 36.254 171.13 36.52 171.41 36.884C171.69 37.2387 171.83 37.724 171.83 38.34C171.83 38.816 171.704 39.264 171.452 39.684C171.2 40.104 170.827 40.4447 170.332 40.706C169.837 40.9673 169.254 41.098 168.582 41.098ZM173.229 36.114C173.229 35.162 173.444 34.308 173.873 33.552C174.302 32.7867 174.886 32.1893 175.623 31.76C176.37 31.3307 177.196 31.116 178.101 31.116C179.165 31.116 180.094 31.3727 180.887 31.886C181.68 32.3993 182.259 33.1273 182.623 34.07H181.097C180.826 33.482 180.434 33.0293 179.921 32.712C179.417 32.3947 178.81 32.236 178.101 32.236C177.42 32.236 176.808 32.3947 176.267 32.712C175.726 33.0293 175.301 33.482 174.993 34.07C174.685 34.6487 174.531 35.33 174.531 36.114C174.531 36.8887 174.685 37.57 174.993 38.158C175.301 38.7367 175.726 39.1847 176.267 39.502C176.808 39.8193 177.42 39.978 178.101 39.978C178.81 39.978 179.417 39.824 179.921 39.516C180.434 39.1987 180.826 38.746 181.097 38.158H182.623C182.259 39.0913 181.68 39.8147 180.887 40.328C180.094 40.832 179.165 41.084 178.101 41.084C177.196 41.084 176.37 40.874 175.623 40.454C174.886 40.0247 174.302 39.432 173.873 38.676C173.444 37.92 173.229 37.066 173.229 36.114ZM190.287 38.83H186.031L185.247 41H183.903L187.431 31.298H188.901L192.415 41H191.071L190.287 38.83ZM189.923 37.794L188.159 32.866L186.395 37.794H189.923ZM195.227 39.964H198.643V41H193.953V31.242H195.227V39.964ZM205.764 38.83H201.508L200.724 41H199.38L202.908 31.298H204.378L207.892 41H206.548L205.764 38.83ZM205.4 37.794L203.636 32.866L201.872 37.794H205.4ZM215.436 31.242V32.278H212.776V41H211.502V32.278H208.828V31.242H215.436ZM218.278 31.242V41H217.004V31.242H218.278ZM224.873 41.098C223.968 41.098 223.142 40.888 222.395 40.468C221.648 40.0387 221.056 39.446 220.617 38.69C220.188 37.9247 219.973 37.066 219.973 36.114C219.973 35.162 220.188 34.308 220.617 33.552C221.056 32.7867 221.648 32.194 222.395 31.774C223.142 31.3447 223.968 31.13 224.873 31.13C225.788 31.13 226.618 31.3447 227.365 31.774C228.112 32.194 228.7 32.782 229.129 33.538C229.558 34.294 229.773 35.1527 229.773 36.114C229.773 37.0753 229.558 37.934 229.129 38.69C228.7 39.446 228.112 40.0387 227.365 40.468C226.618 40.888 225.788 41.098 224.873 41.098ZM224.873 39.992C225.554 39.992 226.166 39.8333 226.707 39.516C227.258 39.1987 227.687 38.746 227.995 38.158C228.312 37.57 228.471 36.8887 228.471 36.114C228.471 35.33 228.312 34.6487 227.995 34.07C227.687 33.482 227.262 33.0293 226.721 32.712C226.18 32.3947 225.564 32.236 224.873 32.236C224.182 32.236 223.566 32.3947 223.025 32.712C222.484 33.0293 222.054 33.482 221.737 34.07C221.429 34.6487 221.275 35.33 221.275 36.114C221.275 36.8887 221.429 37.57 221.737 38.158C222.054 38.746 222.484 39.1987 223.025 39.516C223.576 39.8333 224.192 39.992 224.873 39.992ZM239.127 41H237.853L232.729 33.23V41H231.455V31.228H232.729L237.853 38.984V31.228H239.127V41Z" fill="#5038BC"/>
<defs>
<linearGradient id="paint0_linear_7147_1740" x1="3.5" y1="7" x2="3.5" y2="18.9583" gradientUnits="userSpaceOnUse">
<stop stop-color="#3C317E"/>
<stop offset="1" stop-color="#5038BC"/>
</linearGradient>
<linearGradient id="paint1_linear_7147_1740" x1="21.3542" y1="3.5" x2="15.1259" y2="3.5" gradientUnits="userSpaceOnUse">
<stop stop-color="#3C317E"/>
<stop offset="1" stop-color="#5038BC"/>
</linearGradient>
<linearGradient id="paint2_linear_7147_1740" x1="28.5" y1="22.2083" x2="28.5" y2="15.7309" gradientUnits="userSpaceOnUse">
<stop stop-color="#3C317E"/>
<stop offset="1" stop-color="#5038BC"/>
</linearGradient>
<linearGradient id="paint3_linear_7147_1740" x1="13.2083" y1="22.5" x2="18.6892" y2="22.5" gradientUnits="userSpaceOnUse">
<stop stop-color="#3C317E"/>
<stop offset="1" stop-color="#5038BC"/>
</linearGradient>
<clipPath id="clip0_7147_1740">
<rect width="48" height="48" fill="white"/>
</clipPath>
</defs>
</svg>
