<svg width="257" height="47" viewBox="0 0 257 47" fill="none" xmlns="http://www.w3.org/2000/svg">
<rect y="8.14062" width="6.93357" height="37.6163" fill="white"/>
<path d="M22.1016 1.24219L29.0352 8.14031L0.000829395 8.14031L6.9344 1.24219L22.1016 1.24219Z" fill="white"/>
<path d="M5.95898 25.1699L9.42577 18.2718L29.0348 18.2718L22.1012 25.1699L5.95898 25.1699Z" fill="white"/>
<mask id="mask0_1860_3118" style="mask-type:alpha" maskUnits="userSpaceOnUse" x="0" y="8" width="7" height="28">
<rect opacity="0.45" y="8.14062" width="6.93357" height="27.5925" fill="#B9B9B9"/>
</mask>
<g mask="url(#mask0_1860_3118)">
<ellipse opacity="0.5" cx="6.01131" cy="8.15591" rx="7.66561" ry="4.38931" fill="url(#paint0_radial_1860_3118)"/>
<ellipse opacity="0.5" cx="10.076" cy="25.1702" rx="7.15024" ry="4.74246" fill="url(#paint1_radial_1860_3118)"/>
</g>
<mask id="mask1_1860_3118" style="mask-type:alpha" maskUnits="userSpaceOnUse" x="6" y="1" width="17" height="8">
<rect opacity="0.45" x="22.1016" y="1.24219" width="6.89813" height="15.1672" transform="rotate(90 22.1016 1.24219)" fill="#5038BC"/>
</mask>
<g mask="url(#mask1_1860_3118)">
<ellipse opacity="0.5" cx="22.4273" cy="6.9544" rx="6.79034" ry="4.44182" transform="rotate(90 22.4273 6.9544)" fill="white"/>
</g>
<path d="M22.1016 1.24219L29.0351 8.14031V18.2719H22.1016V1.24219Z" fill="white"/>
<mask id="mask2_1860_3118" style="mask-type:alpha" maskUnits="userSpaceOnUse" x="22" y="8" width="8" height="11">
<rect opacity="0.45" x="29.0352" y="18.2725" width="6.93357" height="9.48492" transform="rotate(-180 29.0352 18.2725)" fill="#B9B9B9"/>
</mask>
<g mask="url(#mask2_1860_3118)">
<ellipse opacity="0.5" cx="23.2939" cy="18.9188" rx="6.82523" ry="4.41911" transform="rotate(-180 23.2939 18.9188)" fill="url(#paint2_radial_1860_3118)"/>
</g>
<mask id="mask3_1860_3118" style="mask-type:alpha" maskUnits="userSpaceOnUse" x="9" y="18" width="11" height="8">
<rect opacity="0.45" width="6.89813" height="9.53366" transform="matrix(-4.3936e-08 1 1 4.34879e-08 9.5332 18.2725)" fill="#B9B9B9"/>
</mask>
<g mask="url(#mask3_1860_3118)">
<ellipse opacity="0.7" cx="12.4375" cy="4.43254" rx="12.4375" ry="4.43254" transform="matrix(0.641681 0.766972 0.770196 -0.637807 -0.560547 17.0635)" fill="url(#paint3_radial_1860_3118)"/>
</g>
<path d="M5.95942 25.1703L9.42621 18.2722L28.981 41.1761L23.7267 45.703L5.95942 25.1703Z" fill="white"/>
<path d="M47.8882 23L44.4606 16.946H42.9916V23H39.8756V7.46444H45.707C46.9089 7.46444 47.9327 7.67959 48.7785 8.1099C49.6243 8.52537 50.2549 9.09664 50.6704 9.82371C51.1007 10.5359 51.3158 11.3372 51.3158 12.2275C51.3158 13.2513 51.0191 14.1787 50.4255 15.0096C49.832 15.8257 48.9491 16.3896 47.7769 16.7012L51.4939 23H47.8882ZM42.9916 14.6313H45.5957C46.4415 14.6313 47.0721 14.4235 47.4876 14.0081C47.903 13.5926 48.1108 13.0213 48.1108 12.2943C48.1108 11.5672 47.903 11.0033 47.4876 10.6027C47.0721 10.1872 46.4415 9.97951 45.5957 9.97951H42.9916V14.6313ZM57.2502 7.46444V23H54.1341V7.46444H57.2502ZM65.6928 23.1558C64.6096 23.1558 63.6303 22.9703 62.7548 22.5994C61.8942 22.2284 61.2117 21.6942 60.7072 20.9968C60.2027 20.2995 59.943 19.4759 59.9282 18.5263H63.2668C63.3113 19.1792 63.5338 19.6985 63.9345 20.0843C64.3499 20.4701 64.9138 20.663 65.626 20.663C66.3531 20.663 66.9244 20.4849 67.3398 20.1288C67.7553 19.7727 67.963 19.2979 67.963 18.7043C67.963 18.2444 67.8221 17.866 67.5401 17.5692C67.2582 17.2725 66.9021 17.0425 66.4718 16.8793C66.0563 16.7012 65.4776 16.5083 64.7357 16.3006C63.7267 16.0038 62.9032 15.7145 62.2652 15.4325C61.642 15.1358 61.1004 14.698 60.6404 14.1194C60.1953 13.5258 59.9727 12.7394 59.9727 11.7601C59.9727 10.8401 60.2027 10.0389 60.6627 9.3563C61.1226 8.67375 61.7681 8.15441 62.599 7.7983C63.43 7.42734 64.3796 7.24186 65.448 7.24186C67.0505 7.24186 68.3488 7.63508 69.343 8.4215C70.352 9.19308 70.9084 10.2763 71.0123 11.6711H67.5847C67.555 11.0924 67.325 10.6324 66.8947 10.2911C66.4792 9.93499 65.9228 9.75693 65.2254 9.75693C64.617 9.75693 64.1274 9.92015 63.7564 10.2466C63.4003 10.5582 63.2222 11.0256 63.2222 11.6488C63.2222 12.0643 63.3558 12.413 63.6229 12.6949C63.9048 12.962 64.2461 13.1846 64.6467 13.3626C65.0622 13.5258 65.6409 13.7187 66.3828 13.9413C67.3918 14.2381 68.2153 14.5348 68.8533 14.8316C69.4914 15.1284 70.0404 15.5735 70.5004 16.167C70.9603 16.7605 71.1903 17.5396 71.1903 18.504C71.1903 19.335 70.9752 20.1066 70.5449 20.8188C70.1146 21.531 69.4839 22.1023 68.653 22.5326C67.8221 22.9481 66.8353 23.1558 65.6928 23.1558ZM84.464 7.46444V9.91273H80.3242V23H77.2081V9.91273H73.0683V7.46444H84.464ZM89.8536 9.89048V13.919H95.084V16.3228H89.8536V20.5294H95.7517V23H86.7375V7.44218H95.7517V9.89048H89.8536ZM107.353 23L101.699 16.078V23H98.5834V7.46444H101.699V14.431L107.353 7.46444H111.114L104.704 15.1654L111.292 23H107.353ZM128.89 7.46444V9.91273H122.413V13.9858H127.377V16.3896H122.413V23H119.297V7.46444H128.89ZM140.626 20.0398H134.438L133.415 23H130.143L135.729 7.44218H139.357L144.944 23H141.65L140.626 20.0398ZM139.802 17.6137L137.532 11.0479L135.262 17.6137H139.802ZM152.396 23.1558C151.313 23.1558 150.334 22.9703 149.458 22.5994C148.598 22.2284 147.915 21.6942 147.41 20.9968C146.906 20.2995 146.646 19.4759 146.631 18.5263H149.97C150.015 19.1792 150.237 19.6985 150.638 20.0843C151.053 20.4701 151.617 20.663 152.329 20.663C153.056 20.663 153.628 20.4849 154.043 20.1288C154.459 19.7727 154.666 19.2979 154.666 18.7043C154.666 18.2444 154.525 17.866 154.243 17.5692C153.962 17.2725 153.605 17.0425 153.175 16.8793C152.76 16.7012 152.181 16.5083 151.439 16.3006C150.43 16.0038 149.607 15.7145 148.968 15.4325C148.345 15.1358 147.804 14.698 147.344 14.1194C146.899 13.5258 146.676 12.7394 146.676 11.7601C146.676 10.8401 146.906 10.0389 147.366 9.3563C147.826 8.67375 148.471 8.15441 149.302 7.7983C150.133 7.42734 151.083 7.24186 152.151 7.24186C153.754 7.24186 155.052 7.63508 156.046 8.4215C157.055 9.19308 157.612 10.2763 157.716 11.6711H154.288C154.258 11.0924 154.028 10.6324 153.598 10.2911C153.183 9.93499 152.626 9.75693 151.929 9.75693C151.32 9.75693 150.831 9.92015 150.46 10.2466C150.104 10.5582 149.926 11.0256 149.926 11.6488C149.926 12.0643 150.059 12.413 150.326 12.6949C150.608 12.962 150.949 13.1846 151.35 13.3626C151.765 13.5258 152.344 13.7187 153.086 13.9413C154.095 14.2381 154.919 14.5348 155.557 14.8316C156.195 15.1284 156.744 15.5735 157.204 16.167C157.664 16.7605 157.894 17.5396 157.894 18.504C157.894 19.335 157.678 20.1066 157.248 20.8188C156.818 21.531 156.187 22.1023 155.356 22.5326C154.525 22.9481 153.539 23.1558 152.396 23.1558ZM163.711 7.46444V23H160.595V7.46444H163.711ZM169.906 20.6185H175.025V23H166.79V7.46444H169.906V20.6185ZM185.775 23L180.122 16.078V23H177.005V7.46444H180.122V14.431L185.775 7.46444H189.536L183.126 15.1654L189.714 23H185.775ZM198.975 23.1558C197.521 23.1558 196.186 22.8145 194.969 22.132C193.752 21.4494 192.788 20.5072 192.076 19.3053C191.363 18.0886 191.007 16.716 191.007 15.1877C191.007 13.6742 191.363 12.3165 192.076 11.1146C192.788 9.8979 193.752 8.94825 194.969 8.2657C196.186 7.58314 197.521 7.24186 198.975 7.24186C200.444 7.24186 201.78 7.58314 202.982 8.2657C204.198 8.94825 205.155 9.8979 205.853 11.1146C206.565 12.3165 206.921 13.6742 206.921 15.1877C206.921 16.716 206.565 18.0886 205.853 19.3053C205.155 20.5072 204.198 21.4494 202.982 22.132C201.765 22.8145 200.429 23.1558 198.975 23.1558ZM198.975 20.2846C199.91 20.2846 200.734 20.0769 201.446 19.6614C202.158 19.2311 202.715 18.6376 203.115 17.8808C203.516 17.1092 203.716 16.2115 203.716 15.1877C203.716 14.1639 203.516 13.2736 203.115 12.5168C202.715 11.7452 202.158 11.1517 201.446 10.7363C200.734 10.3208 199.91 10.113 198.975 10.113C198.041 10.113 197.21 10.3208 196.482 10.7363C195.77 11.1517 195.214 11.7452 194.813 12.5168C194.413 13.2736 194.212 14.1639 194.212 15.1877C194.212 16.2115 194.413 17.1092 194.813 17.8808C195.214 18.6376 195.77 19.2311 196.482 19.6614C197.21 20.0769 198.041 20.2846 198.975 20.2846ZM226.177 7.46444V23H223.061V12.8952L218.899 23H216.54L212.355 12.8952V23H209.239V7.46444H212.778L217.719 19.016L222.661 7.46444H226.177ZM238.285 7.46444V17.0573C238.285 18.1108 238.559 18.9195 239.108 19.4834C239.657 20.0324 240.429 20.3069 241.423 20.3069C242.432 20.3069 243.211 20.0324 243.76 19.4834C244.309 18.9195 244.584 18.1108 244.584 17.0573V7.46444H247.722V17.0573C247.722 18.3779 247.433 19.4982 246.854 20.4182C246.29 21.3233 245.526 22.0058 244.561 22.4658C243.612 22.9258 242.551 23.1558 241.379 23.1558C240.221 23.1558 239.168 22.9258 238.218 22.4658C237.283 22.0058 236.541 21.3233 235.992 20.4182C235.443 19.4982 235.169 18.3779 235.169 17.0573V7.46444H238.285ZM253.849 7.46444V23H250.733V7.46444H253.849Z" fill="white"/>
<path d="M50.7174 33.4177L50.2326 35.6855H52.31V38.3514H49.6614L49.0901 41H46.3203L46.8916 38.3514H44.0179L43.4466 41H40.6769L41.2481 38.3514H38.6861V35.6855H41.8194L42.3041 33.4177H39.794V30.7518H42.8581L43.412 28.1897H46.1818L45.6279 30.7518H48.5015L49.0555 28.1897H51.8253L51.2713 30.7518H53.4179V33.4177H50.7174ZM47.9476 33.4177H45.0739L44.5892 35.6855H47.4628L47.9476 33.4177ZM62.4249 34.768C63.1288 34.918 63.6943 35.27 64.1214 35.824C64.5484 36.3664 64.7619 36.9896 64.7619 37.6936C64.7619 38.7092 64.4041 39.517 63.6886 40.1171C62.9846 40.7057 61.9978 41 60.7284 41H55.0676V28.8475H60.5379C61.7728 28.8475 62.7365 29.1303 63.4289 29.6958C64.1329 30.2613 64.4849 31.0287 64.4849 31.9982C64.4849 32.7137 64.2945 33.3081 63.9136 33.7812C63.5443 34.2544 63.0481 34.5833 62.4249 34.768ZM58.0278 33.7812H59.9667C60.4514 33.7812 60.8207 33.6716 61.0746 33.4523C61.34 33.233 61.4727 32.9157 61.4727 32.5002C61.4727 32.0732 61.34 31.75 61.0746 31.5308C60.8207 31.3 60.4514 31.1846 59.9667 31.1846H58.0278V33.7812ZM60.209 38.6457C60.7053 38.6457 61.0861 38.5303 61.3516 38.2995C61.6285 38.0686 61.767 37.734 61.767 37.2954C61.767 36.8684 61.6228 36.5337 61.3343 36.2914C61.0573 36.0375 60.6707 35.9105 60.1744 35.9105H58.0278V38.6457H60.209ZM69.439 31.1846V33.712H73.4033V35.9451H69.439V38.663H73.9226V41H66.4788V28.8475H73.9226V31.1846H69.439ZM86.2658 28.8475L82.0591 36.9838V41H79.0989V36.9838L74.8923 28.8475H78.2507L80.605 33.9197L82.942 28.8475H86.2658ZM93.2058 41.1212C92.0633 41.1212 91.013 40.8557 90.0552 40.3249C89.1088 39.794 88.3529 39.0554 87.7874 38.109C87.2334 37.1511 86.9564 36.0778 86.9564 34.8891C86.9564 33.7004 87.2334 32.6329 87.7874 31.6866C88.3529 30.7402 89.1088 30.0016 90.0552 29.4707C91.013 28.9399 92.0633 28.6744 93.2058 28.6744C94.3483 28.6744 95.3928 28.9399 96.3391 29.4707C97.297 30.0016 98.0472 30.7402 98.5896 31.6866C99.1435 32.6329 99.4205 33.7004 99.4205 34.8891C99.4205 36.0778 99.1435 37.1511 98.5896 38.109C98.0356 39.0554 97.2855 39.794 96.3391 40.3249C95.3928 40.8557 94.3483 41.1212 93.2058 41.1212ZM93.2058 38.386C94.1752 38.386 94.9485 38.0686 95.5255 37.4339C96.1141 36.7991 96.4084 35.9509 96.4084 34.8891C96.4084 33.8274 96.1141 32.9791 95.5255 32.3444C94.9485 31.7097 94.1752 31.3923 93.2058 31.3923C92.2248 31.3923 91.44 31.7097 90.8515 32.3444C90.2744 32.9791 89.9859 33.8274 89.9859 34.8891C89.9859 35.9509 90.2744 36.7991 90.8515 37.4339C91.44 38.0686 92.2248 38.386 93.2058 38.386ZM111.939 41H108.979L104.028 33.5043V41H101.067V28.8475H104.028L108.979 36.3779V28.8475H111.939V41ZM118.637 28.8475C119.918 28.8475 121.038 29.1014 121.996 29.6092C122.954 30.117 123.692 30.8326 124.212 31.7558C124.743 32.6675 125.008 33.7235 125.008 34.9238C125.008 36.1125 124.743 37.1685 124.212 38.0917C123.692 39.015 122.948 39.7305 121.978 40.2383C121.021 40.7461 119.907 41 118.637 41H114.085V28.8475H118.637ZM118.447 38.4726C119.566 38.4726 120.438 38.161 121.061 37.5378C121.684 36.9146 121.996 36.0432 121.996 34.9238C121.996 33.8043 121.684 32.933 121.061 32.3098C120.438 31.6866 119.566 31.375 118.447 31.375H117.045V38.4726H118.447ZM132.964 34.7853C133.402 34.8545 133.8 35.0334 134.158 35.3219C134.527 35.6104 134.816 35.9682 135.024 36.3952C135.243 36.8222 135.352 37.2781 135.352 37.7628C135.352 38.3745 135.197 38.9284 134.885 39.4247C134.573 39.9094 134.118 40.296 133.517 40.5845C132.929 40.8615 132.231 41 131.423 41H126.922V28.9341H131.25C132.069 28.9341 132.767 29.0726 133.344 29.3496C133.921 29.615 134.354 29.9785 134.643 30.4402C134.931 30.9018 135.075 31.4211 135.075 31.9982C135.075 32.7137 134.879 33.3081 134.487 33.7812C134.106 34.2429 133.598 34.5775 132.964 34.7853ZM128.497 34.1448H131.146C131.884 34.1448 132.456 33.9717 132.86 33.6254C133.264 33.2792 133.466 32.8003 133.466 32.1886C133.466 31.5769 133.264 31.098 132.86 30.7518C132.456 30.4055 131.873 30.2324 131.111 30.2324H128.497V34.1448ZM131.284 39.7017C132.069 39.7017 132.681 39.517 133.119 39.1477C133.558 38.7784 133.777 38.2648 133.777 37.607C133.777 36.9376 133.546 36.4125 133.085 36.0317C132.623 35.6393 132.006 35.4431 131.232 35.4431H128.497V39.7017H131.284ZM143.009 41.1212C141.889 41.1212 140.868 40.8615 139.945 40.3422C139.022 39.8113 138.289 39.0785 137.746 38.1437C137.215 37.1973 136.95 36.1356 136.95 34.9584C136.95 33.7812 137.215 32.7252 137.746 31.7904C138.289 30.8441 139.022 30.1113 139.945 29.5919C140.868 29.061 141.889 28.7956 143.009 28.7956C144.14 28.7956 145.167 29.061 146.09 29.5919C147.014 30.1113 147.741 30.8383 148.271 31.7731C148.802 32.7079 149.068 33.7697 149.068 34.9584C149.068 36.1471 148.802 37.2088 148.271 38.1437C147.741 39.0785 147.014 39.8113 146.09 40.3422C145.167 40.8615 144.14 41.1212 143.009 41.1212ZM143.009 39.7536C143.851 39.7536 144.607 39.5574 145.277 39.165C145.958 38.7726 146.488 38.2129 146.869 37.4858C147.262 36.7588 147.458 35.9163 147.458 34.9584C147.458 33.989 147.262 33.1465 146.869 32.431C146.488 31.7039 145.963 31.1442 145.294 30.7518C144.625 30.3594 143.863 30.1632 143.009 30.1632C142.155 30.1632 141.393 30.3594 140.724 30.7518C140.054 31.1442 139.524 31.7039 139.131 32.431C138.75 33.1465 138.56 33.989 138.56 34.9584C138.56 35.9163 138.75 36.7588 139.131 37.4858C139.524 38.2129 140.054 38.7726 140.724 39.165C141.405 39.5574 142.166 39.7536 143.009 39.7536ZM152.688 28.9341V36.5683C152.688 37.6416 152.948 38.4379 153.467 38.9573C153.998 39.4766 154.731 39.7363 155.666 39.7363C156.589 39.7363 157.31 39.4766 157.83 38.9573C158.36 38.4379 158.626 37.6416 158.626 36.5683V28.9341H160.201V36.551C160.201 37.5551 159.999 38.4033 159.595 39.0958C159.191 39.7767 158.643 40.2845 157.951 40.6192C157.27 40.9538 156.502 41.1212 155.648 41.1212C154.794 41.1212 154.021 40.9538 153.329 40.6192C152.648 40.2845 152.105 39.7767 151.701 39.0958C151.309 38.4033 151.113 37.5551 151.113 36.551V28.9341H152.688ZM172.316 41H170.74L164.404 31.3923V41H162.829V28.9168H164.404L170.74 38.5072V28.9168H172.316V41ZM178.758 28.9341C180.073 28.9341 181.21 29.1822 182.168 29.6785C183.137 30.1632 183.876 30.8614 184.384 31.7731C184.903 32.6849 185.163 33.7581 185.163 34.993C185.163 36.2279 184.903 37.3012 184.384 38.2129C183.876 39.1131 183.137 39.8055 182.168 40.2902C181.21 40.7634 180.073 41 178.758 41H175.001V28.9341H178.758ZM178.758 39.7017C180.316 39.7017 181.504 39.292 182.324 38.4726C183.143 37.6416 183.553 36.4818 183.553 34.993C183.553 33.4927 183.137 32.3213 182.306 31.4788C181.487 30.6364 180.304 30.2151 178.758 30.2151H176.576V39.7017H178.758ZM194.373 38.3168H189.11L188.141 41H186.479L190.841 29.0033H192.659L197.004 41H195.342L194.373 38.3168ZM193.923 37.0357L191.742 30.9422L189.56 37.0357H193.923ZM205.259 41L202.385 36.0663H200.481V41H198.905V28.9341H202.8C203.712 28.9341 204.48 29.0899 205.103 29.4015C205.738 29.7131 206.211 30.1343 206.522 30.6652C206.834 31.1961 206.99 31.802 206.99 32.4829C206.99 33.3138 206.747 34.0467 206.263 34.6814C205.789 35.3162 205.074 35.7374 204.116 35.9451L207.146 41H205.259ZM200.481 34.8026H202.8C203.654 34.8026 204.295 34.5949 204.722 34.1794C205.149 33.7524 205.362 33.1869 205.362 32.4829C205.362 31.7674 205.149 31.2134 204.722 30.821C204.306 30.4286 203.666 30.2324 202.8 30.2324H200.481V34.8026ZM211.013 28.9341V41H209.438V28.9341H211.013ZM215.273 30.2151V34.2486H219.67V35.547H215.273V39.7017H220.189V41H213.698V28.9168H220.189V30.2151H215.273ZM226.399 41.1212C225.603 41.1212 224.887 40.9827 224.252 40.7057C223.629 40.4172 223.139 40.0248 222.781 39.5285C222.423 39.0208 222.238 38.4379 222.227 37.7801H223.906C223.964 38.3456 224.195 38.8246 224.598 39.2169C225.014 39.5978 225.614 39.7882 226.399 39.7882C227.149 39.7882 227.738 39.6036 228.165 39.2343C228.603 38.8534 228.822 38.3687 228.822 37.7801C228.822 37.3185 228.695 36.9434 228.442 36.6549C228.188 36.3664 227.87 36.1471 227.489 35.9971C227.109 35.847 226.595 35.6855 225.949 35.5124C225.152 35.3046 224.512 35.0969 224.027 34.8891C223.554 34.6814 223.144 34.3583 222.798 33.9197C222.463 33.4696 222.296 32.8695 222.296 32.1194C222.296 31.4615 222.463 30.8787 222.798 30.3709C223.133 29.8631 223.6 29.4707 224.2 29.1938C224.812 28.9168 225.51 28.7783 226.295 28.7783C227.426 28.7783 228.349 29.061 229.065 29.6265C229.792 30.192 230.202 30.9422 230.294 31.877H228.563C228.505 31.4154 228.263 31.0114 227.836 30.6652C227.409 30.3075 226.843 30.1286 226.139 30.1286C225.481 30.1286 224.945 30.3017 224.529 30.6479C224.114 30.9826 223.906 31.4558 223.906 32.0674C223.906 32.506 224.027 32.8637 224.27 33.1407C224.523 33.4177 224.829 33.6312 225.187 33.7812C225.556 33.9197 226.07 34.0813 226.728 34.2659C227.524 34.4852 228.165 34.7045 228.649 34.9238C229.134 35.1315 229.549 35.4604 229.896 35.9105C230.242 36.3491 230.415 36.9492 230.415 37.7109C230.415 38.2995 230.259 38.8534 229.948 39.3727C229.636 39.8921 229.174 40.3133 228.563 40.6365C227.951 40.9596 227.23 41.1212 226.399 41.1212Z" fill="white"/>
<defs>
<radialGradient id="paint0_radial_1860_3118" cx="0" cy="0" r="1" gradientUnits="userSpaceOnUse" gradientTransform="translate(6.01131 8.15591) rotate(90) scale(4.38931 7.66561)">
<stop/>
<stop offset="0.917127" stop-opacity="0"/>
</radialGradient>
<radialGradient id="paint1_radial_1860_3118" cx="0" cy="0" r="1" gradientUnits="userSpaceOnUse" gradientTransform="translate(10.076 25.1702) rotate(90) scale(4.74246 7.15024)">
<stop/>
<stop offset="0.917127" stop-opacity="0"/>
</radialGradient>
<radialGradient id="paint2_radial_1860_3118" cx="0" cy="0" r="1" gradientUnits="userSpaceOnUse" gradientTransform="translate(23.2939 18.9188) rotate(90) scale(4.41911 6.82523)">
<stop/>
<stop offset="0.917127" stop-opacity="0"/>
</radialGradient>
<radialGradient id="paint3_radial_1860_3118" cx="0" cy="0" r="1" gradientUnits="userSpaceOnUse" gradientTransform="translate(12.4375 4.43254) rotate(90) scale(4.43254 12.4375)">
<stop/>
<stop offset="0.917127" stop-opacity="0"/>
</radialGradient>
</defs>
</svg>
