<svg width="14" height="14" viewBox="0 0 14 14" fill="none" xmlns="http://www.w3.org/2000/svg">
<path fill-rule="evenodd" clip-rule="evenodd" d="M7 13.125C10.3827 13.125 13.125 10.3827 13.125 7C13.125 3.61726 10.3827 0.875 7 0.875C3.61726 0.875 0.875 3.61726 0.875 7C0.875 10.3827 3.61726 13.125 7 13.125ZM7.344 10H6.616V5.616H7.344V10ZM7.472 4.408C7.472 4.688 7.256 4.904 6.992 4.904C6.712 4.904 6.496 4.688 6.496 4.408C6.496 4.128 6.712 3.912 6.992 3.912C7.256 3.912 7.472 4.128 7.472 4.408Z" fill="#EB5757"/>
</svg>
