<?xml version="1.0" encoding="UTF-8"?>
<svg xmlns="http://www.w3.org/2000/svg" xmlns:xlink="http://www.w3.org/1999/xlink" viewBox="0 0 22 22" width="22px" height="22px">
<g id="surface11963067">
<path style=" stroke:none;fill-rule:nonzero;fill:rgb(50.980395%,50.980395%,50.980395%);fill-opacity:1;" d="M 18 2 C 16.34375 2 15 3.34375 15 5 C 15 5.1875 15.019531 5.375 15.054688 5.558594 L 7.9375 9.710938 C 7.398438 9.25 6.710938 9 6 9 C 4.34375 9 3 10.34375 3 12 C 3 13.65625 4.34375 15 6 15 C 6.710938 15 7.394531 14.746094 7.9375 14.285156 L 15.054688 18.441406 C 15.019531 18.625 15 18.8125 15 19 C 15 20.65625 16.34375 22 18 22 C 19.65625 22 21 20.65625 21 19 C 21 17.34375 19.65625 16 18 16 C 17.289062 16 16.605469 16.253906 16.0625 16.714844 L 8.945312 12.558594 C 8.980469 12.375 9 12.1875 9 12 C 9 11.8125 8.980469 11.625 8.945312 11.441406 L 16.058594 7.289062 C 16.601562 7.75 17.289062 8 18 8 C 19.65625 8 21 6.65625 21 5 C 21 3.34375 19.65625 2 18 2 Z M 18 2 "/>
</g>
</svg>