<svg width="29" height="29" viewBox="0 0 29 29" fill="none" xmlns="http://www.w3.org/2000/svg">
<path d="M26.3961 19.5222C26.3961 19.2202 26.2958 18.9052 26.0684 18.674L21.7321 14.3244L20.0927 15.9831L22.3874 18.3425H5.40814C4.76451 18.3425 4.24214 18.871 4.24214 19.5222C4.24214 20.1734 4.76451 20.7019 5.40814 20.7019H22.3874L20.0927 23.0613L21.7321 24.72L26.0684 20.3704C26.2958 20.1392 26.3961 19.8242 26.3961 19.5222ZM25.2301 10.0845C25.2301 9.43331 24.7077 8.90479 24.0641 8.90479H7.08367L9.37953 6.54537L7.74013 4.88669L3.4038 9.2363C2.94906 9.69757 2.94906 10.4714 3.4038 10.9327L7.74013 15.2823L9.37953 13.6236L7.08367 11.2642H24.0641C24.7077 11.2642 25.2301 10.7357 25.2301 10.0845Z" fill="#5038BC"/>
</svg>
