<svg width="13" height="13" viewBox="0 0 13 13" fill="none" xmlns="http://www.w3.org/2000/svg">
<path d="M6.68358 1.49368C6.3971 1.49368 6.16459 1.72619 6.16459 2.01267C6.16459 2.29915 6.3971 2.53166 6.68358 2.53166C6.97006 2.53166 7.20257 2.29915 7.20257 2.01267C7.20257 1.72619 6.97006 1.49368 6.68358 1.49368ZM3.56966 3.05064C3.28318 3.05064 3.05067 3.28315 3.05067 3.56963C3.05067 3.85611 3.28318 4.08862 3.56966 4.08862C3.85614 4.08862 4.08864 3.85611 4.08864 3.56963C4.08864 3.28315 3.85614 3.05064 3.56966 3.05064ZM9.79751 3.05064C9.51102 3.05064 9.27852 3.28315 9.27852 3.56963C9.27852 3.85611 9.51102 4.08862 9.79751 4.08862C10.084 4.08862 10.3165 3.85611 10.3165 3.56963C10.3165 3.28315 10.084 3.05064 9.79751 3.05064ZM6.68358 3.56963C5.25066 3.56963 4.08864 4.73165 4.08864 6.16457C4.08864 6.74428 4.28638 7.27312 4.60763 7.70544C5.08043 8.3412 5.12662 8.75951 5.12662 9.27849C5.64561 9.27849 7.72156 9.27849 8.24054 9.27849C8.24054 8.75951 8.51457 8.04642 8.75953 7.72153C9.08701 7.28714 9.27852 6.75051 9.27852 6.16457C9.27852 4.73165 8.11651 3.56963 6.68358 3.56963ZM2.53168 6.16457C2.2452 6.16457 2.0127 6.39708 2.0127 6.68356C2.0127 6.97004 2.2452 7.20254 2.53168 7.20254C2.81816 7.20254 3.05067 6.97004 3.05067 6.68356C3.05067 6.39708 2.81816 6.16457 2.53168 6.16457ZM10.8355 6.16457C10.549 6.16457 10.3165 6.39708 10.3165 6.68356C10.3165 6.97004 10.549 7.20254 10.8355 7.20254C11.122 7.20254 11.3545 6.97004 11.3545 6.68356C11.3545 6.39708 11.122 6.16457 10.8355 6.16457ZM5.12662 10.3165C5.12662 11.1764 5.82362 11.8734 6.68358 11.8734C7.54354 11.8734 8.24054 11.1764 8.24054 10.3165H5.12662Z" fill="#5038BC"/>
</svg>
