<svg width="18" height="22" viewBox="0 0 18 22" fill="none" xmlns="http://www.w3.org/2000/svg">
<path d="M4.98486 3V15C4.98486 15.5304 5.19478 16.0391 5.56844 16.4142C5.94209 16.7893 6.44888 17 6.97731 17H14.9471C15.4755 17 15.9823 16.7893 16.356 16.4142C16.7296 16.0391 16.9395 15.5304 16.9395 15V6.242C16.9395 5.97556 16.8864 5.71181 16.7834 5.46624C16.6805 5.22068 16.5296 4.99824 16.3398 4.812L13.0373 1.57C12.6651 1.20466 12.1652 1.00007 11.6446 1H6.97731C6.44888 1 5.94209 1.21071 5.56844 1.58579C5.19478 1.96086 4.98486 2.46957 4.98486 3V3Z" stroke="white" stroke-width="2" stroke-linecap="round" stroke-linejoin="round"/>
<path d="M12.9547 17V19C12.9547 19.5304 12.7447 20.0391 12.3711 20.4142C11.9974 20.7893 11.4906 21 10.9622 21H2.99244C2.46402 21 1.95723 20.7893 1.58357 20.4142C1.20992 20.0391 1 19.5304 1 19V8C1 7.46957 1.20992 6.96086 1.58357 6.58579C1.95723 6.21071 2.46402 6 2.99244 6H4.98489" stroke="white" stroke-width="2" stroke-linecap="round" stroke-linejoin="round"/>
</svg>
