<svg width="36" height="37" viewBox="0 0 36 37" fill="none" xmlns="http://www.w3.org/2000/svg">
<path opacity="0.4" fill-rule="evenodd" clip-rule="evenodd" d="M11.3333 13.5C11.3333 11.6591 12.8256 10.1667 14.6666 10.1667H21.3333C23.1742 10.1667 24.6666 11.6591 24.6666 13.5V23.5C24.6666 25.341 23.1742 26.8333 21.3333 26.8333H14.6666C12.8256 26.8333 11.3333 25.341 11.3333 23.5V13.5ZM16.3333 13.5C15.873 13.5 15.4999 13.8731 15.4999 14.3333C15.4999 14.7936 15.873 15.1667 16.3333 15.1667H19.6666C20.1268 15.1667 20.4999 14.7936 20.4999 14.3333C20.4999 13.8731 20.1268 13.5 19.6666 13.5H16.3333Z" fill="#7368EC"/>
<path fill-rule="evenodd" clip-rule="evenodd" d="M17.9999 21.8333C19.3807 21.8333 20.4999 20.714 20.4999 19.3333C20.4999 17.9526 19.3807 16.8333 17.9999 16.8333C16.6192 16.8333 15.4999 17.9526 15.4999 19.3333C15.4999 20.714 16.6192 21.8333 17.9999 21.8333ZM21.3333 26.8333H14.6666C14.0687 26.8333 13.5074 26.6759 13.0222 26.4001C13.0362 26.2647 13.0567 26.1312 13.0833 26C13.4694 24.0981 15.1508 22.6667 17.1666 22.6667H18.8333C20.8491 22.6667 22.5306 24.0981 22.9166 26C22.9433 26.1312 22.9637 26.2647 22.9777 26.4001C22.4925 26.6759 21.9313 26.8333 21.3333 26.8333Z" fill="#5038BC"/>
<rect x="1" y="1.5" width="34" height="34" rx="7" stroke="#E1E5FE" stroke-width="2"/>
</svg>
