<svg width="25" height="31" viewBox="0 0 25 31" fill="none" xmlns="http://www.w3.org/2000/svg">
<g clip-path="url(#clip0_1307_101)">
<path d="M21.8107 7.00537H11.0657C12.161 7.65921 13.1049 8.53738 13.8447 9.57715H21.8107C22.1752 9.57715 22.4724 9.87928 22.4724 10.2502V22.549C22.4724 22.92 22.1753 23.2222 21.8107 23.2222H9.72101C9.35639 23.2222 9.05934 22.92 9.05934 22.549V14.3548C8.75404 14.195 8.43475 14.0603 8.10473 13.9563C7.91132 14.5625 7.49154 15.0791 6.91391 15.3879C6.79284 15.4525 6.66128 15.4917 6.53125 15.5345V22.549C6.53125 24.3381 7.96228 25.7941 9.72096 25.7941H21.8107C23.5693 25.7941 25.0004 24.3381 25.0004 22.549V10.2502C25.0004 8.46116 23.5694 7.00537 21.8107 7.00537Z" fill="#828282"/>
<path d="M6.5365 11.9747C9.14118 12.0383 11.4191 13.4322 12.7292 15.5235C12.8493 15.7144 13.0551 15.8248 13.269 15.8248C13.3274 15.8248 13.3867 15.8165 13.4443 15.7998C13.7167 15.7202 13.906 15.469 13.9093 15.1811C13.9093 15.1551 13.9093 15.129 13.9093 15.1033C13.9093 10.9215 10.6241 7.52682 6.53746 7.42716V6.21161C6.53746 5.9286 6.38357 5.66991 6.13835 5.53767C6.02893 5.47898 5.90872 5.44971 5.78938 5.44971C5.64045 5.44971 5.49314 5.49506 5.3664 5.58287L0.291328 9.11655C0.109523 9.24301 0.000916924 9.45228 5.11618e-06 9.6766C-0.000856036 9.90015 0.107041 10.1104 0.288086 10.2384L5.3623 13.8174C5.48985 13.9077 5.63883 13.953 5.78852 13.953C5.90781 13.953 6.0264 13.9245 6.13586 13.8666C6.3818 13.7352 6.5365 13.475 6.5365 13.1919V11.9747Z" fill="#828282"/>
<path d="M11.2824 21.7538C11.1024 21.7538 10.9544 21.7018 10.8384 21.5978C10.7264 21.4898 10.6704 21.3578 10.6704 21.2018C10.6704 21.0418 10.7264 20.9078 10.8384 20.7998C10.9544 20.6918 11.1024 20.6378 11.2824 20.6378C11.4584 20.6378 11.6024 20.6918 11.7144 20.7998C11.8304 20.9078 11.8884 21.0418 11.8884 21.2018C11.8884 21.3578 11.8304 21.4898 11.7144 21.5978C11.6024 21.7018 11.4584 21.7538 11.2824 21.7538ZM13.0117 18.0098C12.8317 18.0098 12.6837 17.9578 12.5677 17.8538C12.4557 17.7458 12.3997 17.6138 12.3997 17.4578C12.3997 17.2978 12.4557 17.1658 12.5677 17.0618C12.6837 16.9538 12.8317 16.8998 13.0117 16.8998C13.1877 16.8998 13.3317 16.9538 13.4437 17.0618C13.5597 17.1658 13.6177 17.2978 13.6177 17.4578C13.6177 17.6138 13.5597 17.7458 13.4437 17.8538C13.3317 17.9578 13.1877 18.0098 13.0117 18.0098ZM13.5217 18.3578V21.7058H12.4957V18.3578H13.5217ZM14.0613 20.0318C14.0613 19.6838 14.1313 19.3798 14.2713 19.1198C14.4153 18.8598 14.6133 18.6598 14.8653 18.5198C15.1213 18.3798 15.4133 18.3098 15.7413 18.3098C16.1613 18.3098 16.5113 18.4198 16.7913 18.6398C17.0753 18.8598 17.2613 19.1698 17.3493 19.5698H16.2573C16.1653 19.3138 15.9873 19.1858 15.7233 19.1858C15.5353 19.1858 15.3853 19.2598 15.2733 19.4078C15.1613 19.5518 15.1053 19.7598 15.1053 20.0318C15.1053 20.3038 15.1613 20.5138 15.2733 20.6618C15.3853 20.8058 15.5353 20.8778 15.7233 20.8778C15.9873 20.8778 16.1653 20.7498 16.2573 20.4938H17.3493C17.2613 20.8858 17.0753 21.1938 16.7913 21.4178C16.5073 21.6418 16.1573 21.7538 15.7413 21.7538C15.4133 21.7538 15.1213 21.6838 14.8653 21.5438C14.6133 21.4038 14.4153 21.2038 14.2713 20.9438C14.1313 20.6838 14.0613 20.3798 14.0613 20.0318ZM19.2601 21.7538C18.9681 21.7538 18.7081 21.7038 18.4801 21.6038C18.2521 21.5038 18.0721 21.3678 17.9401 21.1958C17.8081 21.0198 17.7341 20.8238 17.7181 20.6078H18.7321C18.7441 20.7238 18.7981 20.8178 18.8941 20.8898C18.9901 20.9618 19.1081 20.9978 19.2481 20.9978C19.3761 20.9978 19.4741 20.9738 19.5421 20.9258C19.6141 20.8738 19.6501 20.8078 19.6501 20.7278C19.6501 20.6318 19.6001 20.5618 19.5001 20.5178C19.4001 20.4698 19.2381 20.4178 19.0141 20.3618C18.7741 20.3058 18.5741 20.2478 18.4141 20.1878C18.2541 20.1238 18.1161 20.0258 18.0001 19.8938C17.8841 19.7578 17.8261 19.5758 17.8261 19.3478C17.8261 19.1558 17.8781 18.9818 17.9821 18.8258C18.0901 18.6658 18.2461 18.5398 18.4501 18.4478C18.6581 18.3558 18.9041 18.3098 19.1881 18.3098C19.6081 18.3098 19.9381 18.4138 20.1781 18.6218C20.4221 18.8298 20.5621 19.1058 20.5981 19.4498H19.6501C19.6341 19.3338 19.5821 19.2418 19.4941 19.1738C19.4101 19.1058 19.2981 19.0718 19.1581 19.0718C19.0381 19.0718 18.9461 19.0958 18.8821 19.1438C18.8181 19.1878 18.7861 19.2498 18.7861 19.3298C18.7861 19.4258 18.8361 19.4978 18.9361 19.5458C19.0401 19.5938 19.2001 19.6418 19.4161 19.6898C19.6641 19.7538 19.8661 19.8178 20.0221 19.8818C20.1781 19.9418 20.3141 20.0418 20.4301 20.1818C20.5501 20.3178 20.6121 20.5018 20.6161 20.7338C20.6161 20.9298 20.5601 21.1058 20.4481 21.2618C20.3401 21.4138 20.1821 21.5338 19.9741 21.6218C19.7701 21.7098 19.5321 21.7538 19.2601 21.7538Z" fill="#828282"/>
</g>
<defs>
<clipPath id="clip0_1307_101">
<rect width="25" height="30.8824" fill="white"/>
</clipPath>
</defs>
</svg>
