<svg width="25" height="20" viewBox="0 0 25 20" fill="none" xmlns="http://www.w3.org/2000/svg">
<path d="M18.75 17.4357H2.5V5.89653H5.74375C5.74375 5.89653 6.605 4.74774 8.45625 3.33226H1.25C0.918479 3.33226 0.600537 3.46735 0.366117 3.70779C0.131696 3.94824 0 4.27436 0 4.6144L0 18.7179C0 19.0579 0.131696 19.384 0.366117 19.6245C0.600537 19.8649 0.918479 20 1.25 20H20C20.3315 20 20.6495 19.8649 20.8839 19.6245C21.1183 19.384 21.25 19.0579 21.25 18.7179V13.915L18.75 16.0241V17.4357ZM16.7013 8.52491V13.0778L25 6.40939L16.7013 0V4.01436C6.625 4.01436 6.625 14.2304 6.625 14.2304C9.4775 9.42496 11.2325 8.52491 16.7013 8.52491Z" fill="#828282"/>
</svg>
