<svg width="23" height="29" viewBox="0 0 23 29" fill="none" xmlns="http://www.w3.org/2000/svg">
<g clip-path="url(#clip0_9060_1048)">
<g clip-path="url(#clip1_9060_1048)">
<g clip-path="url(#clip2_9060_1048)">
<mask id="mask0_9060_1048" style="mask-type:luminance" maskUnits="userSpaceOnUse" x="0" y="0" width="23" height="29">
<path d="M22.5806 0.5H0V28.3938H22.5806V0.5Z" fill="white"/>
</mask>
<g mask="url(#mask0_9060_1048)">
<path d="M19.7002 5.90512H9.99505C10.9843 6.49569 11.8369 7.28887 12.5051 8.22802H19.7002C20.0294 8.22802 20.2979 8.50091 20.2979 8.83594V19.9445C20.2979 20.2796 20.0295 20.5526 19.7002 20.5526H8.78049C8.45115 20.5526 8.18285 20.2796 8.18285 19.9445V12.5433C7.90709 12.399 7.6187 12.2773 7.32062 12.1834C7.14593 12.7309 6.76677 13.1975 6.24504 13.4764C6.13569 13.5348 6.01686 13.5702 5.89941 13.6089V19.9445C5.89941 21.5605 7.19196 22.8756 8.78044 22.8756H19.7002C21.2886 22.8756 22.5812 21.5605 22.5812 19.9445V8.83594C22.5812 7.22003 21.2887 5.90512 19.7002 5.90512Z" fill="white"/>
<path d="M5.90394 10.3935C8.25655 10.451 10.314 11.71 11.4973 13.5989C11.6058 13.7713 11.7917 13.871 11.9849 13.871C12.0377 13.871 12.0912 13.8636 12.1432 13.8485C12.3893 13.7766 12.5603 13.5497 12.5632 13.2896C12.5632 13.2662 12.5632 13.2426 12.5632 13.2194C12.5632 9.44226 9.59596 6.3761 5.9048 6.28608V5.18817C5.9048 4.93255 5.7658 4.69889 5.54432 4.57945C5.44548 4.52644 5.33691 4.5 5.22912 4.5C5.0946 4.5 4.96155 4.54096 4.84707 4.62027L0.263135 7.81199C0.098924 7.92621 0.000828189 8.11523 4.62108e-06 8.31784C-0.000773194 8.51975 0.0966822 8.70966 0.260207 8.82527L4.84337 12.0579C4.95857 12.1395 5.09314 12.1804 5.22834 12.1804C5.33609 12.1804 5.4432 12.1546 5.54207 12.1024C5.76421 11.9837 5.90394 11.7486 5.90394 11.4929V10.3935Z" fill="white"/>
<path d="M10.1905 19.2263C10.0279 19.2263 9.89421 19.1793 9.78944 19.0854C9.68828 18.9878 9.6377 18.8686 9.6377 18.7277C9.6377 18.5832 9.68828 18.4621 9.78944 18.3646C9.89421 18.267 10.0279 18.2183 10.1905 18.2183C10.3494 18.2183 10.4795 18.267 10.5807 18.3646C10.6854 18.4621 10.7378 18.5832 10.7378 18.7277C10.7378 18.8686 10.6854 18.9878 10.5807 19.0854C10.4795 19.1793 10.3494 19.2263 10.1905 19.2263ZM11.7524 15.8446C11.5898 15.8446 11.4562 15.7976 11.3514 15.7037C11.2502 15.6061 11.1996 15.4869 11.1996 15.346C11.1996 15.2015 11.2502 15.0823 11.3514 14.9883C11.4562 14.8908 11.5898 14.842 11.7524 14.842C11.9114 14.842 12.0415 14.8908 12.1426 14.9883C12.2474 15.0823 12.2998 15.2015 12.2998 15.346C12.2998 15.4869 12.2474 15.6061 12.1426 15.7037C12.0415 15.7976 11.9114 15.8446 11.7524 15.8446ZM12.2131 16.1589V19.1829H11.2864V16.1589H12.2131ZM12.7004 17.6709C12.7004 17.3566 12.7637 17.082 12.8901 16.8472C13.0202 16.6123 13.199 16.4317 13.4266 16.3052C13.6579 16.1788 13.9216 16.1156 14.2179 16.1156C14.5972 16.1156 14.9133 16.2149 15.1663 16.4136C15.4228 16.6123 15.5908 16.8923 15.6703 17.2536H14.6839C14.6008 17.0224 14.4401 16.9068 14.2016 16.9068C14.0318 16.9068 13.8963 16.9736 13.7952 17.1073C13.694 17.2374 13.6434 17.4252 13.6434 17.6709C13.6434 17.9166 13.694 18.1063 13.7952 18.2399C13.8963 18.37 14.0318 18.435 14.2016 18.435C14.4401 18.435 14.6008 18.3194 14.6839 18.0882H15.6703C15.5908 18.4423 15.4228 18.7205 15.1663 18.9228C14.9097 19.1251 14.5936 19.2263 14.2179 19.2263C13.9216 19.2263 13.6579 19.163 13.4266 19.0366C13.199 18.9101 13.0202 18.7295 12.8901 18.4947C12.7637 18.2598 12.7004 17.9852 12.7004 17.6709ZM17.3961 19.2263C17.1324 19.2263 16.8976 19.1811 16.6916 19.0908C16.4857 19.0005 16.3231 18.8776 16.2039 18.7223C16.0847 18.5633 16.0178 18.3863 16.0034 18.1912H16.9192C16.9301 18.2959 16.9788 18.3808 17.0656 18.4459C17.1523 18.5109 17.2588 18.5434 17.3853 18.5434C17.5009 18.5434 17.5894 18.5218 17.6508 18.4784C17.7159 18.4314 17.7484 18.3718 17.7484 18.2996C17.7484 18.2129 17.7032 18.1496 17.6129 18.1099C17.5226 18.0665 17.3763 18.0196 17.1739 17.969C16.9572 17.9184 16.7765 17.866 16.632 17.8118C16.4875 17.754 16.3628 17.6655 16.2581 17.5463C16.1533 17.4234 16.1009 17.259 16.1009 17.0531C16.1009 16.8797 16.1479 16.7225 16.2418 16.5816C16.3394 16.4371 16.4803 16.3233 16.6645 16.2402C16.8524 16.1571 17.0746 16.1156 17.3311 16.1156C17.7105 16.1156 18.0085 16.2095 18.2253 16.3974C18.4457 16.5852 18.5721 16.8345 18.6047 17.1452H17.7484C17.7339 17.0405 17.687 16.9574 17.6075 16.8959C17.5316 16.8345 17.4305 16.8038 17.304 16.8038C17.1956 16.8038 17.1125 16.8255 17.0547 16.8689C16.9969 16.9086 16.968 16.9646 16.968 17.0368C16.968 17.1236 17.0132 17.1886 17.1035 17.2319C17.1974 17.2753 17.3419 17.3187 17.537 17.362C17.761 17.4198 17.9435 17.4776 18.0844 17.5354C18.2253 17.5896 18.3481 17.6799 18.4529 17.8064C18.5613 17.9292 18.6173 18.0954 18.6209 18.305C18.6209 18.482 18.5703 18.641 18.4692 18.7819C18.3716 18.9192 18.2289 19.0276 18.041 19.107C17.8568 19.1865 17.6418 19.2263 17.3961 19.2263Z" fill="white"/>
</g>
</g>
</g>
</g>
<defs>
<clipPath id="clip0_9060_1048">
<rect width="22.5806" height="28" fill="white" transform="translate(0 0.5)"/>
</clipPath>
<clipPath id="clip1_9060_1048">
<rect width="22.5806" height="28" fill="white" transform="translate(0 0.5)"/>
</clipPath>
<clipPath id="clip2_9060_1048">
<rect width="22.5806" height="28" fill="white" transform="translate(0 0.5)"/>
</clipPath>
</defs>
</svg>
