<svg width="36" height="37" viewBox="0 0 36 37" fill="none" xmlns="http://www.w3.org/2000/svg">
<path d="M14.6633 10.1667C12.2768 10.1667 10.1593 11.8454 9.68391 14.1487C9.59106 14.5987 9.88446 15.0451 10.3357 15.1378C10.7869 15.2304 11.2335 14.9371 11.3263 14.4871C11.6428 12.9535 13.0725 11.8324 14.6633 11.8324C15.124 11.8324 15.4975 11.459 15.4975 10.9995C15.4975 10.54 15.124 10.1667 14.6633 10.1667ZM21.3371 10.1667C20.8764 10.1667 20.5029 10.5395 20.5029 10.9995C20.5029 11.4595 20.8764 11.8324 21.3371 11.8324C22.9297 11.8324 24.3595 12.9494 24.674 14.4871C24.7662 14.9377 25.2133 15.2297 25.6647 15.1378C26.1161 15.0457 26.4086 14.5994 26.3165 14.1487C25.844 11.8393 23.7264 10.1667 21.3371 10.1667ZM18.0002 11.8324C13.8536 11.8324 10.4921 15.1882 10.4921 19.328C10.4921 21.0858 11.1196 22.7345 12.1345 24.0128L10.7528 25.3921C10.427 25.7174 10.427 26.2641 10.7528 26.5894C11.0786 26.9146 11.6001 26.9146 11.926 26.5894L13.3076 25.1839C14.588 26.1971 16.2395 26.8236 18.0002 26.8236C19.7609 26.8236 21.4124 26.1971 22.6927 25.1839L24.1005 26.5894C24.4263 26.9146 24.9478 26.8886 25.2737 26.5633C25.5994 26.2381 25.5733 25.7174 25.2476 25.3921L23.8658 23.9868C24.8657 22.7766 25.5083 21.0858 25.5083 19.328C25.5083 15.1882 22.1468 11.8324 18.0002 11.8324ZM18.0002 15.1637C18.4609 15.1637 18.8344 15.5366 18.8344 15.9966V19.328C18.8344 19.788 18.4609 20.1608 18.0002 20.1608H14.6633C14.2025 20.1608 13.829 19.788 13.829 19.328C13.829 18.868 14.2025 18.4951 14.6633 18.4951H17.166V15.9966C17.166 15.5366 17.5394 15.1637 18.0002 15.1637Z" fill="#5038BC"/>
<rect x="1" y="1.5" width="34" height="34" rx="7" stroke="#E1E5FE" stroke-width="2"/>
</svg>
