<svg width="32" height="32" viewBox="0 0 32 32" fill="none" xmlns="http://www.w3.org/2000/svg">
<path d="M2.45783 15.5336C2.45727 16.314 2.61093 17.0868 2.90996 17.8076C3.20899 18.5285 3.64752 19.1831 4.20033 19.7339C4.7513 20.2868 5.40606 20.7254 6.12702 21.0246C6.84797 21.3238 7.62092 21.4776 8.40148 21.4772L13.1566 21.4764L13.1566 19.0993L8.40148 19.1001C7.45623 19.098 6.5503 18.7216 5.88191 18.0532C5.21351 17.3848 4.83707 16.4788 4.83496 15.5336C4.83645 14.5882 5.21268 13.6819 5.88121 13.0133C6.54974 12.3448 7.45604 11.9686 8.40148 11.9671L13.1566 11.9679L13.1566 9.59079L8.40148 9.58995C6.82571 9.59185 5.31503 10.2187 4.20079 11.3329C3.08655 12.4471 2.45973 13.9578 2.45783 15.5336ZM22.6659 21.4772C24.2415 21.4747 25.7518 20.8477 26.8659 19.7336C27.98 18.6195 28.607 17.1092 28.6096 15.5336C28.6076 13.9578 27.9808 12.4471 26.8666 11.3329C25.7524 10.2187 24.2417 9.59185 22.6659 9.58995L17.9108 9.59079L17.9108 11.9679L22.6659 11.9671C23.6112 11.9692 24.5171 12.3456 25.1855 13.014C25.8539 13.6824 26.2303 14.5883 26.2324 15.5336C26.2309 16.479 25.8547 17.3853 25.1862 18.0539C24.5176 18.7224 23.6113 19.0986 22.6659 19.1001L17.9108 19.0993L17.9108 21.4764L22.6659 21.4772Z" fill="#917DEC"/>
<path d="M8.40099 16.7218L8.40015 14.3439L22.6671 14.3447L22.6663 16.7227L8.40099 16.7218Z" fill="#917DEC"/>
</svg>
