<svg width="224" height="218" viewBox="0 0 224 218" fill="none" xmlns="http://www.w3.org/2000/svg">
<g clip-path="url(#clip0_111_1468)">
<path d="M141.78 49.0274H81.602C80.2307 49.0291 78.916 49.5746 77.9463 50.5443C76.9766 51.514 76.4311 52.8287 76.4294 54.2001V187.947L75.7397 188.157L60.977 192.678C60.2774 192.892 59.5217 192.819 58.8758 192.475C58.23 192.132 57.7467 191.546 57.5322 190.847L13.6199 47.4101C13.4062 46.7105 13.479 45.9546 13.8224 45.3086C14.1657 44.6626 14.7515 44.1794 15.451 43.9652L38.2003 36.9993L104.151 16.8123L126.9 9.8465C127.247 9.73995 127.61 9.70271 127.971 9.73693C128.332 9.77114 128.682 9.87614 129.002 10.0459C129.322 10.2157 129.605 10.4468 129.836 10.7262C130.066 11.0056 130.24 11.3278 130.345 11.6742L141.57 48.3377L141.78 49.0274Z" fill="#F2F2F2"/>
<path d="M154.912 48.3377L141.384 4.14965C141.159 3.41339 140.791 2.7287 140.301 2.1347C139.811 1.5407 139.209 1.04904 138.529 0.687805C137.849 0.326569 137.105 0.102837 136.339 0.0294032C135.572 -0.0440304 134.799 0.034273 134.063 0.259831L102.079 10.0499L36.1313 30.2404L4.14723 40.0339C2.66142 40.4901 1.41733 41.5173 0.688037 42.8898C-0.0412554 44.2624 -0.196167 45.8682 0.257311 47.3549L46.4937 198.371C46.8621 199.572 47.6054 200.622 48.6146 201.369C49.6238 202.115 50.8456 202.519 52.101 202.52C52.682 202.52 53.2597 202.433 53.8147 202.261L75.7398 195.551L76.4295 195.337V194.616L75.7398 194.827L53.6113 201.603C52.2998 202.002 50.8833 201.866 49.6725 201.223C48.4616 200.579 47.5554 199.482 47.1524 198.171L0.919549 47.1514C0.719916 46.5021 0.650339 45.8197 0.714799 45.1434C0.779259 44.4671 0.976484 43.8102 1.29519 43.2102C1.6139 42.6103 2.04784 42.0791 2.57213 41.647C3.09643 41.215 3.70079 40.8907 4.35062 40.6925L36.3347 30.899L102.282 10.712L134.266 0.918486C134.759 0.768065 135.272 0.691369 135.787 0.690889C136.893 0.693372 137.969 1.04992 138.858 1.70832C139.746 2.36671 140.401 3.29235 140.725 4.34966L154.191 48.3377L154.405 49.0274H155.122L154.912 48.3377Z" fill="#3F3D56"/>
<path d="M42.3055 44.078C41.6409 44.0776 40.9939 43.8641 40.4594 43.469C39.925 43.0738 39.5313 42.5178 39.336 41.8825L34.8943 27.3744C34.7749 26.9847 34.7335 26.5753 34.7724 26.1696C34.8113 25.7639 34.9297 25.3698 35.1209 25.0098C35.3121 24.6499 35.5724 24.3312 35.8868 24.0718C36.2012 23.8125 36.5637 23.6176 36.9534 23.4983L97.6245 4.92384C98.4116 4.68367 99.2618 4.76558 99.9885 5.15159C100.715 5.53761 101.259 6.19619 101.501 6.98279L105.943 21.4911C106.183 22.2781 106.101 23.1283 105.715 23.8549C105.329 24.5816 104.67 25.1255 103.884 25.3673L43.2122 43.9418C42.9184 44.032 42.6129 44.0779 42.3055 44.078Z" fill="#6C63FF"/>
<path d="M65.5729 15.5022C69.3819 15.5022 72.4697 12.4144 72.4697 8.60533C72.4697 4.79632 69.3819 1.7085 65.5729 1.7085C61.7638 1.7085 58.676 4.79632 58.676 8.60533C58.676 12.4144 61.7638 15.5022 65.5729 15.5022Z" fill="#6C63FF"/>
<path d="M65.5729 12.9726C67.9848 12.9726 69.9401 11.0173 69.9401 8.60533C69.9401 6.19334 67.9848 4.23804 65.5729 4.23804C63.1609 4.23804 61.2056 6.19334 61.2056 8.60533C61.2056 11.0173 63.1609 12.9726 65.5729 12.9726Z" fill="white"/>
<path d="M207.814 200.758H91.2578C90.4806 200.757 89.7356 200.448 89.1861 199.898C88.6366 199.349 88.3275 198.604 88.3266 197.827V58.1658C88.3275 57.3887 88.6366 56.6436 89.1861 56.0941C89.7356 55.5446 90.4806 55.2355 91.2578 55.2346H207.814C208.591 55.2355 209.336 55.5446 209.886 56.0941C210.435 56.6436 210.745 57.3887 210.745 58.1658V197.827C210.745 198.604 210.435 199.349 209.886 199.898C209.336 200.448 208.591 200.757 207.814 200.758Z" fill="#E6E6E6"/>
<path d="M154.191 48.3379H81.6021C80.048 48.3401 78.5581 48.9584 77.4592 50.0574C76.3603 51.1563 75.7419 52.6461 75.7397 54.2002V194.827L76.4294 194.616V54.2002C76.4311 52.8288 76.9766 51.5141 77.9463 50.5444C78.916 49.5748 80.2307 49.0292 81.6021 49.0276H154.405L154.191 48.3379ZM217.47 48.3379H81.6021C80.048 48.3401 78.5581 48.9584 77.4592 50.0574C76.3603 51.1563 75.7419 52.6461 75.7397 54.2002V212.138C75.7419 213.692 76.3603 215.182 77.4592 216.281C78.5581 217.38 80.048 217.998 81.6021 218H217.47C219.024 217.998 220.514 217.38 221.613 216.281C222.712 215.182 223.33 213.692 223.332 212.138V54.2002C223.33 52.6461 222.712 51.1563 221.613 50.0574C220.514 48.9584 219.024 48.3401 217.47 48.3379ZM222.642 212.138C222.641 213.509 222.095 214.824 221.126 215.794C220.156 216.763 218.841 217.309 217.47 217.31H81.6021C80.2307 217.309 78.916 216.763 77.9463 215.794C76.9766 214.824 76.4311 213.509 76.4294 212.138V54.2002C76.4311 52.8288 76.9766 51.5141 77.9463 50.5444C78.916 49.5748 80.2307 49.0292 81.6021 49.0276H217.47C218.841 49.0292 220.156 49.5748 221.126 50.5444C222.095 51.5141 222.641 52.8288 222.642 54.2002V212.138Z" fill="#3F3D56"/>
<path d="M181.261 63.5108H117.811C116.988 63.5099 116.199 63.1826 115.617 62.6008C115.035 62.0189 114.708 61.2301 114.707 60.4072V45.2342C114.708 44.4114 115.035 43.6225 115.617 43.0407C116.199 42.4588 116.988 42.1315 117.811 42.1306H181.261C182.084 42.1315 182.873 42.4588 183.455 43.0407C184.037 43.6225 184.364 44.4114 184.365 45.2342V60.4072C184.364 61.2301 184.037 62.0189 183.455 62.6008C182.873 63.1826 182.084 63.5099 181.261 63.5108Z" fill="#6C63FF"/>
<path d="M149.536 43.1653C153.345 43.1653 156.433 40.0774 156.433 36.2684C156.433 32.4594 153.345 29.3716 149.536 29.3716C145.727 29.3716 142.639 32.4594 142.639 36.2684C142.639 40.0774 145.727 43.1653 149.536 43.1653Z" fill="#6C63FF"/>
<path d="M149.536 40.4693C151.856 40.4693 153.737 38.5885 153.737 36.2684C153.737 33.9484 151.856 32.0676 149.536 32.0676C147.216 32.0676 145.335 33.9484 145.335 36.2684C145.335 38.5885 147.216 40.4693 149.536 40.4693Z" fill="white"/>
</g>
<path d="M147.857 97.583C128.047 97.3615 111.805 113.245 111.583 133.055C111.362 152.865 127.245 169.107 147.055 169.329C166.865 169.55 183.107 153.667 183.329 133.857C183.55 114.047 167.667 97.8046 147.857 97.583ZM147.223 154.275C145.453 154.255 144.036 152.806 144.056 151.036C144.076 149.266 145.525 147.849 147.295 147.869C149.064 147.889 150.482 149.338 150.462 151.108C150.442 152.877 148.993 154.295 147.223 154.275ZM152.456 136.755C151.728 137.027 151.099 137.512 150.65 138.147C150.201 138.782 149.955 139.537 149.942 140.315L149.922 142.132C149.918 142.485 149.626 142.77 149.274 142.766L145.43 142.723C145.078 142.719 144.793 142.427 144.797 142.075L144.816 140.353C144.837 138.504 145.394 136.684 146.468 135.175C147.517 133.697 148.971 132.576 150.676 131.946C153.41 130.928 155.197 128.665 155.225 126.175C155.265 122.644 151.846 119.731 147.61 119.683C143.374 119.636 139.891 122.472 139.851 126.003L139.844 126.612C139.841 126.964 139.549 127.249 139.197 127.245L135.353 127.202C135.001 127.198 134.716 126.907 134.72 126.554L134.727 125.946C134.762 122.799 136.172 119.876 138.695 117.718C141.12 115.639 144.304 114.521 147.667 114.559C151.03 114.596 154.188 115.793 156.567 117.917C159.041 120.131 160.385 123.085 160.35 126.232C160.298 130.861 157.201 134.99 152.456 136.755Z" fill="#AC9AFF" fill-opacity="0.8"/>
<defs>
<clipPath id="clip0_111_1468">
<rect width="223.332" height="218" fill="white"/>
</clipPath>
</defs>
</svg>
