<svg width="224" height="218" viewBox="0 0 224 218" fill="none" xmlns="http://www.w3.org/2000/svg">
<g clip-path="url(#clip0_416_7707)">
<path d="M142.204 49.0274H81.8461C80.4707 49.0291 79.152 49.5746 78.1794 50.5443C77.2068 51.514 76.6597 52.8287 76.658 54.2001V187.947L75.9663 188.157L61.1594 192.678C60.4577 192.892 59.6997 192.819 59.0519 192.475C58.4041 192.132 57.9195 191.546 57.7043 190.847L13.6607 47.4101C13.4463 46.7105 13.5194 45.9546 13.8638 45.3086C14.2081 44.6626 14.7957 44.1794 15.4973 43.9652L38.3146 36.9993L104.463 16.8123L127.28 9.8465C127.627 9.73995 127.992 9.70271 128.354 9.73693C128.716 9.77114 129.067 9.87614 129.388 10.0459C129.709 10.2157 129.993 10.4468 130.224 10.7262C130.455 11.0056 130.629 11.3278 130.735 11.6742L141.993 48.3377L142.204 49.0274Z" fill="#F2F2F2" fill-opacity="0.9"/>
<path d="M155.375 48.3379L141.807 4.14989C141.581 3.41364 141.212 2.72895 140.721 2.13495C140.229 1.54095 139.626 1.04929 138.944 0.688049C138.262 0.326813 137.515 0.103081 136.746 0.0296474C135.978 -0.0437863 135.202 0.0345172 134.464 0.260075L102.384 10.0501L36.2394 30.2406L4.15963 40.0341C2.66937 40.4904 1.42156 41.5175 0.690089 42.8901C-0.0413848 44.2626 -0.19676 45.8685 0.258074 47.3551L46.6328 198.372C47.0023 199.572 47.7478 200.622 48.76 201.369C49.7722 202.115 50.9977 202.519 52.2568 202.52C52.8395 202.52 53.419 202.433 53.9757 202.262L75.9663 195.551L76.6581 195.337V194.616L75.9663 194.827L53.7717 201.603C52.4562 202.003 51.0355 201.866 49.821 201.223C48.6066 200.58 47.6976 199.482 47.2935 198.172L0.922293 47.1517C0.722063 46.5023 0.652278 45.8199 0.716931 45.1437C0.781583 44.4674 0.979398 43.8104 1.29906 43.2105C1.61872 42.6105 2.05396 42.0793 2.57982 41.6473C3.10568 41.2153 3.71186 40.8909 4.36363 40.6928L36.4434 30.8993L102.588 10.7122L134.668 0.91873C135.162 0.768309 135.676 0.691613 136.193 0.691133C137.302 0.693616 138.382 1.05017 139.273 1.70856C140.164 2.36696 140.821 3.2926 141.146 4.34991L154.652 48.3379L154.867 49.0276H155.586L155.375 48.3379Z" fill="white"/>
<path d="M42.432 44.078C41.7654 44.0776 41.1165 43.8641 40.5804 43.469C40.0444 43.0738 39.6495 42.5178 39.4536 41.8825L34.9986 27.3744C34.8789 26.9847 34.8374 26.5753 34.8764 26.1696C34.9154 25.7639 35.0342 25.3698 35.226 25.0098C35.4177 24.6499 35.6788 24.3312 35.9941 24.0718C36.3095 23.8125 36.673 23.6176 37.0639 23.4983L97.9165 4.92384C98.7059 4.68367 99.5586 4.76558 100.288 5.15159C101.016 5.53761 101.562 6.19619 101.804 6.98279L106.259 21.4911C106.5 22.2781 106.418 23.1283 106.031 23.8549C105.644 24.5816 104.983 25.1255 104.194 25.3673L43.3415 43.9418C43.0468 44.032 42.7403 44.0779 42.432 44.078Z" fill="#5038BC"/>
<path d="M65.769 15.5022C69.5894 15.5022 72.6865 12.4144 72.6865 8.60533C72.6865 4.79632 69.5894 1.7085 65.769 1.7085C61.9486 1.7085 58.8516 4.79632 58.8516 8.60533C58.8516 12.4144 61.9486 15.5022 65.769 15.5022Z" fill="#5038BC"/>
<path d="M65.769 12.9726C68.1882 12.9726 70.1494 11.0173 70.1494 8.60533C70.1494 6.19334 68.1882 4.23804 65.769 4.23804C63.3498 4.23804 61.3887 6.19334 61.3887 8.60533C61.3887 11.0173 63.3498 12.9726 65.769 12.9726Z" fill="white" fill-opacity="0.9"/>
<path d="M208.436 200.758H91.5307C90.7512 200.757 90.004 200.448 89.4528 199.898C88.9017 199.349 88.5917 198.604 88.5908 197.827V58.1658C88.5916 57.3887 88.9016 56.6436 89.4528 56.0941C90.004 55.5446 90.7512 55.2355 91.5307 55.2346H208.436C209.215 55.2355 209.963 55.5446 210.514 56.0941C211.065 56.6436 211.375 57.3887 211.376 58.1658V197.827C211.375 198.604 211.065 199.349 210.514 199.898C209.962 200.448 209.215 200.757 208.436 200.758Z" fill="white" fill-opacity="0.9"/>
<path d="M154.652 48.3379H81.8462C80.2874 48.3401 78.7931 48.9584 77.6909 50.0574C76.5887 51.1563 75.9685 52.6461 75.9663 54.2002V194.827L76.6581 194.616V54.2002C76.6597 52.8288 77.2069 51.5141 78.1795 50.5444C79.1521 49.5748 80.4707 49.0292 81.8462 49.0276H154.867L154.652 48.3379ZM218.12 48.3379H81.8462C80.2874 48.3401 78.7931 48.9584 77.6909 50.0574C76.5887 51.1563 75.9685 52.6461 75.9663 54.2002V212.138C75.9685 213.692 76.5887 215.182 77.6909 216.281C78.7931 217.38 80.2874 217.998 81.8462 218H218.12C219.679 217.998 221.173 217.38 222.275 216.281C223.378 215.182 223.998 213.692 224 212.138V54.2002C223.998 52.6461 223.378 51.1563 222.275 50.0574C221.173 48.9584 219.679 48.3401 218.12 48.3379ZM223.308 212.138C223.307 213.509 222.759 214.824 221.787 215.794C220.814 216.763 219.496 217.309 218.12 217.31H81.8462C80.4707 217.309 79.1521 216.763 78.1795 215.794C77.2069 214.824 76.6597 213.509 76.6581 212.138V54.2002C76.6597 52.8288 77.2069 51.5141 78.1795 50.5444C79.1521 49.5748 80.4707 49.0292 81.8462 49.0276H218.12C219.496 49.0292 220.814 49.5748 221.787 50.5444C222.759 51.5141 223.307 52.8288 223.308 54.2002V212.138Z" fill="white"/>
<path d="M181.804 63.5108H118.163C117.338 63.5099 116.546 63.1826 115.963 62.6008C115.379 62.0189 115.051 61.2301 115.05 60.4072V45.2342C115.051 44.4114 115.379 43.6225 115.963 43.0407C116.546 42.4588 117.338 42.1315 118.163 42.1306H181.804C182.629 42.1315 183.42 42.4588 184.004 43.0407C184.587 43.6225 184.915 44.4114 184.916 45.2342V60.4072C184.916 61.2301 184.587 62.0189 184.004 62.6008C183.42 63.1826 182.629 63.5099 181.804 63.5108Z" fill="#5038BC"/>
<path d="M149.983 43.1653C153.804 43.1653 156.901 40.0774 156.901 36.2684C156.901 32.4594 153.804 29.3716 149.983 29.3716C146.163 29.3716 143.066 32.4594 143.066 36.2684C143.066 40.0774 146.163 43.1653 149.983 43.1653Z" fill="#5038BC"/>
<path d="M149.983 40.4693C152.31 40.4693 154.197 38.5885 154.197 36.2684C154.197 33.9484 152.31 32.0676 149.983 32.0676C147.656 32.0676 145.77 33.9484 145.77 36.2684C145.77 38.5885 147.656 40.4693 149.983 40.4693Z" fill="white" fill-opacity="0.9"/>
<path d="M150.401 97.1272C130.591 96.9057 114.349 112.789 114.127 132.599C113.906 152.409 129.789 168.651 149.599 168.873C169.409 169.094 185.651 153.211 185.873 133.401C186.094 113.591 170.211 97.3488 150.401 97.1272ZM149.767 153.819C147.998 153.799 146.58 152.35 146.6 150.58C146.62 148.811 148.069 147.393 149.839 147.413C151.608 147.433 153.026 148.882 153.006 150.652C152.986 152.422 151.537 153.839 149.767 153.819ZM155 136.299C154.272 136.571 153.643 137.056 153.194 137.691C152.746 138.326 152.499 139.082 152.486 139.859L152.466 141.677C152.462 142.029 152.17 142.314 151.818 142.31L147.974 142.267C147.622 142.263 147.337 141.972 147.341 141.619L147.36 139.898C147.381 138.048 147.938 136.228 149.012 134.719C150.061 133.241 151.515 132.12 153.22 131.49C155.954 130.472 157.742 128.209 157.769 125.719C157.809 122.188 154.39 119.275 150.154 119.227C145.918 119.18 142.435 122.016 142.395 125.547L142.389 126.156C142.385 126.508 142.093 126.793 141.741 126.789L137.897 126.746C137.545 126.742 137.26 126.451 137.264 126.099L137.271 125.49C137.306 122.343 138.716 119.42 141.239 117.262C143.664 115.183 146.848 114.065 150.211 114.103C153.574 114.14 156.732 115.337 159.111 117.462C161.585 119.676 162.929 122.63 162.894 125.777C162.842 130.405 159.745 134.534 155 136.299Z" fill="#AC9AFF" fill-opacity="0.6"/>
</g>
<defs>
<clipPath id="clip0_416_7707">
<rect width="224" height="218" fill="white"/>
</clipPath>
</defs>
</svg>
