<svg width="208" height="46" viewBox="0 0 208 46" fill="none" xmlns="http://www.w3.org/2000/svg">
<rect x="0.15152" y="7.08978" width="7.08969" height="38.661" fill="#F2994A"/>
<path d="M22.75 0L29.8397 7.08969L0.151598 7.08969L7.24129 -1.29771e-06L22.75 0Z" fill="#F2994A"/>
<path d="M6.24353 24.5925L9.78838 17.5028L29.8389 17.5028L22.7492 24.5925L6.24353 24.5925Z" fill="#F2994A"/>
<mask id="mask0" mask-type="alpha" maskUnits="userSpaceOnUse" x="0" y="7" width="8" height="29">
<rect opacity="0.45" x="0.15152" y="7.08978" width="7.08969" height="28.3588" fill="#B9B9B9"/>
</mask>
<g mask="url(#mask0)">
<ellipse opacity="0.5" cx="6.29785" cy="7.10513" rx="7.83821" ry="4.5112" fill="url(#paint0_radial)"/>
<ellipse opacity="0.5" cx="10.4538" cy="24.5925" rx="7.31125" ry="4.87416" fill="url(#paint1_radial)"/>
</g>
<mask id="mask1" mask-type="alpha" maskUnits="userSpaceOnUse" x="7" y="0" width="16" height="8">
<rect opacity="0.45" x="22.7499" width="7.08969" height="15.5087" transform="rotate(90 22.7499 0)" fill="#B9B9B9"/>
</mask>
<g mask="url(#mask1)">
<ellipse opacity="0.5" cx="23.0828" cy="5.87113" rx="6.97892" ry="4.54183" transform="rotate(90 23.0828 5.87113)" fill="url(#paint2_radial)"/>
</g>
<path d="M22.7499 0L29.8396 7.08969V17.5027H22.7499V0Z" fill="#F2994A"/>
<mask id="mask2" mask-type="alpha" maskUnits="userSpaceOnUse" x="22" y="7" width="8" height="11">
<rect opacity="0.45" x="29.8397" y="17.5026" width="7.08969" height="9.74833" transform="rotate(-180 29.8397 17.5026)" fill="#B9B9B9"/>
</mask>
<g mask="url(#mask2)">
<ellipse opacity="0.5" cx="23.9686" cy="18.1673" rx="6.97892" ry="4.54183" transform="rotate(-180 23.9686 18.1673)" fill="url(#paint3_radial)"/>
</g>
<mask id="mask3" mask-type="alpha" maskUnits="userSpaceOnUse" x="9" y="17" width="11" height="8">
<rect opacity="0.45" width="7.08969" height="9.74833" transform="matrix(-4.37114e-08 1 1 4.37114e-08 9.89996 17.5026)" fill="#B9B9B9"/>
</mask>
<g mask="url(#mask3)">
<ellipse opacity="0.7" rx="12.7561" ry="4.54183" transform="matrix(0.639745 0.768587 0.768587 -0.639745 11.2293 23.159)" fill="url(#paint4_radial)"/>
</g>
<path d="M6.24482 24.5922L9.78967 17.5025L29.7848 41.0425L24.4122 45.6951L6.24482 24.5922Z" fill="#F2994A"/>
<path d="M43.3035 7.672H47.6875C48.2635 7.672 48.8075 7.73067 49.3195 7.848C49.8422 7.95467 50.2955 8.14133 50.6795 8.408C51.0742 8.664 51.3835 9.016 51.6075 9.464C51.8422 9.90133 51.9595 10.4507 51.9595 11.112C51.9595 11.912 51.7515 12.5947 51.3355 13.16C50.9195 13.7147 50.3115 14.0667 49.5115 14.216L52.3915 19H49.3995L47.0315 14.472H45.7995V19H43.3035V7.672ZM45.7995 12.36H47.2715C47.4955 12.36 47.7302 12.3547 47.9755 12.344C48.2315 12.3227 48.4609 12.2747 48.6635 12.2C48.8662 12.1147 49.0315 11.9867 49.1595 11.816C49.2982 11.6453 49.3675 11.4053 49.3675 11.096C49.3675 10.808 49.3089 10.5787 49.1915 10.408C49.0742 10.2373 48.9249 10.1093 48.7435 10.024C48.5622 9.928 48.3542 9.864 48.1195 9.832C47.8849 9.8 47.6555 9.784 47.4315 9.784H45.7995V12.36ZM53.6465 7.672H56.1425V19H53.6465V7.672ZM64.0129 10.44C63.8102 10.184 63.5329 9.99733 63.1809 9.88C62.8396 9.752 62.5142 9.688 62.2049 9.688C62.0236 9.688 61.8369 9.70933 61.6449 9.752C61.4529 9.79467 61.2716 9.864 61.1009 9.96C60.9302 10.0453 60.7916 10.1627 60.6849 10.312C60.5782 10.4613 60.5249 10.6427 60.5249 10.856C60.5249 11.1973 60.6529 11.4587 60.9089 11.64C61.1649 11.8213 61.4849 11.976 61.8689 12.104C62.2636 12.232 62.6849 12.36 63.1329 12.488C63.5809 12.616 63.9969 12.7973 64.3809 13.032C64.7756 13.2667 65.1009 13.5813 65.3569 13.976C65.6129 14.3707 65.7409 14.8987 65.7409 15.56C65.7409 16.1893 65.6236 16.7387 65.3889 17.208C65.1542 17.6773 64.8342 18.0667 64.4289 18.376C64.0342 18.6853 63.5702 18.9147 63.0369 19.064C62.5142 19.2133 61.9596 19.288 61.3729 19.288C60.6369 19.288 59.9542 19.176 59.3249 18.952C58.6956 18.728 58.1089 18.3653 57.5649 17.864L59.3409 15.912C59.5969 16.2533 59.9169 16.52 60.3009 16.712C60.6956 16.8933 61.1009 16.984 61.5169 16.984C61.7196 16.984 61.9222 16.9627 62.1249 16.92C62.3382 16.8667 62.5249 16.792 62.6849 16.696C62.8556 16.6 62.9889 16.4773 63.0849 16.328C63.1916 16.1787 63.2449 16.0027 63.2449 15.8C63.2449 15.4587 63.1116 15.192 62.8449 15C62.5889 14.7973 62.2636 14.6267 61.8689 14.488C61.4742 14.3493 61.0476 14.2107 60.5889 14.072C60.1302 13.9333 59.7036 13.7467 59.3089 13.512C58.9142 13.2773 58.5836 12.968 58.3169 12.584C58.0609 12.2 57.9329 11.6933 57.9329 11.064C57.9329 10.456 58.0502 9.92267 58.2849 9.464C58.5302 9.00533 58.8502 8.62133 59.2449 8.312C59.6502 8.00267 60.1142 7.77333 60.6369 7.624C61.1596 7.464 61.6982 7.384 62.2529 7.384C62.8929 7.384 63.5116 7.47467 64.1089 7.656C64.7062 7.83733 65.2449 8.14133 65.7249 8.568L64.0129 10.44ZM69.7924 9.88H66.5604V7.672H75.5204V9.88H72.2884V19H69.7924V9.88ZM76.8839 7.672H84.5799V9.976H79.3799V12.088H84.2919V14.392H79.3799V16.696H84.8679V19H76.8839V7.672ZM86.962 7.672H89.458V12.376L93.858 7.672H97.122L92.082 12.936L97.554 19H94.066L89.458 13.624V19H86.962V7.672ZM103.243 7.672H110.843V9.976H105.739V12.28H110.459V14.584H105.739V19H103.243V7.672ZM115.485 7.672H117.549L122.477 19H119.661L118.685 16.6H114.285L113.341 19H110.589L115.485 7.672ZM116.445 10.968L115.069 14.488H117.837L116.445 10.968ZM129.216 10.44C129.013 10.184 128.736 9.99733 128.384 9.88C128.043 9.752 127.717 9.688 127.408 9.688C127.227 9.688 127.04 9.70933 126.848 9.752C126.656 9.79467 126.475 9.864 126.304 9.96C126.133 10.0453 125.995 10.1627 125.888 10.312C125.781 10.4613 125.728 10.6427 125.728 10.856C125.728 11.1973 125.856 11.4587 126.112 11.64C126.368 11.8213 126.688 11.976 127.072 12.104C127.467 12.232 127.888 12.36 128.336 12.488C128.784 12.616 129.2 12.7973 129.584 13.032C129.979 13.2667 130.304 13.5813 130.56 13.976C130.816 14.3707 130.944 14.8987 130.944 15.56C130.944 16.1893 130.827 16.7387 130.592 17.208C130.357 17.6773 130.037 18.0667 129.632 18.376C129.237 18.6853 128.773 18.9147 128.24 19.064C127.717 19.2133 127.163 19.288 126.576 19.288C125.84 19.288 125.157 19.176 124.528 18.952C123.899 18.728 123.312 18.3653 122.768 17.864L124.544 15.912C124.8 16.2533 125.12 16.52 125.504 16.712C125.899 16.8933 126.304 16.984 126.72 16.984C126.923 16.984 127.125 16.9627 127.328 16.92C127.541 16.8667 127.728 16.792 127.888 16.696C128.059 16.6 128.192 16.4773 128.288 16.328C128.395 16.1787 128.448 16.0027 128.448 15.8C128.448 15.4587 128.315 15.192 128.048 15C127.792 14.7973 127.467 14.6267 127.072 14.488C126.677 14.3493 126.251 14.2107 125.792 14.072C125.333 13.9333 124.907 13.7467 124.512 13.512C124.117 13.2773 123.787 12.968 123.52 12.584C123.264 12.2 123.136 11.6933 123.136 11.064C123.136 10.456 123.253 9.92267 123.488 9.464C123.733 9.00533 124.053 8.62133 124.448 8.312C124.853 8.00267 125.317 7.77333 125.84 7.624C126.363 7.464 126.901 7.384 127.456 7.384C128.096 7.384 128.715 7.47467 129.312 7.656C129.909 7.83733 130.448 8.14133 130.928 8.568L129.216 10.44ZM132.772 7.672H135.268V19H132.772V7.672ZM137.634 7.672H140.13V16.696H144.754V19H137.634V7.672ZM146.228 7.672H148.724V12.376L153.124 7.672H156.388L151.348 12.936L156.82 19H153.332L148.724 13.624V19H146.228V7.672ZM157.071 13.336C157.071 12.4293 157.22 11.608 157.519 10.872C157.828 10.136 158.255 9.512 158.799 9C159.343 8.47733 159.988 8.07733 160.735 7.8C161.481 7.52267 162.297 7.384 163.183 7.384C164.068 7.384 164.884 7.52267 165.631 7.8C166.377 8.07733 167.023 8.47733 167.567 9C168.111 9.512 168.532 10.136 168.831 10.872C169.14 11.608 169.295 12.4293 169.295 13.336C169.295 14.2427 169.14 15.064 168.831 15.8C168.532 16.536 168.111 17.1653 167.567 17.688C167.023 18.2 166.377 18.5947 165.631 18.872C164.884 19.1493 164.068 19.288 163.183 19.288C162.297 19.288 161.481 19.1493 160.735 18.872C159.988 18.5947 159.343 18.2 158.799 17.688C158.255 17.1653 157.828 16.536 157.519 15.8C157.22 15.064 157.071 14.2427 157.071 13.336ZM159.663 13.336C159.663 13.8693 159.743 14.36 159.903 14.808C160.073 15.2453 160.313 15.6293 160.623 15.96C160.932 16.28 161.3 16.5307 161.727 16.712C162.164 16.8933 162.649 16.984 163.183 16.984C163.716 16.984 164.196 16.8933 164.623 16.712C165.06 16.5307 165.433 16.28 165.743 15.96C166.052 15.6293 166.287 15.2453 166.447 14.808C166.617 14.36 166.703 13.8693 166.703 13.336C166.703 12.8133 166.617 12.328 166.447 11.88C166.287 11.432 166.052 11.048 165.743 10.728C165.433 10.3973 165.06 10.1413 164.623 9.96C164.196 9.77867 163.716 9.688 163.183 9.688C162.649 9.688 162.164 9.77867 161.727 9.96C161.3 10.1413 160.932 10.3973 160.623 10.728C160.313 11.048 160.073 11.432 159.903 11.88C159.743 12.328 159.663 12.8133 159.663 13.336ZM170.991 7.672H174.767L177.375 15.064H177.407L180.031 7.672H183.791V19H181.295V10.312H181.263L178.287 19H176.383L173.519 10.312H173.487V19H170.991V7.672ZM200.387 14.632C200.387 15.304 200.285 15.9227 200.083 16.488C199.88 17.0533 199.576 17.544 199.171 17.96C198.776 18.376 198.28 18.7013 197.683 18.936C197.085 19.1707 196.397 19.288 195.619 19.288C194.829 19.288 194.136 19.1707 193.539 18.936C192.941 18.7013 192.44 18.376 192.035 17.96C191.64 17.544 191.341 17.0533 191.139 16.488C190.936 15.9227 190.835 15.304 190.835 14.632V7.672H193.331V14.536C193.331 14.888 193.384 15.2133 193.491 15.512C193.608 15.8107 193.768 16.072 193.971 16.296C194.173 16.5093 194.413 16.68 194.691 16.808C194.979 16.9253 195.288 16.984 195.619 16.984C195.949 16.984 196.253 16.9253 196.531 16.808C196.808 16.68 197.048 16.5093 197.251 16.296C197.453 16.072 197.608 15.8107 197.715 15.512C197.832 15.2133 197.891 14.888 197.891 14.536V7.672H200.387V14.632ZM202.662 7.672H205.158V19H202.662V7.672Z" fill="white"/>
<path d="M44.6235 35.712H46.2195L46.4835 33.768H44.8875L44.6235 35.712ZM43.7955 36.432H42.5715V35.712H43.8915L44.1555 33.768H42.8595V33.048H44.2635L44.6115 30.504H45.3435L44.9955 33.048H46.5915L46.9395 30.504H47.6715L47.3235 33.048H48.4035V33.768H47.2155L46.9515 35.712H48.0915V36.432H46.8555L46.4955 39H45.7635L46.1235 36.432H44.5275L44.1675 39H43.4355L43.7955 36.432ZM51.5075 31.872H48.9035V30.504H55.6235V31.872H53.0195V39H51.5075V31.872ZM58.3046 30.504H59.6126L63.2726 39H61.5446L60.7526 37.056H57.0686L56.3006 39H54.6086L58.3046 30.504ZM60.2246 35.76L58.9166 32.304L57.5846 35.76H60.2246ZM64.2167 30.504H65.7287V37.632H69.3407V39H64.2167V30.504ZM70.4394 30.504H76.0674V31.872H71.9514V33.96H75.8514V35.328H71.9514V37.632H76.2834V39H70.4394V30.504ZM77.7753 30.504H79.7793L83.8953 36.816H83.9193V30.504H85.4313V39H83.5113L79.3113 32.484H79.2873V39H77.7753V30.504ZM89.0661 31.872H86.4621V30.504H93.1821V31.872H90.5781V39H89.0661V31.872ZM95.2847 38.208H99.8327V39H94.4207V30.504H99.6887V31.296H95.2847V34.188H99.4007V34.98H95.2847V38.208ZM105.554 31.908C105.178 31.356 104.63 31.08 103.91 31.08C103.686 31.08 103.466 31.112 103.25 31.176C103.034 31.232 102.838 31.324 102.662 31.452C102.494 31.572 102.358 31.732 102.254 31.932C102.15 32.124 102.098 32.352 102.098 32.616C102.098 33 102.206 33.3 102.422 33.516C102.638 33.724 102.906 33.896 103.226 34.032C103.546 34.168 103.894 34.292 104.27 34.404C104.654 34.508 105.006 34.652 105.326 34.836C105.646 35.012 105.914 35.248 106.13 35.544C106.346 35.84 106.454 36.244 106.454 36.756C106.454 37.14 106.37 37.488 106.202 37.8C106.042 38.104 105.826 38.36 105.554 38.568C105.29 38.776 104.99 38.936 104.654 39.048C104.326 39.16 103.994 39.216 103.658 39.216C103.138 39.216 102.642 39.12 102.17 38.928C101.706 38.728 101.31 38.404 100.982 37.956L101.762 37.392C101.946 37.704 102.202 37.956 102.53 38.148C102.858 38.332 103.246 38.424 103.694 38.424C103.91 38.424 104.126 38.392 104.342 38.328C104.558 38.256 104.75 38.156 104.918 38.028C105.094 37.892 105.238 37.728 105.35 37.536C105.462 37.344 105.518 37.124 105.518 36.876C105.518 36.58 105.454 36.336 105.326 36.144C105.206 35.944 105.042 35.78 104.834 35.652C104.634 35.516 104.402 35.404 104.138 35.316C103.882 35.228 103.614 35.14 103.334 35.052C103.062 34.964 102.794 34.864 102.53 34.752C102.274 34.64 102.042 34.5 101.834 34.332C101.634 34.156 101.47 33.94 101.342 33.684C101.222 33.42 101.162 33.092 101.162 32.7C101.162 32.292 101.238 31.936 101.39 31.632C101.55 31.328 101.758 31.076 102.014 30.876C102.278 30.676 102.574 30.528 102.902 30.432C103.23 30.336 103.566 30.288 103.91 30.288C104.39 30.288 104.826 30.364 105.218 30.516C105.61 30.668 105.974 30.936 106.31 31.32L105.554 31.908ZM115.198 37.656C115.054 37.872 114.874 38.076 114.658 38.268C114.45 38.46 114.21 38.628 113.938 38.772C113.666 38.908 113.37 39.016 113.05 39.096C112.738 39.176 112.406 39.216 112.054 39.216C111.422 39.216 110.834 39.104 110.29 38.88C109.754 38.656 109.286 38.348 108.886 37.956C108.494 37.556 108.186 37.084 107.962 36.54C107.738 35.996 107.626 35.4 107.626 34.752C107.626 34.104 107.738 33.508 107.962 32.964C108.186 32.42 108.494 31.952 108.886 31.56C109.286 31.16 109.754 30.848 110.29 30.624C110.834 30.4 111.422 30.288 112.054 30.288C112.582 30.288 113.11 30.392 113.638 30.6C114.166 30.808 114.618 31.152 114.994 31.632L114.238 32.196C114.15 32.06 114.03 31.924 113.878 31.788C113.726 31.652 113.55 31.532 113.35 31.428C113.158 31.324 112.95 31.24 112.726 31.176C112.502 31.112 112.278 31.08 112.054 31.08C111.51 31.08 111.022 31.18 110.59 31.38C110.158 31.58 109.79 31.848 109.486 32.184C109.19 32.52 108.962 32.912 108.802 33.36C108.642 33.8 108.562 34.264 108.562 34.752C108.562 35.24 108.642 35.708 108.802 36.156C108.962 36.596 109.19 36.984 109.486 37.32C109.79 37.656 110.158 37.924 110.59 38.124C111.022 38.324 111.51 38.424 112.054 38.424C112.278 38.424 112.498 38.404 112.714 38.364C112.938 38.324 113.154 38.256 113.362 38.16C113.578 38.064 113.778 37.936 113.962 37.776C114.154 37.608 114.33 37.4 114.49 37.152L115.198 37.656ZM117.767 35.976H121.451L119.615 31.512L117.767 35.976ZM116.507 39H115.499L119.195 30.504H120.035L123.731 39H122.723L121.787 36.768H117.443L116.507 39ZM125.742 38.208H129.702V39H124.878V30.504H125.742V38.208ZM131.994 35.976H135.678L133.842 31.512L131.994 35.976ZM130.734 39H129.726L133.422 30.504H134.262L137.958 39H136.95L136.014 36.768H131.67L130.734 39ZM141.008 39H140.144V31.296H137.3V30.504H143.852V31.296H141.008V39ZM146.039 39H145.175V30.504H146.039V39ZM155.683 34.752C155.683 34.264 155.603 33.8 155.443 33.36C155.283 32.912 155.051 32.52 154.747 32.184C154.451 31.848 154.087 31.58 153.655 31.38C153.223 31.18 152.735 31.08 152.191 31.08C151.647 31.08 151.159 31.18 150.727 31.38C150.295 31.58 149.927 31.848 149.623 32.184C149.327 32.52 149.099 32.912 148.939 33.36C148.779 33.8 148.699 34.264 148.699 34.752C148.699 35.24 148.779 35.708 148.939 36.156C149.099 36.596 149.327 36.984 149.623 37.32C149.927 37.656 150.295 37.924 150.727 38.124C151.159 38.324 151.647 38.424 152.191 38.424C152.735 38.424 153.223 38.324 153.655 38.124C154.087 37.924 154.451 37.656 154.747 37.32C155.051 36.984 155.283 36.596 155.443 36.156C155.603 35.708 155.683 35.24 155.683 34.752ZM156.619 34.752C156.619 35.4 156.507 35.996 156.283 36.54C156.059 37.084 155.747 37.556 155.347 37.956C154.955 38.348 154.487 38.656 153.943 38.88C153.407 39.104 152.823 39.216 152.191 39.216C151.559 39.216 150.971 39.104 150.427 38.88C149.891 38.656 149.423 38.348 149.023 37.956C148.631 37.556 148.323 37.084 148.099 36.54C147.875 35.996 147.763 35.4 147.763 34.752C147.763 34.104 147.875 33.508 148.099 32.964C148.323 32.42 148.631 31.952 149.023 31.56C149.423 31.16 149.891 30.848 150.427 30.624C150.971 30.4 151.559 30.288 152.191 30.288C152.823 30.288 153.407 30.4 153.943 30.624C154.487 30.848 154.955 31.16 155.347 31.56C155.747 31.952 156.059 32.42 156.283 32.964C156.507 33.508 156.619 34.104 156.619 34.752ZM164.49 37.704H164.514V30.504H165.378V39H164.298L159.234 31.728H159.21V39H158.346V30.504H159.426L164.49 37.704Z" fill="white"/>
<defs>
<radialGradient id="paint0_radial" cx="0" cy="0" r="1" gradientUnits="userSpaceOnUse" gradientTransform="translate(6.29785 7.10513) rotate(90) scale(4.5112 7.83821)">
<stop/>
<stop offset="0.917127" stop-opacity="0"/>
</radialGradient>
<radialGradient id="paint1_radial" cx="0" cy="0" r="1" gradientUnits="userSpaceOnUse" gradientTransform="translate(10.4538 24.5925) rotate(90) scale(4.87416 7.31125)">
<stop/>
<stop offset="0.917127" stop-opacity="0"/>
</radialGradient>
<radialGradient id="paint2_radial" cx="0" cy="0" r="1" gradientUnits="userSpaceOnUse" gradientTransform="translate(23.0828 5.87113) rotate(90) scale(4.54183 6.97892)">
<stop/>
<stop offset="0.917127" stop-opacity="0"/>
</radialGradient>
<radialGradient id="paint3_radial" cx="0" cy="0" r="1" gradientUnits="userSpaceOnUse" gradientTransform="translate(23.9686 18.1673) rotate(90) scale(4.54183 6.97892)">
<stop/>
<stop offset="0.917127" stop-opacity="0"/>
</radialGradient>
<radialGradient id="paint4_radial" cx="0" cy="0" r="1" gradientUnits="userSpaceOnUse" gradientTransform="translate(12.7561 4.54183) rotate(90) scale(4.54183 12.7561)">
<stop/>
<stop offset="0.917127" stop-opacity="0"/>
</radialGradient>
</defs>
</svg>
