<svg width="36" height="37" viewBox="0 0 36 37" fill="none" xmlns="http://www.w3.org/2000/svg">
<path opacity="0.4" fill-rule="evenodd" clip-rule="evenodd" d="M11.3333 26C11.3333 25.5397 11.7063 25.1666 12.1666 25.1666H23.8333C24.2935 25.1666 24.6666 25.5397 24.6666 26C24.6666 26.4602 24.2935 26.8333 23.8333 26.8333H12.1666C11.7063 26.8333 11.3333 26.4602 11.3333 26Z" fill="#8785F4"/>
<path fill-rule="evenodd" clip-rule="evenodd" d="M13 12.6666V25.1666H23V12.6666C23 11.2859 21.8807 10.1666 20.5 10.1666H15.5C14.1193 10.1666 13 11.2859 13 12.6666ZM19.6667 19.3333C20.1269 19.3333 20.5 18.9602 20.5 18.5C20.5 18.0397 20.1269 17.6666 19.6667 17.6666C19.2064 17.6666 18.8333 18.0397 18.8333 18.5C18.8333 18.9602 19.2064 19.3333 19.6667 19.3333Z" fill="#8785F4"/>
<rect x="1" y="1.5" width="34" height="34" rx="7" stroke="#3C317E" stroke-width="2"/>
</svg>
