<svg width="24" height="18" viewBox="0 0 24 18" fill="none" xmlns="http://www.w3.org/2000/svg">
<path d="M3.25367 3.35245H3.50132L3.58373 3.11891C3.86941 2.30926 4.3992 1.60815 5.10006 1.11223C5.80093 0.616314 6.63836 0.35 7.49694 0.35C8.35551 0.35 9.19295 0.616314 9.89381 1.11223C10.5947 1.60815 11.1245 2.30926 11.4101 3.11891L11.4926 3.35245H11.7402H22.4908C22.7956 3.35245 23.088 3.47355 23.3036 3.6891C23.5191 3.90465 23.6402 4.197 23.6402 4.50184C23.6402 4.80667 23.5191 5.09902 23.3036 5.31458C23.088 5.53013 22.7956 5.65122 22.4908 5.65122H11.7402H11.4926L11.4101 5.88477C11.1245 6.69442 10.5947 7.39552 9.89381 7.89144C9.19295 8.38736 8.35551 8.65367 7.49694 8.65367C6.63836 8.65367 5.80093 8.38736 5.10006 7.89144C4.3992 7.39552 3.86941 6.69442 3.58373 5.88477L3.50132 5.65122H3.25367H1.49939C1.19455 5.65122 0.9022 5.53013 0.686648 5.31458C0.471096 5.09902 0.35 4.80667 0.35 4.50184C0.35 4.197 0.471096 3.90465 0.686648 3.6891C0.9022 3.47355 1.19455 3.35245 1.49939 3.35245H3.25367ZM12.25 12.3488H12.4976L12.5801 12.1152C12.8657 11.3056 13.3955 10.6045 14.0964 10.1086C14.7973 9.61264 15.6347 9.34632 16.4933 9.34632C17.3518 9.34632 18.1893 9.61264 18.8901 10.1086C19.591 10.6045 20.1208 11.3056 20.4065 12.1152L20.4889 12.3488H20.7365H22.4908C22.7957 12.3488 23.088 12.4699 23.3036 12.6854C23.5191 12.901 23.6402 13.1933 23.6402 13.4982C23.6402 13.803 23.5191 14.0953 23.3036 14.3109C23.088 14.5265 22.7956 14.6475 22.4908 14.6475H20.7365H20.4889L20.4065 14.8811C20.1208 15.6907 19.591 16.3918 18.8901 16.8878C18.1893 17.3837 17.3518 17.65 16.4933 17.65C15.6347 17.65 14.7973 17.3837 14.0964 16.8878C13.3955 16.3918 12.8657 15.6907 12.5801 14.8811L12.4976 14.6475H12.25H1.49939C1.19455 14.6475 0.902201 14.5265 0.686648 14.3109C0.471096 14.0953 0.35 13.803 0.35 13.4982C0.35 13.1933 0.471096 12.901 0.686648 12.6854C0.9022 12.4699 1.19455 12.3488 1.49939 12.3488H12.25ZM7.49694 2.65245C7.00645 2.65245 6.53605 2.8473 6.18922 3.19412C5.8424 3.54095 5.64755 4.01135 5.64755 4.50184C5.64755 4.99232 5.8424 5.46272 6.18922 5.80955C6.53605 6.15638 7.00645 6.35122 7.49694 6.35122C7.98743 6.35122 8.45782 6.15638 8.80465 5.80955C9.15148 5.46272 9.34632 4.99232 9.34632 4.50184C9.34632 4.01135 9.15148 3.54095 8.80465 3.19412C8.45782 2.8473 7.98743 2.65245 7.49694 2.65245ZM16.4933 11.6488C16.0028 11.6488 15.5324 11.8436 15.1855 12.1904C14.8387 12.5373 14.6439 13.0077 14.6439 13.4982C14.6439 13.9887 14.8387 14.459 15.1855 14.8059C15.5324 15.1527 16.0028 15.3475 16.4933 15.3475C16.9838 15.3475 17.4541 15.1527 17.801 14.8059C18.1478 14.459 18.3426 13.9887 18.3426 13.4982C18.3426 13.0077 18.1478 12.5373 17.801 12.1904C17.4541 11.8436 16.9837 11.6488 16.4933 11.6488Z" fill="#5038BC" stroke="white" stroke-width="0.7"/>
</svg>
