<svg width="207" height="16" viewBox="0 0 207 16" fill="none" xmlns="http://www.w3.org/2000/svg">
<path d="M4.13077 9.33006H6.79077L7.23077 6.09006H4.57077L4.13077 9.33006ZM2.75077 10.5301H0.710773V9.33006H2.91077L3.35077 6.09006H1.19077V4.89006H3.53077L4.11077 0.650059H5.33077L4.75077 4.89006H7.41077L7.99077 0.650059H9.21077L8.63077 4.89006H10.4308V6.09006H8.45077L8.01077 9.33006H9.91077V10.5301H7.85077L7.25077 14.8101H6.03077L6.63077 10.5301H3.97077L3.37077 14.8101H2.15077L2.75077 10.5301ZM15.3041 3.41006H11.2641V0.650059H22.4641V3.41006H18.4241V14.8101H15.3041V3.41006ZM26.8725 0.650059H29.4525L35.6125 14.8101H32.0925L30.8725 11.8101H25.3725L24.1925 14.8101H20.7525L26.8725 0.650059ZM28.0725 4.77006L26.3525 9.17006H29.8125L28.0725 4.77006ZM37.1567 0.650059H40.2767V11.9301H46.0567V14.8101H37.1567V0.650059ZM47.8989 0.650059H57.5189V3.53006H51.0189V6.17006H57.1589V9.05006H51.0189V11.9301H57.8789V14.8101H47.8989V0.650059ZM60.3766 0.650059H64.6166L70.6366 10.4901H70.6766V0.650059H73.7966V14.8101H69.7166L63.5366 4.73006H63.4966V14.8101H60.3766V0.650059ZM79.4251 3.41006H75.3851V0.650059H86.5851V3.41006H82.5451V14.8101H79.4251V3.41006ZM90.0895 13.4901H97.6695V14.8101H88.6495V0.650059H97.4295V1.97006H90.0895V6.79006H96.9495V8.11006H90.0895V13.4901ZM107.205 2.99006C106.578 2.07006 105.665 1.61006 104.465 1.61006C104.092 1.61006 103.725 1.66339 103.365 1.77006C103.005 1.86339 102.678 2.01672 102.385 2.23006C102.105 2.43006 101.878 2.69672 101.705 3.03006C101.532 3.35006 101.445 3.73006 101.445 4.17006C101.445 4.81006 101.625 5.31006 101.985 5.67006C102.345 6.01672 102.792 6.30339 103.325 6.53006C103.858 6.75672 104.438 6.96339 105.065 7.15006C105.705 7.32339 106.292 7.56339 106.825 7.87006C107.358 8.16339 107.805 8.55672 108.165 9.05006C108.525 9.54339 108.705 10.2167 108.705 11.0701C108.705 11.7101 108.565 12.2901 108.285 12.8101C108.018 13.3167 107.658 13.7434 107.205 14.0901C106.765 14.4367 106.265 14.7034 105.705 14.8901C105.158 15.0767 104.605 15.1701 104.045 15.1701C103.178 15.1701 102.352 15.0101 101.565 14.6901C100.792 14.3567 100.132 13.8167 99.585 13.0701L100.885 12.1301C101.192 12.6501 101.618 13.0701 102.165 13.3901C102.712 13.6967 103.358 13.8501 104.105 13.8501C104.465 13.8501 104.825 13.7967 105.185 13.6901C105.545 13.5701 105.865 13.4034 106.145 13.1901C106.438 12.9634 106.678 12.6901 106.865 12.3701C107.052 12.0501 107.145 11.6834 107.145 11.2701C107.145 10.7767 107.038 10.3701 106.825 10.0501C106.625 9.71673 106.352 9.44339 106.005 9.23006C105.672 9.00339 105.285 8.81673 104.845 8.67006C104.418 8.52339 103.972 8.37672 103.505 8.23006C103.052 8.08339 102.605 7.91673 102.165 7.73006C101.738 7.54339 101.352 7.31006 101.005 7.03006C100.672 6.73672 100.398 6.37672 100.185 5.95006C99.985 5.51006 99.885 4.96339 99.885 4.31006C99.885 3.63006 100.012 3.03672 100.265 2.53006C100.532 2.02339 100.878 1.60339 101.305 1.27006C101.745 0.936725 102.238 0.690058 102.785 0.530058C103.332 0.370058 103.892 0.290058 104.465 0.290058C105.265 0.290058 105.992 0.416725 106.645 0.670058C107.298 0.923392 107.905 1.37006 108.465 2.01006L107.205 2.99006ZM123.278 12.5701C123.038 12.9301 122.738 13.2701 122.378 13.5901C122.032 13.9101 121.632 14.1901 121.178 14.4301C120.725 14.6567 120.232 14.8367 119.698 14.9701C119.178 15.1034 118.625 15.1701 118.038 15.1701C116.985 15.1701 116.005 14.9834 115.098 14.6101C114.205 14.2367 113.425 13.7234 112.758 13.0701C112.105 12.4034 111.592 11.6167 111.218 10.7101C110.845 9.80339 110.658 8.81006 110.658 7.73006C110.658 6.65006 110.845 5.65672 111.218 4.75006C111.592 3.84339 112.105 3.06339 112.758 2.41006C113.425 1.74339 114.205 1.22339 115.098 0.850058C116.005 0.476725 116.985 0.290058 118.038 0.290058C118.918 0.290058 119.798 0.463391 120.678 0.810058C121.558 1.15672 122.312 1.73006 122.938 2.53006L121.678 3.47006C121.532 3.24339 121.332 3.01672 121.078 2.79006C120.825 2.56339 120.532 2.36339 120.198 2.19006C119.878 2.01672 119.532 1.87672 119.158 1.77006C118.785 1.66339 118.412 1.61006 118.038 1.61006C117.132 1.61006 116.318 1.77672 115.598 2.11006C114.878 2.44339 114.265 2.89006 113.758 3.45006C113.265 4.01006 112.885 4.66339 112.618 5.41006C112.352 6.14339 112.218 6.91672 112.218 7.73006C112.218 8.54339 112.352 9.32339 112.618 10.0701C112.885 10.8034 113.265 11.4501 113.758 12.0101C114.265 12.5701 114.878 13.0167 115.598 13.3501C116.318 13.6834 117.132 13.8501 118.038 13.8501C118.412 13.8501 118.778 13.8167 119.138 13.7501C119.512 13.6834 119.872 13.5701 120.218 13.4101C120.578 13.2501 120.912 13.0367 121.218 12.7701C121.538 12.4901 121.832 12.1434 122.098 11.7301L123.278 12.5701ZM127.56 9.77006H133.7L130.64 2.33006L127.56 9.77006ZM125.46 14.8101H123.78L129.94 0.650059H131.34L137.5 14.8101H135.82L134.26 11.0901H127.02L125.46 14.8101ZM140.851 13.4901H147.451V14.8101H139.411V0.650059H140.851V13.4901ZM151.271 9.77006H157.411L154.351 2.33006L151.271 9.77006ZM149.171 14.8101H147.491L153.651 0.650059H155.051L161.211 14.8101H159.531L157.971 11.0901H150.731L149.171 14.8101ZM166.295 14.8101H164.855V1.97006H160.115V0.650059H171.035V1.97006H166.295V14.8101ZM174.679 14.8101H173.239V0.650059H174.679V14.8101ZM190.753 7.73006C190.753 6.91672 190.619 6.14339 190.353 5.41006C190.086 4.66339 189.699 4.01006 189.193 3.45006C188.699 2.89006 188.093 2.44339 187.373 2.11006C186.653 1.77672 185.839 1.61006 184.933 1.61006C184.026 1.61006 183.213 1.77672 182.493 2.11006C181.773 2.44339 181.159 2.89006 180.653 3.45006C180.159 4.01006 179.779 4.66339 179.513 5.41006C179.246 6.14339 179.113 6.91672 179.113 7.73006C179.113 8.54339 179.246 9.32339 179.513 10.0701C179.779 10.8034 180.159 11.4501 180.653 12.0101C181.159 12.5701 181.773 13.0167 182.493 13.3501C183.213 13.6834 184.026 13.8501 184.933 13.8501C185.839 13.8501 186.653 13.6834 187.373 13.3501C188.093 13.0167 188.699 12.5701 189.193 12.0101C189.699 11.4501 190.086 10.8034 190.353 10.0701C190.619 9.32339 190.753 8.54339 190.753 7.73006ZM192.313 7.73006C192.313 8.81006 192.126 9.80339 191.753 10.7101C191.379 11.6167 190.859 12.4034 190.193 13.0701C189.539 13.7234 188.759 14.2367 187.853 14.6101C186.959 14.9834 185.986 15.1701 184.933 15.1701C183.879 15.1701 182.899 14.9834 181.993 14.6101C181.099 14.2367 180.319 13.7234 179.653 13.0701C178.999 12.4034 178.486 11.6167 178.113 10.7101C177.739 9.80339 177.553 8.81006 177.553 7.73006C177.553 6.65006 177.739 5.65672 178.113 4.75006C178.486 3.84339 178.999 3.06339 179.653 2.41006C180.319 1.74339 181.099 1.22339 181.993 0.850058C182.899 0.476725 183.879 0.290058 184.933 0.290058C185.986 0.290058 186.959 0.476725 187.853 0.850058C188.759 1.22339 189.539 1.74339 190.193 2.41006C190.859 3.06339 191.379 3.84339 191.753 4.75006C192.126 5.65672 192.313 6.65006 192.313 7.73006ZM205.432 12.6501H205.472V0.650059H206.912V14.8101H205.112L196.672 2.69006H196.632V14.8101H195.192V0.650059H196.992L205.432 12.6501Z" fill="white"/>
</svg>
