<svg width="36" height="37" viewBox="0 0 36 37" fill="none" xmlns="http://www.w3.org/2000/svg">
<path opacity="0.4" d="M19.6667 11C19.2067 11 18.8333 11.3733 18.8333 11.8333V13.5C18.8333 13.96 19.2067 14.3333 19.6667 14.3333H24.6667C25.1267 14.3333 25.5 13.96 25.5 13.5V11.8333C25.5 11.3733 25.1267 11 24.6667 11H19.6667ZM19.6667 16C19.2067 16 18.8333 16.3733 18.8333 16.8333C18.8333 17.2933 19.2067 17.6667 19.6667 17.6667H23C23.46 17.6667 23.8334 17.2933 23.8334 16.8333C23.8334 16.3733 23.46 16 23 16H19.6667ZM13.8333 19.3333C11.9925 19.3333 10.5 20.8258 10.5 22.6667C10.5 24.5075 11.9925 26 13.8333 26C15.6742 26 17.1667 24.5075 17.1667 22.6667C17.1667 20.8258 15.6742 19.3333 13.8333 19.3333ZM19.6667 19.3333C19.2067 19.3333 18.8333 19.7067 18.8333 20.1667V21.8333C18.8333 22.2933 19.2067 22.6667 19.6667 22.6667H24.6667C25.1267 22.6667 25.5 22.2933 25.5 21.8333V20.1667C25.5 19.7067 25.1267 19.3333 24.6667 19.3333H19.6667ZM13.8333 21C14.7542 21 15.5 21.7458 15.5 22.6667C15.5 23.5875 14.7542 24.3333 13.8333 24.3333C12.9125 24.3333 12.1667 23.5875 12.1667 22.6667C12.1667 21.7458 12.9125 21 13.8333 21ZM19.6667 24.3333C19.2067 24.3333 18.8333 24.7067 18.8333 25.1667C18.8333 25.6267 19.2067 26 19.6667 26H23C23.46 26 23.8334 25.6267 23.8334 25.1667C23.8334 24.7067 23.46 24.3333 23 24.3333H19.6667Z" fill="#8785F4"/>
<ellipse cx="13.8333" cy="14.3333" rx="3.33333" ry="3.33333" fill="#8785F4"/>
<rect x="1" y="1.5" width="34" height="34" rx="7" stroke="#3C317E" stroke-width="2"/>
</svg>
