<svg width="36" height="36" viewBox="0 0 36 36" fill="none" xmlns="http://www.w3.org/2000/svg">
<path opacity="0.4" d="M19.6667 10.5C19.2067 10.5 18.8333 10.8733 18.8333 11.3333V13C18.8333 13.46 19.2067 13.8333 19.6667 13.8333H24.6667C25.1267 13.8333 25.5 13.46 25.5 13V11.3333C25.5 10.8733 25.1267 10.5 24.6667 10.5H19.6667ZM19.6667 15.5C19.2067 15.5 18.8333 15.8733 18.8333 16.3333C18.8333 16.7933 19.2067 17.1667 19.6667 17.1667H23C23.46 17.1667 23.8334 16.7933 23.8334 16.3333C23.8334 15.8733 23.46 15.5 23 15.5H19.6667ZM13.8333 18.8333C11.9925 18.8333 10.5 20.3258 10.5 22.1667C10.5 24.0075 11.9925 25.5 13.8333 25.5C15.6742 25.5 17.1667 24.0075 17.1667 22.1667C17.1667 20.3258 15.6742 18.8333 13.8333 18.8333ZM19.6667 18.8333C19.2067 18.8333 18.8333 19.2067 18.8333 19.6667V21.3333C18.8333 21.7933 19.2067 22.1667 19.6667 22.1667H24.6667C25.1267 22.1667 25.5 21.7933 25.5 21.3333V19.6667C25.5 19.2067 25.1267 18.8333 24.6667 18.8333H19.6667ZM13.8333 20.5C14.7542 20.5 15.5 21.2458 15.5 22.1667C15.5 23.0875 14.7542 23.8333 13.8333 23.8333C12.9125 23.8333 12.1667 23.0875 12.1667 22.1667C12.1667 21.2458 12.9125 20.5 13.8333 20.5ZM19.6667 23.8333C19.2067 23.8333 18.8333 24.2067 18.8333 24.6667C18.8333 25.1267 19.2067 25.5 19.6667 25.5H23C23.46 25.5 23.8334 25.1267 23.8334 24.6667C23.8334 24.2067 23.46 23.8333 23 23.8333H19.6667Z" fill="#7368EC"/>
<ellipse cx="13.8333" cy="13.8333" rx="3.33333" ry="3.33333" fill="#5038BC"/>
<rect x="1" y="1" width="34" height="34" rx="7" stroke="#E1E5FE" stroke-width="2"/>
</svg>
